<svg xmlns="http://www.w3.org/2000/svg" xmlns:xlink="http://www.w3.org/1999/xlink" width="175px" height="436px" version="1.1"><defs/><g transform="translate(0.5,0.5)"><rect x="1" y="1" width="130" height="30" fill="#d0d0d0" stroke="#d0d0d0" transform="translate(2,3)" opacity="1"/><rect x="1" y="1" width="130" height="30" fill="#ffb570" stroke="#000000" pointer-events="none"/><rect x="1" y="1" width="130" height="30" fill="none" stroke="none" pointer-events="none"/><g fill="#000000" font-family="Arial" font-weight="bold" text-anchor="middle" font-size="12px"><text x="66" y="20">Image dataset</text></g><rect x="21" y="41" width="130" height="30" fill="#d0d0d0" stroke="#d0d0d0" transform="translate(2,3)" opacity="1"/><rect x="21" y="41" width="130" height="30" fill="#fff4c3" stroke="#000000" pointer-events="none"/><rect x="21" y="41" width="130" height="30" fill="none" stroke="none" pointer-events="none"/><g fill="#000000" font-family="Arial" font-weight="bold" text-anchor="middle" font-size="12px"><text x="86" y="60">airplanes</text></g><rect x="41" y="81" width="130" height="20" fill="#d0d0d0" stroke="#d0d0d0" transform="translate(2,3)" opacity="1"/><rect x="41" y="81" width="130" height="20" fill="#f3e6fa" stroke="#000000" pointer-events="none"/><rect x="41" y="81" width="130" height="20" fill="none" stroke="none" pointer-events="none"/><g fill="#000000" font-family="Arial" text-anchor="middle" font-size="12px"><text x="106" y="95">learn</text></g><rect x="41" y="111" width="130" height="20" fill="#d0d0d0" stroke="#d0d0d0" transform="translate(2,3)" opacity="1"/><rect x="41" y="111" width="130" height="20" fill="#f3e6fa" stroke="#000000" pointer-events="none"/><rect x="41" y="111" width="130" height="20" fill="none" stroke="none" pointer-events="none"/><g fill="#000000" font-family="Arial" text-anchor="middle" font-size="12px"><text x="106" y="125">test</text></g><rect x="21" y="141" width="130" height="30" fill="#d0d0d0" stroke="#d0d0d0" transform="translate(2,3)" opacity="1"/><rect x="21" y="141" width="130" height="30" fill="#fff4c3" stroke="#000000" pointer-events="none"/><rect x="21" y="141" width="130" height="30" fill="none" stroke="none" pointer-events="none"/><g fill="#000000" font-family="Arial" font-weight="bold" text-anchor="middle" font-size="12px"><text x="86" y="160">buterfly</text></g><rect x="41" y="181" width="130" height="20" fill="#d0d0d0" stroke="#d0d0d0" transform="translate(2,3)" opacity="1"/><rect x="41" y="181" width="130" height="20" fill="#f3e6fa" stroke="#000000" pointer-events="none"/><rect x="41" y="181" width="130" height="20" fill="none" stroke="none" pointer-events="none"/><g fill="#000000" font-family="Arial" text-anchor="middle" font-size="12px"><text x="106" y="195">learn</text></g><rect x="41" y="211" width="130" height="20" fill="#d0d0d0" stroke="#d0d0d0" transform="translate(2,3)" opacity="1"/><rect x="41" y="211" width="130" height="20" fill="#f3e6fa" stroke="#000000" pointer-events="none"/><rect x="41" y="211" width="130" height="20" fill="none" stroke="none" pointer-events="none"/><g fill="#000000" font-family="Arial" text-anchor="middle" font-size="12px"><text x="106" y="225">test</text></g><rect x="21" y="241" width="130" height="30" fill="#d0d0d0" stroke="#d0d0d0" transform="translate(2,3)" opacity="1"/><rect x="21" y="241" width="130" height="30" fill="#fff4c3" stroke="#000000" pointer-events="none"/><rect x="21" y="241" width="130" height="30" fill="none" stroke="none" pointer-events="none"/><g fill="#000000" font-family="Arial" font-weight="bold" text-anchor="middle" font-size="12px"><text x="86" y="260">car</text></g><rect x="41" y="281" width="130" height="20" fill="#d0d0d0" stroke="#d0d0d0" transform="translate(2,3)" opacity="1"/><rect x="41" y="281" width="130" height="20" fill="#f3e6fa" stroke="#000000" pointer-events="none"/><rect x="41" y="281" width="130" height="20" fill="none" stroke="none" pointer-events="none"/><g fill="#000000" font-family="Arial" text-anchor="middle" font-size="12px"><text x="106" y="295">learn</text></g><rect x="41" y="311" width="130" height="20" fill="#d0d0d0" stroke="#d0d0d0" transform="translate(2,3)" opacity="1"/><rect x="41" y="311" width="130" height="20" fill="#f3e6fa" stroke="#000000" pointer-events="none"/><rect x="41" y="311" width="130" height="20" fill="none" stroke="none" pointer-events="none"/><g fill="#000000" font-family="Arial" text-anchor="middle" font-size="12px"><text x="106" y="325">test</text></g><rect x="21" y="341" width="130" height="30" fill="#d0d0d0" stroke="#d0d0d0" transform="translate(2,3)" opacity="1"/><rect x="21" y="341" width="130" height="30" fill="#fff4c3" stroke="#000000" pointer-events="none"/><rect x="21" y="341" width="130" height="30" fill="none" stroke="none" pointer-events="none"/><g fill="#000000" font-family="Arial" font-weight="bold" text-anchor="middle" font-size="12px"><text x="86" y="360">piano</text></g><rect x="41" y="381" width="130" height="20" fill="#d0d0d0" stroke="#d0d0d0" transform="translate(2,3)" opacity="1"/><rect x="41" y="381" width="130" height="20" fill="#f3e6fa" stroke="#000000" pointer-events="none"/><rect x="41" y="381" width="130" height="20" fill="none" stroke="none" pointer-events="none"/><g fill="#000000" font-family="Arial" text-anchor="middle" font-size="12px"><text x="106" y="395">learn</text></g><rect x="41" y="411" width="130" height="20" fill="#d0d0d0" stroke="#d0d0d0" transform="translate(2,3)" opacity="1"/><rect x="41" y="411" width="130" height="20" fill="#f3e6fa" stroke="#000000" pointer-events="none"/><rect x="41" y="411" width="130" height="20" fill="none" stroke="none" pointer-events="none"/><g fill="#000000" font-family="Arial" text-anchor="middle" font-size="12px"><text x="106" y="425">test</text></g><path d="M 11 51 L 11 31" fill="none" stroke="#000000" stroke-miterlimit="10" pointer-events="none"/><path d="M 11 51 L 21 51" fill="none" stroke="#000000" stroke-miterlimit="10" pointer-events="none"/><path d="M 31 91 L 31 71" fill="none" stroke="#000000" stroke-miterlimit="10" pointer-events="none"/><path d="M 31 91 L 41 91" fill="none" stroke="#000000" stroke-miterlimit="10" pointer-events="none"/><path d="M 31 91 L 31 71" fill="none" stroke="#000000" stroke-miterlimit="10" pointer-events="none"/><path d="M 31 91 L 41 91" fill="none" stroke="#000000" stroke-miterlimit="10" pointer-events="none"/><path d="M 31 121 L 31 91" fill="none" stroke="#000000" stroke-miterlimit="10" pointer-events="none"/><path d="M 31 121 L 41 121" fill="none" stroke="#000000" stroke-miterlimit="10" pointer-events="none"/><path d="M 31 191 L 31 171" fill="none" stroke="#000000" stroke-miterlimit="10" pointer-events="none"/><path d="M 31 191 L 41 191" fill="none" stroke="#000000" stroke-miterlimit="10" pointer-events="none"/><path d="M 31 291 L 31 271" fill="none" stroke="#000000" stroke-miterlimit="10" pointer-events="none"/><path d="M 31 291 L 41 291" fill="none" stroke="#000000" stroke-miterlimit="10" pointer-events="none"/><path d="M 31 391 L 31 371" fill="none" stroke="#000000" stroke-miterlimit="10" pointer-events="none"/><path d="M 31 391 L 41 391" fill="none" stroke="#000000" stroke-miterlimit="10" pointer-events="none"/><path d="M 31 221 L 31 191" fill="none" stroke="#000000" stroke-miterlimit="10" pointer-events="none"/><path d="M 31 221 L 41 221" fill="none" stroke="#000000" stroke-miterlimit="10" pointer-events="none"/><path d="M 31 321 L 31 291" fill="none" stroke="#000000" stroke-miterlimit="10" pointer-events="none"/><path d="M 31 321 L 41 321" fill="none" stroke="#000000" stroke-miterlimit="10" pointer-events="none"/><path d="M 31 421 L 31 391" fill="none" stroke="#000000" stroke-miterlimit="10" pointer-events="none"/><path d="M 31 421 L 41 421" fill="none" stroke="#000000" stroke-miterlimit="10" pointer-events="none"/><path d="M 11 351 L 11 51" fill="none" stroke="#000000" stroke-miterlimit="10" pointer-events="none"/><path d="M 21 151 L 11 151" fill="none" stroke="#000000" stroke-miterlimit="10" pointer-events="none"/><path d="M 21 251 L 11 251" fill="none" stroke="#000000" stroke-miterlimit="10" pointer-events="none"/><path d="M 21 351 L 11 351" fill="none" stroke="#000000" stroke-miterlimit="10" pointer-events="none"/></g></svg>