<svg xmlns="http://www.w3.org/2000/svg" xmlns:xlink="http://www.w3.org/1999/xlink" width="295px" height="346px" version="1.1"><defs><linearGradient x1="0%" y1="0%" x2="0%" y2="100%" id="mx-gradient-ffffff-1-ff8000-1-s-0"><stop offset="0%" style="stop-color:#ffffff"/><stop offset="100%" style="stop-color:#FF8000"/></linearGradient></defs><g transform="translate(0.5,0.5)"><rect x="1" y="1" width="290" height="40" fill="#d0d0d0" stroke="#d0d0d0" transform="translate(2,3)" opacity="1"/><rect x="1" y="1" width="290" height="40" fill="#ffff99" stroke="#000000" pointer-events="none"/><rect x="1" y="1" width="290" height="40" fill="none" stroke="none" pointer-events="none"/><g fill="#000000" font-family="Arial" font-weight="bold" text-anchor="middle" font-size="12px"><text x="146" y="25">Ekstrakcja punktów charakterystycznych</text></g><rect x="1" y="101" width="290" height="40" fill="#d0d0d0" stroke="#d0d0d0" transform="translate(2,3)" opacity="1"/><rect x="1" y="101" width="290" height="40" fill="#ffff99" stroke="#000000" pointer-events="none"/><rect x="1" y="101" width="290" height="40" fill="none" stroke="none" pointer-events="none"/><g fill="#000000" font-family="Arial" font-weight="bold" text-anchor="middle" font-size="12px"><text x="146" y="118">Klastrowanie punktów charakterystycznych</text><text x="146" y="132"> z użyciem k-średnich</text></g><rect x="1" y="301" width="290" height="40" fill="#d0d0d0" stroke="#d0d0d0" transform="translate(2,3)" opacity="1"/><rect x="1" y="301" width="290" height="40" fill="#ffff99" stroke="#000000" pointer-events="none"/><path d="M 140 51 L 150 51 L 150 61 L 160 61 L 145 91 L 130 61 L 140 61 Z" fill="url(#mx-gradient-ffffff-1-ff8000-1-s-0)" stroke="#000000" stroke-miterlimit="10" pointer-events="none"/><rect x="1" y="201" width="290" height="40" fill="#d0d0d0" stroke="#d0d0d0" transform="translate(2,3)" opacity="1"/><rect x="1" y="201" width="290" height="40" fill="#ffff99" stroke="#000000" pointer-events="none"/><rect x="1" y="201" width="290" height="40" fill="none" stroke="none" pointer-events="none"/><g fill="#000000" font-family="Arial" font-weight="bold" text-anchor="middle" font-size="12px"><text x="146" y="218">Wyznaczenie histogramu występowania punktów </text><text x="146" y="232">charakterystycznych dla każdego obrazu</text></g><path d="M 140 151 L 150 151 L 150 161 L 160 161 L 145 191 L 130 161 L 140 161 Z" fill="url(#mx-gradient-ffffff-1-ff8000-1-s-0)" stroke="#000000" stroke-miterlimit="10" pointer-events="none"/><path d="M 140 251 L 150 251 L 150 261 L 160 261 L 145 291 L 130 261 L 140 261 Z" fill="url(#mx-gradient-ffffff-1-ff8000-1-s-0)" stroke="#000000" stroke-miterlimit="10" pointer-events="none"/><rect x="1" y="301" width="290" height="40" fill="none" stroke="none" pointer-events="none"/><g fill="#000000" font-family="Arial" font-weight="bold" text-anchor="middle" font-size="12px"><text x="146" y="318">Trenowanie klasyfikatora (SVM) z użyciem</text><text x="146" y="332">histogramów jako deskryptorów</text></g></g></svg>