<svg xmlns="http://www.w3.org/2000/svg" xmlns:xlink="http://www.w3.org/1999/xlink" width="573px" height="296px" version="1.1"><defs/><g transform="translate(0.5,0.5)"><path d="M 50 39 C 50 18 140 18 140 39 L 140 87 C 140 108 50 108 50 87 Z" fill="#99ccff" stroke="#000000" stroke-miterlimit="10" pointer-events="none"/><path d="M 50 39 C 50 55 140 55 140 39" fill="none" stroke="#000000" stroke-miterlimit="10" pointer-events="none"/><rect x="50" y="113" width="90" height="20" fill="none" stroke="none" pointer-events="none"/><g fill="#000000" font-family="Helvetica" font-weight="bold" text-anchor="middle" font-size="12px"><text x="95" y="127">Zbiór treningowy</text></g><path d="M 220 93 L 244 33 L 340 33 L 316 93 Z" fill="#ffe6cc" stroke="#000000" stroke-miterlimit="10" pointer-events="none"/><rect x="255" y="48" width="50" height="30" fill="none" stroke="none" pointer-events="none"/><g fill="#000000" font-family="Helvetica" font-size="12px"><text x="257" y="60">Uczenie</text><text x="257" y="74">modelu</text></g><path d="M 140 63 L 224 63" fill="none" stroke="#000000" stroke-miterlimit="10" pointer-events="none"/><path d="M 229 63 L 222 67 L 224 63 L 222 60 Z" fill="#000000" stroke="#000000" stroke-miterlimit="10" pointer-events="none"/><path d="M 330 63 L 424 63" fill="none" stroke="#000000" stroke-miterlimit="10" pointer-events="none"/><path d="M 429 63 L 422 67 L 424 63 L 422 60 Z" fill="#000000" stroke="#000000" stroke-miterlimit="10" pointer-events="none"/><rect x="430" y="33" width="120" height="210" rx="18" ry="18" fill="#ff0080" stroke="#000000" pointer-events="none"/><rect x="450" y="63" width="80" height="55" fill="none" stroke="none" pointer-events="none"/><g fill="#FFFFFF" font-family="Helvetica" font-weight="bold" text-anchor="middle" font-size="12px"><text x="490" y="88">Model </text><text x="490" y="102">klasyfikacyjny</text></g><path d="M 50 179 C 50 158 140 158 140 179 L 140 227 C 140 248 50 248 50 227 Z" fill="#67ab9f" stroke="#000000" stroke-miterlimit="10" pointer-events="none"/><path d="M 50 179 C 50 195 140 195 140 179" fill="none" stroke="#000000" stroke-miterlimit="10" pointer-events="none"/><rect x="50" y="253" width="90" height="20" fill="none" stroke="none" pointer-events="none"/><g fill="#000000" font-family="Helvetica" font-weight="bold" text-anchor="middle" font-size="12px"><text x="95" y="267">Zbiór testowy</text></g><path d="M 220 233 L 244 173 L 340 173 L 316 233 Z" fill="#ffffcc" stroke="#000000" stroke-miterlimit="10" pointer-events="none"/><rect x="243" y="188" width="80" height="30" fill="none" stroke="none" pointer-events="none"/><g fill="#000000" font-family="Helvetica" font-size="12px"><text x="245" y="200">Zastosowanie</text><text x="245" y="214">modelu</text></g><path d="M 430 203 L 336 203" fill="none" stroke="#000000" stroke-miterlimit="10" pointer-events="none"/><path d="M 331 203 L 338 200 L 336 203 L 338 207 Z" fill="#000000" stroke="#000000" stroke-miterlimit="10" pointer-events="none"/><path d="M 230 203 L 146 203" fill="none" stroke="#000000" stroke-miterlimit="10" pointer-events="none"/><path d="M 141 203 L 148 200 L 146 203 L 148 207 Z" fill="#000000" stroke="#000000" stroke-miterlimit="10" pointer-events="none"/><path d="M 20 3 L 570 3" fill="none" stroke="#000000" stroke-miterlimit="10" stroke-dasharray="3 3" pointer-events="none"/><path d="M 20 153 L 570 153" fill="none" stroke="#000000" stroke-miterlimit="10" stroke-dasharray="3 3" pointer-events="none"/><path d="M 20 143 L 570 143" fill="none" stroke="#000000" stroke-miterlimit="10" stroke-dasharray="3 3" pointer-events="none"/><path d="M 570 143 L 570 3" fill="none" stroke="#000000" stroke-miterlimit="10" stroke-dasharray="3 3" pointer-events="none"/><path d="M 20 143 L 20 3" fill="none" stroke="#000000" stroke-miterlimit="10" stroke-dasharray="3 3" pointer-events="none"/><path d="M 20 293 L 20 153" fill="none" stroke="#000000" stroke-miterlimit="10" stroke-dasharray="3 3" pointer-events="none"/><path d="M 570 293 L 570 153" fill="none" stroke="#000000" stroke-miterlimit="10" stroke-dasharray="3 3" pointer-events="none"/><path d="M 20 293 L 570 293" fill="none" stroke="#000000" stroke-miterlimit="10" stroke-dasharray="3 3" pointer-events="none"/><rect x="-58" y="63" width="137" height="14" fill="none" stroke="none" transform="rotate(-90,11,70)" pointer-events="none"/><g fill="#000000" font-family="Helvetica" font-weight="bold" text-anchor="middle" font-size="12px" transform="rotate(-90,11,70)"><text x="11" y="74">Uczenie</text></g><rect x="-59" y="212" width="137" height="17" fill="none" stroke="none" transform="rotate(-90,10,221)" pointer-events="none"/><g fill="#000000" font-family="Helvetica" font-weight="bold" text-anchor="middle" font-size="12px" transform="rotate(-90,10,221)"><text x="10" y="225">Testowanie</text></g></g></svg>