<svg xmlns="http://www.w3.org/2000/svg" xmlns:xlink="http://www.w3.org/1999/xlink" width="293px" height="215px" version="1.1"><defs/><g transform="translate(0.5,0.5)"><rect x="51" y="51" width="120" height="80" fill="#ffffff" stroke="#000000" pointer-events="none"/><rect x="51" y="61" width="120" height="30" fill="none" stroke="none" pointer-events="none"/><g fill="#000000" font-family="Arial" font-weight="bold" text-anchor="middle" font-size="14px"><text x="111" y="81">a</text></g><rect x="51" y="96" width="120" height="30" fill="none" stroke="none" pointer-events="none"/><g fill="#000000" font-family="Arial" text-anchor="middle" font-size="12px"><text x="111" y="115">True Negative (TN)</text></g><rect x="171" y="51" width="120" height="80" fill="#ffffff" stroke="#000000" pointer-events="none"/><rect x="51" y="31" width="120" height="20" fill="#ffffcc" stroke="#000000" pointer-events="none"/><rect x="171" y="31" width="120" height="20" fill="#ffffcc" stroke="#000000" pointer-events="none"/><rect x="1" y="81" width="80" height="20" fill="#ffffcc" stroke="#000000" transform="rotate(-90,41,91)" pointer-events="none"/><rect x="51" y="31" width="120" height="20" fill="none" stroke="none" pointer-events="none"/><g fill="#000000" font-family="Arial" text-anchor="middle" font-size="12px"><text x="111" y="45">Negatywne</text></g><rect x="171" y="31" width="120" height="20" fill="none" stroke="none" pointer-events="none"/><g fill="#000000" font-family="Arial" text-anchor="middle" font-size="12px"><text x="231" y="45">Pozytywne</text></g><rect x="1" y="79" width="80" height="22" fill="none" stroke="none" transform="rotate(-90,41,90)" pointer-events="none"/><g fill="#000000" font-family="Arial" text-anchor="middle" font-size="12px" transform="rotate(-90,41,90)"><text x="41" y="94">Negatywne</text></g><rect x="51" y="131" width="120" height="80" fill="#ffffff" stroke="#000000" pointer-events="none"/><rect x="171" y="131" width="120" height="80" fill="#ffffff" stroke="#000000" pointer-events="none"/><rect x="1" y="161" width="80" height="20" fill="#ffffcc" stroke="#000000" transform="rotate(-90,41,171)" pointer-events="none"/><rect x="1" y="159" width="80" height="22" fill="none" stroke="none" transform="rotate(-90,41,170)" pointer-events="none"/><g fill="#000000" font-family="Arial" text-anchor="middle" font-size="12px" transform="rotate(-90,41,170)"><text x="41" y="174">Pozytywne</text></g><rect x="171" y="61" width="120" height="30" fill="none" stroke="none" pointer-events="none"/><g fill="#000000" font-family="Arial" font-weight="bold" text-anchor="middle" font-size="14px"><text x="231" y="81">b</text></g><rect x="171" y="96" width="120" height="30" fill="none" stroke="none" pointer-events="none"/><g fill="#000000" font-family="Arial" text-anchor="middle" font-size="12px"><text x="231" y="115">False Positive (FP)</text></g><rect x="171" y="176" width="120" height="30" fill="none" stroke="none" pointer-events="none"/><g fill="#000000" font-family="Arial" text-anchor="middle" font-size="12px"><text x="231" y="195">True Positive (TP)</text></g><rect x="51" y="176" width="120" height="30" fill="none" stroke="none" pointer-events="none"/><g fill="#000000" font-family="Arial" text-anchor="middle" font-size="12px"><text x="111" y="195">False Negative (FN)</text></g><rect x="171" y="141" width="120" height="30" fill="none" stroke="none" pointer-events="none"/><g fill="#000000" font-family="Arial" font-weight="bold" text-anchor="middle" font-size="14px"><text x="231" y="161">d</text></g><rect x="51" y="141" width="120" height="30" fill="none" stroke="none" pointer-events="none"/><g fill="#000000" font-family="Arial" font-weight="bold" text-anchor="middle" font-size="14px"><text x="111" y="161">c</text></g><rect x="51" y="1" width="240" height="30" fill="#ffff99" stroke="#000000" pointer-events="none"/><rect x="1" y="51" width="30" height="160" fill="#ffff99" stroke="#000000" pointer-events="none"/><rect x="51" y="1" width="240" height="30" fill="none" stroke="none" pointer-events="none"/><g fill="#000000" font-family="Arial" font-weight="bold" text-anchor="middle" font-size="12px"><text x="171" y="20">Klasa przewidywana</text></g><rect x="-63" y="117" width="163" height="28" fill="none" stroke="none" transform="rotate(-90,19,131)" pointer-events="none"/><g fill="#000000" font-family="Arial" font-weight="bold" text-anchor="middle" font-size="14px" transform="rotate(-90,19,131)"><text x="19" y="136">Klasa rzeczywista</text></g></g></svg>