<svg xmlns="http://www.w3.org/2000/svg" xmlns:xlink="http://www.w3.org/1999/xlink" width="552px" height="223px" version="1.1"><defs/><g transform="translate(0.5,0.5)"><rect x="39" y="61" width="120" height="120" fill="#ffffff" stroke="#000000" pointer-events="none"/><rect x="39" y="61" width="40" height="40" fill="#ffffff" stroke="#000000" pointer-events="none"/><rect x="79" y="61" width="40" height="40" fill="#ffffff" stroke="#000000" pointer-events="none"/><rect x="119" y="61" width="40" height="40" fill="#ffffff" stroke="#000000" pointer-events="none"/><rect x="39" y="101" width="40" height="40" fill="#ffffff" stroke="#000000" pointer-events="none"/><rect x="79" y="101" width="40" height="40" fill="#ffffff" stroke="#000000" pointer-events="none"/><rect x="119" y="101" width="40" height="40" fill="#ffffff" stroke="#000000" pointer-events="none"/><rect x="39" y="141" width="40" height="40" fill="#ffffff" stroke="#000000" pointer-events="none"/><rect x="79" y="141" width="40" height="40" fill="#ffffff" stroke="#000000" pointer-events="none"/><rect x="119" y="141" width="40" height="40" fill="#ffffff" stroke="#000000" pointer-events="none"/><rect x="39" y="201" width="120" height="20" fill="none" stroke="none" pointer-events="none"/><g fill="#000000" font-family="Helvetica" text-anchor="middle" font-size="12px"><text x="99" y="215">(a)</text></g><path d="M 79 31 L 79 51" fill="none" stroke="#000000" stroke-miterlimit="10" pointer-events="none"/><path d="M 119 31 L 119 51" fill="none" stroke="#000000" stroke-miterlimit="10" pointer-events="none"/><path d="M 59 41 L 73 41" fill="none" stroke="#000000" stroke-miterlimit="10" pointer-events="none"/><path d="M 78 41 L 71 45 L 73 41 L 71 38 Z" fill="#000000" stroke="#000000" stroke-miterlimit="10" pointer-events="none"/><path d="M 139 41 L 125 41" fill="none" stroke="#000000" stroke-miterlimit="10" pointer-events="none"/><path d="M 120 41 L 127 38 L 125 41 L 127 45 Z" fill="#000000" stroke="#000000" stroke-miterlimit="10" pointer-events="none"/><rect x="69" y="1" width="60" height="40" fill="none" stroke="none" pointer-events="none"/><g fill="#000000" font-family="Helvetica" text-anchor="middle" font-size="12px"><text x="99" y="25">Komórka</text></g><rect x="0" y="103" width="38" height="35" fill="none" stroke="none" transform="rotate(-90,19,121)" pointer-events="none"/><g fill="#000000" font-family="Helvetica" text-anchor="middle" font-size="12px" transform="rotate(-90,19,121)"><text x="19" y="125">Blok</text></g><path d="M 9 181 L 29 181" fill="none" stroke="#000000" stroke-miterlimit="10" pointer-events="none"/><path d="M 9 61 L 29 61" fill="none" stroke="#000000" stroke-miterlimit="10" pointer-events="none"/><path d="M 19 102 L 19 67" fill="none" stroke="#000000" stroke-miterlimit="10" pointer-events="none"/><path d="M 19 62 L 23 69 L 19 67 L 16 69 Z" fill="#000000" stroke="#000000" stroke-miterlimit="10" pointer-events="none"/><path d="M 19 140 L 19 175" fill="none" stroke="#000000" stroke-miterlimit="10" pointer-events="none"/><path d="M 19 180 L 16 173 L 19 175 L 23 173 Z" fill="#000000" stroke="#000000" stroke-miterlimit="10" pointer-events="none"/><ellipse cx="299" cy="121" rx="60" ry="60" fill="#ffffff" stroke="#000000" pointer-events="none"/><path d="M 269 121 L 359 121" fill="none" stroke="#000000" stroke-miterlimit="10" pointer-events="none"/><path d="M 299 181 L 299 61" fill="none" stroke="#000000" stroke-miterlimit="10" pointer-events="none"/><ellipse cx="299" cy="121" rx="30" ry="30" fill="#ffffff" stroke="#000000" pointer-events="none"/><path d="M 239 121 L 269 121" fill="none" stroke="#000000" stroke-miterlimit="10" pointer-events="none"/><path d="M 269 31 L 269 51" fill="none" stroke="#000000" stroke-miterlimit="10" pointer-events="none"/><path d="M 329 31 L 329 51" fill="none" stroke="#000000" stroke-miterlimit="10" pointer-events="none"/><path d="M 249 41 L 263 41" fill="none" stroke="#000000" stroke-miterlimit="10" pointer-events="none"/><path d="M 268 41 L 261 45 L 263 41 L 261 38 Z" fill="#000000" stroke="#000000" stroke-miterlimit="10" pointer-events="none"/><path d="M 349 41 L 335 41" fill="none" stroke="#000000" stroke-miterlimit="10" pointer-events="none"/><path d="M 330 41 L 337 38 L 335 41 L 337 45 Z" fill="#000000" stroke="#000000" stroke-miterlimit="10" pointer-events="none"/><rect x="269" y="11" width="60" height="20" fill="none" stroke="none" pointer-events="none"/><g fill="#000000" font-family="Helvetica" text-anchor="middle" font-size="12px"><text x="299" y="25">Komórka</text></g><path d="M 209 181 L 229 181" fill="none" stroke="#000000" stroke-miterlimit="10" pointer-events="none"/><path d="M 209 61 L 229 61" fill="none" stroke="#000000" stroke-miterlimit="10" pointer-events="none"/><path d="M 219 102 L 219 67" fill="none" stroke="#000000" stroke-miterlimit="10" pointer-events="none"/><path d="M 219 62 L 223 69 L 219 67 L 216 69 Z" fill="#000000" stroke="#000000" stroke-miterlimit="10" pointer-events="none"/><path d="M 219 140 L 219 175" fill="none" stroke="#000000" stroke-miterlimit="10" pointer-events="none"/><path d="M 219 180 L 216 173 L 219 175 L 223 173 Z" fill="#000000" stroke="#000000" stroke-miterlimit="10" pointer-events="none"/><rect x="200" y="103" width="38" height="35" fill="none" stroke="none" transform="rotate(-90,219,121)" pointer-events="none"/><g fill="#000000" font-family="Helvetica" text-anchor="middle" font-size="12px" transform="rotate(-90,219,121)"><text x="219" y="125">Blok</text></g><rect x="239" y="201" width="120" height="20" fill="none" stroke="none" pointer-events="none"/><g fill="#000000" font-family="Helvetica" text-anchor="middle" font-size="12px"><text x="299" y="215">(b)</text></g><ellipse cx="489" cy="121" rx="60" ry="60" fill="#ffffff" stroke="#000000" pointer-events="none"/><path d="M 459 121 L 549 121" fill="none" stroke="#000000" stroke-miterlimit="10" pointer-events="none"/><path d="M 489 181 L 489 61" fill="none" stroke="#000000" stroke-miterlimit="10" pointer-events="none"/><ellipse cx="489" cy="121" rx="30" ry="30" fill="#ffffff" stroke="#000000" pointer-events="none"/><path d="M 429 121 L 459 121" fill="none" stroke="#000000" stroke-miterlimit="10" pointer-events="none"/><path d="M 459 31 L 459 51" fill="none" stroke="#000000" stroke-miterlimit="10" pointer-events="none"/><path d="M 519 31 L 519 51" fill="none" stroke="#000000" stroke-miterlimit="10" pointer-events="none"/><path d="M 439 41 L 453 41" fill="none" stroke="#000000" stroke-miterlimit="10" pointer-events="none"/><path d="M 458 41 L 451 45 L 453 41 L 451 38 Z" fill="#000000" stroke="#000000" stroke-miterlimit="10" pointer-events="none"/><path d="M 539 41 L 525 41" fill="none" stroke="#000000" stroke-miterlimit="10" pointer-events="none"/><path d="M 520 41 L 527 38 L 525 41 L 527 45 Z" fill="#000000" stroke="#000000" stroke-miterlimit="10" pointer-events="none"/><rect x="459" y="11" width="60" height="15" fill="none" stroke="none" pointer-events="none"/><g fill="#000000" font-family="Helvetica" text-anchor="middle" font-size="12px"><text x="489" y="23">Komórka</text></g><path d="M 399 181 L 419 181" fill="none" stroke="#000000" stroke-miterlimit="10" pointer-events="none"/><path d="M 399 61 L 419 61" fill="none" stroke="#000000" stroke-miterlimit="10" pointer-events="none"/><path d="M 409 102 L 409 67" fill="none" stroke="#000000" stroke-miterlimit="10" pointer-events="none"/><path d="M 409 62 L 413 69 L 409 67 L 406 69 Z" fill="#000000" stroke="#000000" stroke-miterlimit="10" pointer-events="none"/><path d="M 409 140 L 409 175" fill="none" stroke="#000000" stroke-miterlimit="10" pointer-events="none"/><path d="M 409 180 L 406 173 L 409 175 L 413 173 Z" fill="#000000" stroke="#000000" stroke-miterlimit="10" pointer-events="none"/><rect x="390" y="103" width="38" height="35" fill="none" stroke="none" transform="rotate(-90,409,121)" pointer-events="none"/><g fill="#000000" font-family="Helvetica" text-anchor="middle" font-size="12px" transform="rotate(-90,409,121)"><text x="409" y="125">Blok</text></g><rect x="429" y="201" width="120" height="20" fill="none" stroke="none" pointer-events="none"/><g fill="#000000" font-family="Helvetica" text-anchor="middle" font-size="12px"><text x="489" y="215">(c)</text></g><path d="M 489 91 L 489 151" fill="none" stroke="#ff0080" stroke-miterlimit="10" pointer-events="none"/><path d="M 520 121 L 459 121" fill="none" stroke="#ff0080" stroke-miterlimit="10" pointer-events="none"/><path d="M 459 121 L 519 121" fill="none" stroke="#000000" stroke-miterlimit="10" pointer-events="none"/><path d="M 489 181 L 489 61" fill="none" stroke="#000000" stroke-miterlimit="10" pointer-events="none"/></g></svg>