<svg xmlns="http://www.w3.org/2000/svg" xmlns:xlink="http://www.w3.org/1999/xlink" width="524px" height="166px" version="1.1"><defs><linearGradient x1="0%" y1="0%" x2="0%" y2="100%" id="mx-gradient-ffffff-1-ffe599-1-s-0"><stop offset="0%" style="stop-color:#ffffff"/><stop offset="100%" style="stop-color:#FFE599"/></linearGradient></defs><g transform="translate(0.5,0.5)"><rect x="1" y="28" width="120" height="120" fill="#ffffff" stroke="#000000" pointer-events="none"/><rect x="1" y="28" width="40" height="40" fill="#ffffff" stroke="#000000" pointer-events="none"/><rect x="41" y="28" width="40" height="40" fill="#ffffff" stroke="#000000" pointer-events="none"/><rect x="81" y="28" width="40" height="40" fill="#ffffff" stroke="#000000" pointer-events="none"/><rect x="1" y="68" width="40" height="40" fill="#ffffff" stroke="#000000" pointer-events="none"/><rect x="41" y="68" width="40" height="40" fill="#ffffff" stroke="#000000" pointer-events="none"/><rect x="81" y="68" width="40" height="40" fill="#ffffff" stroke="#000000" pointer-events="none"/><rect x="1" y="108" width="40" height="40" fill="#ffffff" stroke="#000000" pointer-events="none"/><rect x="41" y="108" width="40" height="40" fill="#ffffff" stroke="#000000" pointer-events="none"/><rect x="81" y="108" width="40" height="40" fill="#ffffff" stroke="#000000" pointer-events="none"/><rect x="251" y="28" width="120" height="120" fill="#ffffff" stroke="#000000" pointer-events="none"/><rect x="251" y="28" width="40" height="40" fill="#ffffff" stroke="#000000" pointer-events="none"/><rect x="291" y="28" width="40" height="40" fill="#ffffff" stroke="#000000" pointer-events="none"/><rect x="331" y="28" width="40" height="40" fill="#ffffff" stroke="#000000" pointer-events="none"/><rect x="251" y="68" width="40" height="40" fill="#ffffff" stroke="#000000" pointer-events="none"/><rect x="291" y="68" width="40" height="40" fill="#ffffff" stroke="#000000" pointer-events="none"/><rect x="331" y="68" width="40" height="40" fill="#ffffff" stroke="#000000" pointer-events="none"/><rect x="251" y="108" width="40" height="40" fill="#ffffff" stroke="#000000" pointer-events="none"/><rect x="291" y="108" width="40" height="40" fill="#ffffff" stroke="#000000" pointer-events="none"/><rect x="331" y="108" width="40" height="40" fill="#ffffff" stroke="#000000" pointer-events="none"/><path d="M 141 93 L 141 83 L 201 83 L 201 73 L 231 88 L 201 103 L 201 93 Z" fill="url(#mx-gradient-ffffff-1-ffe599-1-s-0)" stroke="#000000" stroke-miterlimit="10" pointer-events="none"/><path d="M 281 18 Q 371 8 381 28 Q 391 48 382 112" fill="none" stroke="#000000" stroke-miterlimit="10" pointer-events="none"/><path d="M 381 117 L 379 109 L 382 112 L 386 110 Z" fill="#000000" stroke="#000000" stroke-miterlimit="10" pointer-events="none"/><rect x="411" y="28" width="110" height="20" fill="none" stroke="none" pointer-events="none"/><g fill="#000000" font-family="Helvetica" font-weight="bold" font-size="12px"><text x="413" y="42">Binarnie: 00111001</text></g><rect x="411" y="58" width="110" height="20" fill="none" stroke="none" pointer-events="none"/><g fill="#000000" font-family="Helvetica" font-weight="bold" font-size="12px"><text x="413" y="72">Dziesiętnie: 57</text></g><rect x="1" y="28" width="40" height="40" fill="none" stroke="none" pointer-events="none"/><g fill="#000000" font-family="Helvetica" text-anchor="middle" font-size="12px"><text x="21" y="52">83</text></g><rect x="41" y="28" width="40" height="40" fill="none" stroke="none" pointer-events="none"/><g fill="#000000" font-family="Helvetica" text-anchor="middle" font-size="12px"><text x="61" y="52">75</text></g><rect x="81" y="28" width="40" height="40" fill="none" stroke="none" pointer-events="none"/><g fill="#000000" font-family="Helvetica" text-anchor="middle" font-size="12px"><text x="101" y="52">126</text></g><rect x="1" y="68" width="40" height="40" fill="none" stroke="none" pointer-events="none"/><g fill="#000000" font-family="Helvetica" text-anchor="middle" font-size="12px"><text x="21" y="92">99</text></g><rect x="41" y="68" width="40" height="40" fill="none" stroke="none" pointer-events="none"/><g fill="#000000" font-family="Helvetica" text-anchor="middle" font-size="12px"><text x="61" y="92">95</text></g><rect x="81" y="68" width="40" height="40" fill="none" stroke="none" pointer-events="none"/><g fill="#000000" font-family="Helvetica" text-anchor="middle" font-size="12px"><text x="101" y="92">141</text></g><rect x="1" y="108" width="40" height="40" fill="none" stroke="none" pointer-events="none"/><g fill="#000000" font-family="Helvetica" text-anchor="middle" font-size="12px"><text x="21" y="132">91</text></g><rect x="41" y="108" width="40" height="40" fill="none" stroke="none" pointer-events="none"/><g fill="#000000" font-family="Helvetica" text-anchor="middle" font-size="12px"><text x="61" y="132">91</text></g><rect x="81" y="108" width="40" height="40" fill="none" stroke="none" pointer-events="none"/><g fill="#000000" font-family="Helvetica" text-anchor="middle" font-size="12px"><text x="101" y="132">100</text></g><rect x="251" y="28" width="40" height="40" fill="none" stroke="none" pointer-events="none"/><g fill="#000000" font-family="Helvetica" text-anchor="middle" font-size="12px"><text x="271" y="52">0</text></g><rect x="291" y="28" width="40" height="40" fill="none" stroke="none" pointer-events="none"/><g fill="#000000" font-family="Helvetica" text-anchor="middle" font-size="12px"><text x="311" y="52">0</text></g><rect x="251" y="108" width="40" height="40" fill="none" stroke="none" pointer-events="none"/><g fill="#000000" font-family="Helvetica" text-anchor="middle" font-size="12px"><text x="271" y="132">0</text></g><rect x="291" y="108" width="40" height="40" fill="none" stroke="none" pointer-events="none"/><g fill="#000000" font-family="Helvetica" text-anchor="middle" font-size="12px"><text x="311" y="132">0</text></g><rect x="331" y="28" width="40" height="40" fill="none" stroke="none" pointer-events="none"/><g fill="#000000" font-family="Helvetica" text-anchor="middle" font-size="12px"><text x="351" y="52">1</text></g><rect x="331" y="68" width="40" height="40" fill="none" stroke="none" pointer-events="none"/><g fill="#000000" font-family="Helvetica" text-anchor="middle" font-size="12px"><text x="351" y="92">1</text></g><rect x="331" y="108" width="40" height="40" fill="none" stroke="none" pointer-events="none"/><g fill="#000000" font-family="Helvetica" text-anchor="middle" font-size="12px"><text x="351" y="132">1</text></g><rect x="251" y="68" width="40" height="40" fill="none" stroke="none" pointer-events="none"/><g fill="#000000" font-family="Helvetica" text-anchor="middle" font-size="12px"><text x="271" y="92">1</text></g></g></svg>