<?xml version="1.0" encoding="UTF-8" standalone="no"?>
<!-- Created with Inkscape (http://www.inkscape.org/) -->

<svg
   xmlns:dc="http://purl.org/dc/elements/1.1/"
   xmlns:cc="http://creativecommons.org/ns#"
   xmlns:rdf="http://www.w3.org/1999/02/22-rdf-syntax-ns#"
   xmlns:svg="http://www.w3.org/2000/svg"
   xmlns="http://www.w3.org/2000/svg"
   xmlns:sodipodi="http://sodipodi.sourceforge.net/DTD/sodipodi-0.dtd"
   xmlns:inkscape="http://www.inkscape.org/namespaces/inkscape"
   width="70.866142"
   height="70.866142"
   id="svg3773"
   version="1.1"
   inkscape:version="0.48.5 r10040"
   sodipodi:docname="Nowy dokument 4">
  <defs
     id="defs3" />
  <sodipodi:namedview
     inkscape:document-units="mm"
     id="base"
     pagecolor="#ffffff"
     bordercolor="#666666"
     borderopacity="1.0"
     inkscape:pageopacity="0.0"
     inkscape:pageshadow="2"
     inkscape:zoom="5.6568542"
     inkscape:cx="70.779526"
     inkscape:cy="50.469519"
     inkscape:current-layer="layer1"
     showgrid="false"
     units="mm"
     inkscape:window-width="1920"
     inkscape:window-height="1018"
     inkscape:window-x="-8"
     inkscape:window-y="-8"
     inkscape:window-maximized="1" />
  <metadata
     id="metadata4">
    <rdf:RDF>
      <cc:Work
         rdf:about="">
        <dc:format>image/svg+xml</dc:format>
        <dc:type
           rdf:resource="http://purl.org/dc/dcmitype/StillImage" />
        <dc:title></dc:title>
      </cc:Work>
    </rdf:RDF>
  </metadata>
  <g
     inkscape:label="Layer 1"
     inkscape:groupmode="layer"
     id="layer1"
     transform="translate(0,-981.49605)">
    <g
       id="g4022"
       transform="translate(-314.53033,484.53033)">
      <path
         d="m 315.33769,511.57881 13.83462,0 0,-14.29575 -13.83462,0 0,14.29575 z"
         style="fill:#ffffff;fill-opacity:1;fill-rule:nonzero;stroke:none"
         id="path3077"
         inkscape:connector-curvature="0" />
      <path
         d="m 315.33769,511.57881 13.83462,0 0,-14.29575 -13.83462,0 0,14.29575 z"
         style="fill:none;stroke:#000000;stroke-width:0.40651625;stroke-linecap:butt;stroke-linejoin:miter;stroke-miterlimit:10;stroke-opacity:1;stroke-dasharray:none"
         id="path3079"
         inkscape:connector-curvature="0" />
      <path
         d="m 315.33769,511.57881 13.83462,0 0,-14.29575 -13.83462,0 0,14.29575 z"
         style="fill:none;stroke:#000000;stroke-width:0.04065162;stroke-linecap:butt;stroke-linejoin:miter;stroke-miterlimit:10;stroke-opacity:1;stroke-dasharray:none"
         id="path3081"
         inkscape:connector-curvature="0" />
      <path
         d="m 329.19269,511.54506 13.83462,0 0,-14.29575 -13.83462,0 0,14.29575 z"
         style="fill:#ffffff;fill-opacity:1;fill-rule:nonzero;stroke:none"
         id="path3083"
         inkscape:connector-curvature="0" />
      <path
         d="m 329.19269,511.54506 13.83462,0 0,-14.29575 -13.83462,0 0,14.29575 z"
         style="fill:none;stroke:#000000;stroke-width:0.40651625;stroke-linecap:butt;stroke-linejoin:miter;stroke-miterlimit:10;stroke-opacity:1;stroke-dasharray:none"
         id="path3085"
         inkscape:connector-curvature="0" />
      <path
         d="m 329.19269,511.54506 13.83462,0 0,-14.29575 -13.83462,0 0,14.29575 z"
         style="fill:none;stroke:#000000;stroke-width:0.04065162;stroke-linecap:butt;stroke-linejoin:miter;stroke-miterlimit:10;stroke-opacity:1;stroke-dasharray:none"
         id="path3087"
         inkscape:connector-curvature="0" />
      <path
         d="m 343.08269,511.54506 13.83462,0 0,-14.29575 -13.83462,0 0,14.29575 z"
         style="fill:#ffffff;fill-opacity:1;fill-rule:nonzero;stroke:none"
         id="path3089"
         inkscape:connector-curvature="0" />
      <path
         d="m 343.08269,511.54506 13.83462,0 0,-14.29575 -13.83462,0 0,14.29575 z"
         style="fill:none;stroke:#000000;stroke-width:0.40651625;stroke-linecap:butt;stroke-linejoin:miter;stroke-miterlimit:10;stroke-opacity:1;stroke-dasharray:none"
         id="path3091"
         inkscape:connector-curvature="0" />
      <path
         d="m 343.08269,511.54506 13.83462,0 0,-14.29575 -13.83462,0 0,14.29575 z"
         style="fill:none;stroke:#000000;stroke-width:0.04065162;stroke-linecap:butt;stroke-linejoin:miter;stroke-miterlimit:10;stroke-opacity:1;stroke-dasharray:none"
         id="path3093"
         inkscape:connector-curvature="0" />
      <path
         d="m 356.97144,511.54506 13.83462,0 0,-14.29575 -13.83462,0 0,14.29575 z"
         style="fill:#ffffff;fill-opacity:1;fill-rule:nonzero;stroke:none"
         id="path3095"
         inkscape:connector-curvature="0" />
      <path
         d="m 356.97144,511.54506 13.83462,0 0,-14.29575 -13.83462,0 0,14.29575 z"
         style="fill:none;stroke:#000000;stroke-width:0.40651625;stroke-linecap:butt;stroke-linejoin:miter;stroke-miterlimit:10;stroke-opacity:1;stroke-dasharray:none"
         id="path3097"
         inkscape:connector-curvature="0" />
      <path
         d="m 356.97144,511.54506 13.83462,0 0,-14.29575 -13.83462,0 0,14.29575 z"
         style="fill:none;stroke:#000000;stroke-width:0.04065162;stroke-linecap:butt;stroke-linejoin:miter;stroke-miterlimit:10;stroke-opacity:1;stroke-dasharray:none"
         id="path3099"
         inkscape:connector-curvature="0" />
      <path
         d="m 370.86144,511.54506 13.83462,0 0,-14.29575 -13.83462,0 0,14.29575 z"
         style="fill:#ffffff;fill-opacity:1;fill-rule:nonzero;stroke:none"
         id="path3101"
         inkscape:connector-curvature="0" />
      <path
         d="m 370.86144,511.54506 13.83462,0 0,-14.29575 -13.83462,0 0,14.29575 z"
         style="fill:none;stroke:#000000;stroke-width:0.40651625;stroke-linecap:butt;stroke-linejoin:miter;stroke-miterlimit:10;stroke-opacity:1;stroke-dasharray:none"
         id="path3103"
         inkscape:connector-curvature="0" />
      <path
         d="m 370.86144,511.54506 13.83462,0 0,-14.29575 -13.83462,0 0,14.29575 z"
         style="fill:none;stroke:#000000;stroke-width:0.04065162;stroke-linecap:butt;stroke-linejoin:miter;stroke-miterlimit:10;stroke-opacity:1;stroke-dasharray:none"
         id="path3105"
         inkscape:connector-curvature="0" />
      <path
         d="m 315.30394,525.80756 13.83462,0 0,-14.29588 -13.83462,0 0,14.29588 z"
         style="fill:#ffffff;fill-opacity:1;fill-rule:nonzero;stroke:none"
         id="path3107"
         inkscape:connector-curvature="0" />
      <path
         d="m 315.30394,525.80756 13.83462,0 0,-14.29588 -13.83462,0 0,14.29588 z"
         style="fill:none;stroke:#000000;stroke-width:0.40651625;stroke-linecap:butt;stroke-linejoin:miter;stroke-miterlimit:10;stroke-opacity:1;stroke-dasharray:none"
         id="path3109"
         inkscape:connector-curvature="0" />
      <path
         d="m 315.30394,525.80756 13.83462,0 0,-14.29588 -13.83462,0 0,14.29588 z"
         style="fill:none;stroke:#000000;stroke-width:0.04065162;stroke-linecap:butt;stroke-linejoin:miter;stroke-miterlimit:10;stroke-opacity:1;stroke-dasharray:none"
         id="path3111"
         inkscape:connector-curvature="0" />
      <path
         d="m 329.15894,525.77381 13.83462,0 0,-14.29588 -13.83462,0 0,14.29588 z"
         style="fill:#ffffff;fill-opacity:1;fill-rule:nonzero;stroke:none"
         id="path3113"
         inkscape:connector-curvature="0" />
      <path
         d="m 329.15894,525.77381 13.83462,0 0,-14.29588 -13.83462,0 0,14.29588 z"
         style="fill:none;stroke:#000000;stroke-width:0.40651625;stroke-linecap:butt;stroke-linejoin:miter;stroke-miterlimit:10;stroke-opacity:1;stroke-dasharray:none"
         id="path3115"
         inkscape:connector-curvature="0" />
      <path
         d="m 329.15894,525.77381 13.83462,0 0,-14.29588 -13.83462,0 0,14.29588 z"
         style="fill:none;stroke:#000000;stroke-width:0.04065162;stroke-linecap:butt;stroke-linejoin:miter;stroke-miterlimit:10;stroke-opacity:1;stroke-dasharray:none"
         id="path3117"
         inkscape:connector-curvature="0" />
      <path
         d="m 343.04894,525.77381 13.83462,0 0,-14.29588 -13.83462,0 0,14.29588 z"
         style="fill:#ffffff;fill-opacity:1;fill-rule:nonzero;stroke:none"
         id="path3119"
         inkscape:connector-curvature="0" />
      <path
         d="m 343.04894,525.77381 13.83462,0 0,-14.29588 -13.83462,0 0,14.29588 z"
         style="fill:none;stroke:#000000;stroke-width:0.40651625;stroke-linecap:butt;stroke-linejoin:miter;stroke-miterlimit:10;stroke-opacity:1;stroke-dasharray:none"
         id="path3121"
         inkscape:connector-curvature="0" />
      <path
         d="m 343.04894,525.77381 13.83462,0 0,-14.29588 -13.83462,0 0,14.29588 z"
         style="fill:none;stroke:#000000;stroke-width:0.04065162;stroke-linecap:butt;stroke-linejoin:miter;stroke-miterlimit:10;stroke-opacity:1;stroke-dasharray:none"
         id="path3123"
         inkscape:connector-curvature="0" />
      <path
         d="m 356.93769,525.77381 13.83462,0 0,-14.29588 -13.83462,0 0,14.29588 z"
         style="fill:#ffffff;fill-opacity:1;fill-rule:nonzero;stroke:none"
         id="path3125"
         inkscape:connector-curvature="0" />
      <path
         d="m 356.93769,525.77381 13.83462,0 0,-14.29588 -13.83462,0 0,14.29588 z"
         style="fill:none;stroke:#000000;stroke-width:0.40651625;stroke-linecap:butt;stroke-linejoin:miter;stroke-miterlimit:10;stroke-opacity:1;stroke-dasharray:none"
         id="path3127"
         inkscape:connector-curvature="0" />
      <path
         d="m 356.93769,525.77381 13.83462,0 0,-14.29588 -13.83462,0 0,14.29588 z"
         style="fill:none;stroke:#000000;stroke-width:0.04065162;stroke-linecap:butt;stroke-linejoin:miter;stroke-miterlimit:10;stroke-opacity:1;stroke-dasharray:none"
         id="path3129"
         inkscape:connector-curvature="0" />
      <path
         d="m 370.82769,525.77381 13.83462,0 0,-14.29588 -13.83462,0 0,14.29588 z"
         style="fill:#ffffff;fill-opacity:1;fill-rule:nonzero;stroke:none"
         id="path3131"
         inkscape:connector-curvature="0" />
      <path
         d="m 370.82769,525.77381 13.83462,0 0,-14.29588 -13.83462,0 0,14.29588 z"
         style="fill:none;stroke:#000000;stroke-width:0.40651625;stroke-linecap:butt;stroke-linejoin:miter;stroke-miterlimit:10;stroke-opacity:1;stroke-dasharray:none"
         id="path3133"
         inkscape:connector-curvature="0" />
      <path
         d="m 370.82769,525.77381 13.83462,0 0,-14.29588 -13.83462,0 0,14.29588 z"
         style="fill:none;stroke:#000000;stroke-width:0.04065162;stroke-linecap:butt;stroke-linejoin:miter;stroke-miterlimit:10;stroke-opacity:1;stroke-dasharray:none"
         id="path3135"
         inkscape:connector-curvature="0" />
      <path
         d="m 315.33769,539.35756 13.83462,0 0,-14.29588 -13.83462,0 0,14.29588 z"
         style="fill:#ffffff;fill-opacity:1;fill-rule:nonzero;stroke:none"
         id="path3137"
         inkscape:connector-curvature="0" />
      <path
         d="m 315.33769,539.35756 13.83462,0 0,-14.29588 -13.83462,0 0,14.29588 z"
         style="fill:none;stroke:#000000;stroke-width:0.40651625;stroke-linecap:butt;stroke-linejoin:miter;stroke-miterlimit:10;stroke-opacity:1;stroke-dasharray:none"
         id="path3139"
         inkscape:connector-curvature="0" />
      <path
         d="m 315.33769,539.35756 13.83462,0 0,-14.29588 -13.83462,0 0,14.29588 z"
         style="fill:none;stroke:#000000;stroke-width:0.04065162;stroke-linecap:butt;stroke-linejoin:miter;stroke-miterlimit:10;stroke-opacity:1;stroke-dasharray:none"
         id="path3141"
         inkscape:connector-curvature="0" />
      <path
         d="m 329.19269,539.32381 13.83462,0 0,-14.29588 -13.83462,0 0,14.29588 z"
         style="fill:#ffffff;fill-opacity:1;fill-rule:nonzero;stroke:none"
         id="path3143"
         inkscape:connector-curvature="0" />
      <path
         d="m 329.19269,539.32381 13.83462,0 0,-14.29588 -13.83462,0 0,14.29588 z"
         style="fill:none;stroke:#000000;stroke-width:0.40651625;stroke-linecap:butt;stroke-linejoin:miter;stroke-miterlimit:10;stroke-opacity:1;stroke-dasharray:none"
         id="path3145"
         inkscape:connector-curvature="0" />
      <path
         d="m 329.19269,539.32381 13.83462,0 0,-14.29588 -13.83462,0 0,14.29588 z"
         style="fill:none;stroke:#000000;stroke-width:0.04065162;stroke-linecap:butt;stroke-linejoin:miter;stroke-miterlimit:10;stroke-opacity:1;stroke-dasharray:none"
         id="path3147"
         inkscape:connector-curvature="0" />
      <path
         d="m 343.08269,539.32381 13.83462,0 0,-14.29588 -13.83462,0 0,14.29588 z"
         style="fill:#ffffff;fill-opacity:1;fill-rule:nonzero;stroke:none"
         id="path3149"
         inkscape:connector-curvature="0" />
      <path
         d="m 343.08269,539.32381 13.83462,0 0,-14.29588 -13.83462,0 0,14.29588 z"
         style="fill:none;stroke:#000000;stroke-width:0.40651625;stroke-linecap:butt;stroke-linejoin:miter;stroke-miterlimit:10;stroke-opacity:1;stroke-dasharray:none"
         id="path3151"
         inkscape:connector-curvature="0" />
      <path
         d="m 343.08269,539.32381 13.83462,0 0,-14.29588 -13.83462,0 0,14.29588 z"
         style="fill:none;stroke:#000000;stroke-width:0.04065162;stroke-linecap:butt;stroke-linejoin:miter;stroke-miterlimit:10;stroke-opacity:1;stroke-dasharray:none"
         id="path3153"
         inkscape:connector-curvature="0" />
      <path
         d="m 356.97144,539.32381 13.83462,0 0,-14.29588 -13.83462,0 0,14.29588 z"
         style="fill:#ffffff;fill-opacity:1;fill-rule:nonzero;stroke:none"
         id="path3155"
         inkscape:connector-curvature="0" />
      <path
         d="m 356.97144,539.32381 13.83462,0 0,-14.29588 -13.83462,0 0,14.29588 z"
         style="fill:none;stroke:#000000;stroke-width:0.40651625;stroke-linecap:butt;stroke-linejoin:miter;stroke-miterlimit:10;stroke-opacity:1;stroke-dasharray:none"
         id="path3157"
         inkscape:connector-curvature="0" />
      <path
         d="m 356.97144,539.32381 13.83462,0 0,-14.29588 -13.83462,0 0,14.29588 z"
         style="fill:none;stroke:#000000;stroke-width:0.04065162;stroke-linecap:butt;stroke-linejoin:miter;stroke-miterlimit:10;stroke-opacity:1;stroke-dasharray:none"
         id="path3159"
         inkscape:connector-curvature="0" />
      <path
         d="m 370.86144,539.32381 13.83462,0 0,-14.29588 -13.83462,0 0,14.29588 z"
         style="fill:#ffffff;fill-opacity:1;fill-rule:nonzero;stroke:none"
         id="path3161"
         inkscape:connector-curvature="0" />
      <path
         d="m 370.86144,539.32381 13.83462,0 0,-14.29588 -13.83462,0 0,14.29588 z"
         style="fill:none;stroke:#000000;stroke-width:0.40651625;stroke-linecap:butt;stroke-linejoin:miter;stroke-miterlimit:10;stroke-opacity:1;stroke-dasharray:none"
         id="path3163"
         inkscape:connector-curvature="0" />
      <path
         d="m 370.86144,539.32381 13.83462,0 0,-14.29588 -13.83462,0 0,14.29588 z"
         style="fill:none;stroke:#000000;stroke-width:0.04065162;stroke-linecap:butt;stroke-linejoin:miter;stroke-miterlimit:10;stroke-opacity:1;stroke-dasharray:none"
         id="path3165"
         inkscape:connector-curvature="0" />
      <path
         d="m 315.30394,553.58631 13.83462,0 0,-14.29575 -13.83462,0 0,14.29575 z"
         style="fill:#ffffff;fill-opacity:1;fill-rule:nonzero;stroke:none"
         id="path3167"
         inkscape:connector-curvature="0" />
      <path
         d="m 315.30394,553.58631 13.83462,0 0,-14.29575 -13.83462,0 0,14.29575 z"
         style="fill:none;stroke:#000000;stroke-width:0.40651625;stroke-linecap:butt;stroke-linejoin:miter;stroke-miterlimit:10;stroke-opacity:1;stroke-dasharray:none"
         id="path3169"
         inkscape:connector-curvature="0" />
      <path
         d="m 315.30394,553.58631 13.83462,0 0,-14.29575 -13.83462,0 0,14.29575 z"
         style="fill:none;stroke:#000000;stroke-width:0.04065162;stroke-linecap:butt;stroke-linejoin:miter;stroke-miterlimit:10;stroke-opacity:1;stroke-dasharray:none"
         id="path3171"
         inkscape:connector-curvature="0" />
      <path
         d="m 329.15894,553.55131 13.83462,0 0,-14.29588 -13.83462,0 0,14.29588 z"
         style="fill:#ffffff;fill-opacity:1;fill-rule:nonzero;stroke:none"
         id="path3173"
         inkscape:connector-curvature="0" />
      <path
         d="m 329.15894,553.55131 13.83462,0 0,-14.29588 -13.83462,0 0,14.29588 z"
         style="fill:none;stroke:#000000;stroke-width:0.40651625;stroke-linecap:butt;stroke-linejoin:miter;stroke-miterlimit:10;stroke-opacity:1;stroke-dasharray:none"
         id="path3175"
         inkscape:connector-curvature="0" />
      <path
         d="m 329.15894,553.55131 13.83462,0 0,-14.29588 -13.83462,0 0,14.29588 z"
         style="fill:none;stroke:#000000;stroke-width:0.04065162;stroke-linecap:butt;stroke-linejoin:miter;stroke-miterlimit:10;stroke-opacity:1;stroke-dasharray:none"
         id="path3177"
         inkscape:connector-curvature="0" />
      <path
         d="m 343.04894,553.55131 13.83462,0 0,-14.29588 -13.83462,0 0,14.29588 z"
         style="fill:#ffffff;fill-opacity:1;fill-rule:nonzero;stroke:none"
         id="path3179"
         inkscape:connector-curvature="0" />
      <path
         d="m 343.04894,553.55131 13.83462,0 0,-14.29588 -13.83462,0 0,14.29588 z"
         style="fill:none;stroke:#000000;stroke-width:0.40651625;stroke-linecap:butt;stroke-linejoin:miter;stroke-miterlimit:10;stroke-opacity:1;stroke-dasharray:none"
         id="path3181"
         inkscape:connector-curvature="0" />
      <path
         d="m 343.04894,553.55131 13.83462,0 0,-14.29588 -13.83462,0 0,14.29588 z"
         style="fill:none;stroke:#000000;stroke-width:0.04065162;stroke-linecap:butt;stroke-linejoin:miter;stroke-miterlimit:10;stroke-opacity:1;stroke-dasharray:none"
         id="path3183"
         inkscape:connector-curvature="0" />
      <path
         d="m 356.93769,553.55131 13.83462,0 0,-14.29588 -13.83462,0 0,14.29588 z"
         style="fill:#ffffff;fill-opacity:1;fill-rule:nonzero;stroke:none"
         id="path3185"
         inkscape:connector-curvature="0" />
      <path
         d="m 356.93769,553.55131 13.83462,0 0,-14.29588 -13.83462,0 0,14.29588 z"
         style="fill:none;stroke:#000000;stroke-width:0.40651625;stroke-linecap:butt;stroke-linejoin:miter;stroke-miterlimit:10;stroke-opacity:1;stroke-dasharray:none"
         id="path3187"
         inkscape:connector-curvature="0" />
      <path
         d="m 356.93769,553.55131 13.83462,0 0,-14.29588 -13.83462,0 0,14.29588 z"
         style="fill:none;stroke:#000000;stroke-width:0.04065162;stroke-linecap:butt;stroke-linejoin:miter;stroke-miterlimit:10;stroke-opacity:1;stroke-dasharray:none"
         id="path3189"
         inkscape:connector-curvature="0" />
      <path
         d="m 370.82769,553.55131 13.83462,0 0,-14.29588 -13.83462,0 0,14.29588 z"
         style="fill:#ffffff;fill-opacity:1;fill-rule:nonzero;stroke:none"
         id="path3191"
         inkscape:connector-curvature="0" />
      <path
         d="m 370.82769,553.55131 13.83462,0 0,-14.29588 -13.83462,0 0,14.29588 z"
         style="fill:none;stroke:#000000;stroke-width:0.40651625;stroke-linecap:butt;stroke-linejoin:miter;stroke-miterlimit:10;stroke-opacity:1;stroke-dasharray:none"
         id="path3193"
         inkscape:connector-curvature="0" />
      <path
         d="m 370.82769,553.55131 13.83462,0 0,-14.29588 -13.83462,0 0,14.29588 z"
         style="fill:none;stroke:#000000;stroke-width:0.04065162;stroke-linecap:butt;stroke-linejoin:miter;stroke-miterlimit:10;stroke-opacity:1;stroke-dasharray:none"
         id="path3195"
         inkscape:connector-curvature="0" />
      <path
         d="m 315.33769,553.24756 13.83462,0 0,-14.29575 -13.83462,0 0,14.29575 z"
         style="fill:#ffffff;fill-opacity:1;fill-rule:nonzero;stroke:none"
         id="path3197"
         inkscape:connector-curvature="0" />
      <path
         d="m 315.33769,553.24756 13.83462,0 0,-14.29575 -13.83462,0 0,14.29575 z"
         style="fill:none;stroke:#000000;stroke-width:0.40651625;stroke-linecap:butt;stroke-linejoin:miter;stroke-miterlimit:10;stroke-opacity:1;stroke-dasharray:none"
         id="path3199"
         inkscape:connector-curvature="0" />
      <path
         d="m 315.33769,553.24756 13.83462,0 0,-14.29575 -13.83462,0 0,14.29575 z"
         style="fill:none;stroke:#000000;stroke-width:0.04065162;stroke-linecap:butt;stroke-linejoin:miter;stroke-miterlimit:10;stroke-opacity:1;stroke-dasharray:none"
         id="path3201"
         inkscape:connector-curvature="0" />
      <path
         d="m 329.19269,553.21256 13.83462,0 0,-14.29575 -13.83462,0 0,14.29575 z"
         style="fill:#ffffff;fill-opacity:1;fill-rule:nonzero;stroke:none"
         id="path3203"
         inkscape:connector-curvature="0" />
      <path
         d="m 329.19269,553.21256 13.83462,0 0,-14.29575 -13.83462,0 0,14.29575 z"
         style="fill:none;stroke:#000000;stroke-width:0.40651625;stroke-linecap:butt;stroke-linejoin:miter;stroke-miterlimit:10;stroke-opacity:1;stroke-dasharray:none"
         id="path3205"
         inkscape:connector-curvature="0" />
      <path
         d="m 329.19269,553.21256 13.83462,0 0,-14.29575 -13.83462,0 0,14.29575 z"
         style="fill:none;stroke:#000000;stroke-width:0.04065162;stroke-linecap:butt;stroke-linejoin:miter;stroke-miterlimit:10;stroke-opacity:1;stroke-dasharray:none"
         id="path3207"
         inkscape:connector-curvature="0" />
      <path
         d="m 343.08269,553.21256 13.83462,0 0,-14.29575 -13.83462,0 0,14.29575 z"
         style="fill:#ffffff;fill-opacity:1;fill-rule:nonzero;stroke:none"
         id="path3209"
         inkscape:connector-curvature="0" />
      <path
         d="m 343.08269,553.21256 13.83462,0 0,-14.29575 -13.83462,0 0,14.29575 z"
         style="fill:none;stroke:#000000;stroke-width:0.40651625;stroke-linecap:butt;stroke-linejoin:miter;stroke-miterlimit:10;stroke-opacity:1;stroke-dasharray:none"
         id="path3211"
         inkscape:connector-curvature="0" />
      <path
         d="m 343.08269,553.21256 13.83462,0 0,-14.29575 -13.83462,0 0,14.29575 z"
         style="fill:none;stroke:#000000;stroke-width:0.04065162;stroke-linecap:butt;stroke-linejoin:miter;stroke-miterlimit:10;stroke-opacity:1;stroke-dasharray:none"
         id="path3213"
         inkscape:connector-curvature="0" />
      <path
         d="m 356.97144,553.21256 13.83462,0 0,-14.29575 -13.83462,0 0,14.29575 z"
         style="fill:#ffffff;fill-opacity:1;fill-rule:nonzero;stroke:none"
         id="path3215"
         inkscape:connector-curvature="0" />
      <path
         d="m 356.97144,553.21256 13.83462,0 0,-14.29575 -13.83462,0 0,14.29575 z"
         style="fill:none;stroke:#000000;stroke-width:0.40651625;stroke-linecap:butt;stroke-linejoin:miter;stroke-miterlimit:10;stroke-opacity:1;stroke-dasharray:none"
         id="path3217"
         inkscape:connector-curvature="0" />
      <path
         d="m 356.97144,553.21256 13.83462,0 0,-14.29575 -13.83462,0 0,14.29575 z"
         style="fill:none;stroke:#000000;stroke-width:0.04065162;stroke-linecap:butt;stroke-linejoin:miter;stroke-miterlimit:10;stroke-opacity:1;stroke-dasharray:none"
         id="path3219"
         inkscape:connector-curvature="0" />
      <path
         d="m 370.86144,553.21256 13.83462,0 0,-14.29575 -13.83462,0 0,14.29575 z"
         style="fill:#ffffff;fill-opacity:1;fill-rule:nonzero;stroke:none"
         id="path3221"
         inkscape:connector-curvature="0" />
      <path
         d="m 370.86144,553.21256 13.83462,0 0,-14.29575 -13.83462,0 0,14.29575 z"
         style="fill:none;stroke:#000000;stroke-width:0.40651625;stroke-linecap:butt;stroke-linejoin:miter;stroke-miterlimit:10;stroke-opacity:1;stroke-dasharray:none"
         id="path3223"
         inkscape:connector-curvature="0" />
      <path
         d="m 370.86144,553.21256 13.83462,0 0,-14.29575 -13.83462,0 0,14.29575 z"
         style="fill:none;stroke:#000000;stroke-width:0.04065162;stroke-linecap:butt;stroke-linejoin:miter;stroke-miterlimit:10;stroke-opacity:1;stroke-dasharray:none"
         id="path3225"
         inkscape:connector-curvature="0" />
      <path
         d="m 315.30394,567.47506 13.83462,0 0,-14.29588 -13.83462,0 0,14.29588 z"
         style="fill:#ffffff;fill-opacity:1;fill-rule:nonzero;stroke:none"
         id="path3227"
         inkscape:connector-curvature="0" />
      <path
         d="m 315.30394,567.47506 13.83462,0 0,-14.29588 -13.83462,0 0,14.29588 z"
         style="fill:none;stroke:#000000;stroke-width:0.40651625;stroke-linecap:butt;stroke-linejoin:miter;stroke-miterlimit:10;stroke-opacity:1;stroke-dasharray:none"
         id="path3229"
         inkscape:connector-curvature="0" />
      <path
         d="m 315.30394,567.47506 13.83462,0 0,-14.29588 -13.83462,0 0,14.29588 z"
         style="fill:none;stroke:#000000;stroke-width:0.04065162;stroke-linecap:butt;stroke-linejoin:miter;stroke-miterlimit:10;stroke-opacity:1;stroke-dasharray:none"
         id="path3231"
         inkscape:connector-curvature="0" />
      <path
         d="m 329.15894,567.44131 13.83462,0 0,-14.29575 -13.83462,0 0,14.29575 z"
         style="fill:#ffffff;fill-opacity:1;fill-rule:nonzero;stroke:none"
         id="path3233"
         inkscape:connector-curvature="0" />
      <path
         d="m 329.15894,567.44131 13.83462,0 0,-14.29575 -13.83462,0 0,14.29575 z"
         style="fill:none;stroke:#000000;stroke-width:0.40651625;stroke-linecap:butt;stroke-linejoin:miter;stroke-miterlimit:10;stroke-opacity:1;stroke-dasharray:none"
         id="path3235"
         inkscape:connector-curvature="0" />
      <path
         d="m 329.15894,567.44131 13.83462,0 0,-14.29575 -13.83462,0 0,14.29575 z"
         style="fill:none;stroke:#000000;stroke-width:0.04065162;stroke-linecap:butt;stroke-linejoin:miter;stroke-miterlimit:10;stroke-opacity:1;stroke-dasharray:none"
         id="path3237"
         inkscape:connector-curvature="0" />
      <path
         d="m 343.04894,567.44131 13.83462,0 0,-14.29575 -13.83462,0 0,14.29575 z"
         style="fill:#ffffff;fill-opacity:1;fill-rule:nonzero;stroke:none"
         id="path3239"
         inkscape:connector-curvature="0" />
      <path
         d="m 343.04894,567.44131 13.83462,0 0,-14.29575 -13.83462,0 0,14.29575 z"
         style="fill:none;stroke:#000000;stroke-width:0.40651625;stroke-linecap:butt;stroke-linejoin:miter;stroke-miterlimit:10;stroke-opacity:1;stroke-dasharray:none"
         id="path3241"
         inkscape:connector-curvature="0" />
      <path
         d="m 343.04894,567.44131 13.83462,0 0,-14.29575 -13.83462,0 0,14.29575 z"
         style="fill:none;stroke:#000000;stroke-width:0.04065162;stroke-linecap:butt;stroke-linejoin:miter;stroke-miterlimit:10;stroke-opacity:1;stroke-dasharray:none"
         id="path3243"
         inkscape:connector-curvature="0" />
      <path
         d="m 356.93769,567.44131 13.83462,0 0,-14.29575 -13.83462,0 0,14.29575 z"
         style="fill:#ffffff;fill-opacity:1;fill-rule:nonzero;stroke:none"
         id="path3245"
         inkscape:connector-curvature="0" />
      <path
         d="m 356.93769,567.44131 13.83462,0 0,-14.29575 -13.83462,0 0,14.29575 z"
         style="fill:none;stroke:#000000;stroke-width:0.40651625;stroke-linecap:butt;stroke-linejoin:miter;stroke-miterlimit:10;stroke-opacity:1;stroke-dasharray:none"
         id="path3247"
         inkscape:connector-curvature="0" />
      <path
         d="m 356.93769,567.44131 13.83462,0 0,-14.29575 -13.83462,0 0,14.29575 z"
         style="fill:none;stroke:#000000;stroke-width:0.04065162;stroke-linecap:butt;stroke-linejoin:miter;stroke-miterlimit:10;stroke-opacity:1;stroke-dasharray:none"
         id="path3249"
         inkscape:connector-curvature="0" />
      <path
         d="m 370.82769,567.44131 13.83462,0 0,-14.29575 -13.83462,0 0,14.29575 z"
         style="fill:#ffffff;fill-opacity:1;fill-rule:nonzero;stroke:none"
         id="path3251"
         inkscape:connector-curvature="0" />
      <path
         d="m 370.82769,567.44131 13.83462,0 0,-14.29575 -13.83462,0 0,14.29575 z"
         style="fill:none;stroke:#000000;stroke-width:0.40651625;stroke-linecap:butt;stroke-linejoin:miter;stroke-miterlimit:10;stroke-opacity:1;stroke-dasharray:none"
         id="path3253"
         inkscape:connector-curvature="0" />
      <path
         d="m 370.82769,567.44131 13.83462,0 0,-14.29575 -13.83462,0 0,14.29575 z"
         style="fill:none;stroke:#000000;stroke-width:0.04065162;stroke-linecap:butt;stroke-linejoin:miter;stroke-miterlimit:10;stroke-opacity:1;stroke-dasharray:none"
         id="path3255"
         inkscape:connector-curvature="0" />
      <path
         d="m 353.44894,531.92131 c 0,1.91875 -1.555,3.4725 -3.4725,3.4725 -1.9175,0 -3.4725,-1.55375 -3.4725,-3.4725 0,-1.9175 1.555,-3.47125 3.4725,-3.47125 1.9175,0 3.4725,1.55375 3.4725,3.47125"
         style="fill:#ffffff;fill-opacity:1;fill-rule:nonzero;stroke:none"
         id="path3257"
         inkscape:connector-curvature="0" />
      <path
         d="m 353.44894,531.92131 c 0,1.91875 -1.555,3.4725 -3.4725,3.4725 -1.9175,0 -3.4725,-1.55375 -3.4725,-3.4725 0,-1.9175 1.555,-3.47125 3.4725,-3.47125 1.9175,0 3.4725,1.55375 3.4725,3.47125 z"
         style="fill:none;stroke:#000000;stroke-width:0.54202127;stroke-linecap:butt;stroke-linejoin:miter;stroke-miterlimit:10;stroke-opacity:1;stroke-dasharray:none"
         id="path3259"
         inkscape:connector-curvature="0" />
      <path
         d="m 353.44894,531.92131 c 0,1.91875 -1.555,3.4725 -3.4725,3.4725 -1.9175,0 -3.4725,-1.55375 -3.4725,-3.4725 0,-1.9175 1.555,-3.47125 3.4725,-3.47125 1.9175,0 3.4725,1.55375 3.4725,3.47125 z"
         style="fill:none;stroke:#000000;stroke-width:0.05420212;stroke-linecap:butt;stroke-linejoin:miter;stroke-miterlimit:10;stroke-opacity:1;stroke-dasharray:none"
         id="path3261"
         inkscape:connector-curvature="0" />
      <path
         d="m 373.40144,512.95131 c 0,1.9175 -1.55375,3.4725 -3.4725,3.4725 -1.9175,0 -3.47125,-1.555 -3.47125,-3.4725 0,-1.9175 1.55375,-3.4725 3.47125,-3.4725 1.91875,0 3.4725,1.555 3.4725,3.4725"
         style="fill:#1a1a1a;fill-opacity:1;fill-rule:nonzero;stroke:none"
         id="path3263"
         inkscape:connector-curvature="0" />
      <path
         d="m 373.40144,512.95131 c 0,1.9175 -1.55375,3.4725 -3.4725,3.4725 -1.9175,0 -3.47125,-1.555 -3.47125,-3.4725 0,-1.9175 1.55375,-3.4725 3.47125,-3.4725 1.91875,0 3.4725,1.555 3.4725,3.4725 z"
         style="fill:none;stroke:#000000;stroke-width:1.35504997;stroke-linecap:butt;stroke-linejoin:miter;stroke-miterlimit:10;stroke-opacity:1;stroke-dasharray:none"
         id="path3265"
         inkscape:connector-curvature="0" />
      <path
         d="m 373.40144,512.95131 c 0,1.9175 -1.55375,3.4725 -3.4725,3.4725 -1.9175,0 -3.47125,-1.555 -3.47125,-3.4725 0,-1.9175 1.55375,-3.4725 3.47125,-3.4725 1.91875,0 3.4725,1.555 3.4725,3.4725 z"
         style="fill:none;stroke:#000000;stroke-width:0.13550501;stroke-linecap:butt;stroke-linejoin:miter;stroke-miterlimit:10;stroke-opacity:1;stroke-dasharray:none"
         id="path3267"
         inkscape:connector-curvature="0" />
      <path
         d="m 325.46644,531.92131 c 0,1.91875 -1.55375,3.4725 -3.4725,3.4725 -1.9175,0 -3.47125,-1.55375 -3.47125,-3.4725 0,-1.9175 1.55375,-3.47125 3.47125,-3.47125 1.91875,0 3.4725,1.55375 3.4725,3.47125"
         style="fill:#1a1a1a;fill-opacity:1;fill-rule:nonzero;stroke:none"
         id="path3269"
         inkscape:connector-curvature="0" />
      <path
         d="m 325.46644,531.92131 c 0,1.91875 -1.55375,3.4725 -3.4725,3.4725 -1.9175,0 -3.47125,-1.55375 -3.47125,-3.4725 0,-1.9175 1.55375,-3.47125 3.47125,-3.47125 1.91875,0 3.4725,1.55375 3.4725,3.47125 z"
         style="fill:none;stroke:#000000;stroke-width:1.35504997;stroke-linecap:butt;stroke-linejoin:miter;stroke-miterlimit:10;stroke-opacity:1;stroke-dasharray:none"
         id="path3271"
         inkscape:connector-curvature="0" />
      <path
         d="m 325.46644,531.92131 c 0,1.91875 -1.55375,3.4725 -3.4725,3.4725 -1.9175,0 -3.47125,-1.55375 -3.47125,-3.4725 0,-1.9175 1.55375,-3.47125 3.47125,-3.47125 1.91875,0 3.4725,1.55375 3.4725,3.47125 z"
         style="fill:none;stroke:#000000;stroke-width:0.13550501;stroke-linecap:butt;stroke-linejoin:miter;stroke-miterlimit:10;stroke-opacity:1;stroke-dasharray:none"
         id="path3273"
         inkscape:connector-curvature="0" />
      <path
         d="m 381.19394,531.92131 c 0,1.91875 -1.555,3.4725 -3.4725,3.4725 -1.9175,0 -3.4725,-1.55375 -3.4725,-3.4725 0,-1.9175 1.555,-3.47125 3.4725,-3.47125 1.9175,0 3.4725,1.55375 3.4725,3.47125"
         style="fill:#1a1a1a;fill-opacity:1;fill-rule:nonzero;stroke:none"
         id="path3275"
         inkscape:connector-curvature="0" />
      <path
         d="m 381.19394,531.92131 c 0,1.91875 -1.555,3.4725 -3.4725,3.4725 -1.9175,0 -3.4725,-1.55375 -3.4725,-3.4725 0,-1.9175 1.555,-3.47125 3.4725,-3.47125 1.9175,0 3.4725,1.55375 3.4725,3.47125 z"
         style="fill:none;stroke:#000000;stroke-width:1.35504997;stroke-linecap:butt;stroke-linejoin:miter;stroke-miterlimit:10;stroke-opacity:1;stroke-dasharray:none"
         id="path3277"
         inkscape:connector-curvature="0" />
      <path
         d="m 381.19394,531.92131 c 0,1.91875 -1.555,3.4725 -3.4725,3.4725 -1.9175,0 -3.4725,-1.55375 -3.4725,-3.4725 0,-1.9175 1.555,-3.47125 3.4725,-3.47125 1.9175,0 3.4725,1.55375 3.4725,3.47125 z"
         style="fill:none;stroke:#000000;stroke-width:0.13550501;stroke-linecap:butt;stroke-linejoin:miter;stroke-miterlimit:10;stroke-opacity:1;stroke-dasharray:none"
         id="path3279"
         inkscape:connector-curvature="0" />
      <path
         d="m 353.38144,504.70256 c 0,1.9175 -1.555,3.4725 -3.4725,3.4725 -1.9175,0 -3.4725,-1.555 -3.4725,-3.4725 0,-1.9175 1.555,-3.4725 3.4725,-3.4725 1.9175,0 3.4725,1.555 3.4725,3.4725"
         style="fill:#1a1a1a;fill-opacity:1;fill-rule:nonzero;stroke:none"
         id="path3281"
         inkscape:connector-curvature="0" />
      <path
         d="m 353.38144,504.70256 c 0,1.9175 -1.555,3.4725 -3.4725,3.4725 -1.9175,0 -3.4725,-1.555 -3.4725,-3.4725 0,-1.9175 1.555,-3.4725 3.4725,-3.4725 1.9175,0 3.4725,1.555 3.4725,3.4725 z"
         style="fill:none;stroke:#000000;stroke-width:1.35504997;stroke-linecap:butt;stroke-linejoin:miter;stroke-miterlimit:10;stroke-opacity:1;stroke-dasharray:none"
         id="path3283"
         inkscape:connector-curvature="0" />
      <path
         d="m 353.38144,504.70256 c 0,1.9175 -1.555,3.4725 -3.4725,3.4725 -1.9175,0 -3.4725,-1.555 -3.4725,-3.4725 0,-1.9175 1.555,-3.4725 3.4725,-3.4725 1.9175,0 3.4725,1.555 3.4725,3.4725 z"
         style="fill:none;stroke:#000000;stroke-width:0.13550501;stroke-linecap:butt;stroke-linejoin:miter;stroke-miterlimit:10;stroke-opacity:1;stroke-dasharray:none"
         id="path3285"
         inkscape:connector-curvature="0" />
      <path
         d="m 353.21144,560.59881 c 0,1.9175 -1.555,3.47125 -3.4725,3.47125 -1.9175,0 -3.4725,-1.55375 -3.4725,-3.47125 0,-1.91875 1.555,-3.4725 3.4725,-3.4725 1.9175,0 3.4725,1.55375 3.4725,3.4725"
         style="fill:#1a1a1a;fill-opacity:1;fill-rule:nonzero;stroke:none"
         id="path3287"
         inkscape:connector-curvature="0" />
      <path
         d="m 353.21144,560.59881 c 0,1.9175 -1.555,3.47125 -3.4725,3.47125 -1.9175,0 -3.4725,-1.55375 -3.4725,-3.47125 0,-1.91875 1.555,-3.4725 3.4725,-3.4725 1.9175,0 3.4725,1.55375 3.4725,3.4725 z"
         style="fill:none;stroke:#000000;stroke-width:1.35504997;stroke-linecap:butt;stroke-linejoin:miter;stroke-miterlimit:10;stroke-opacity:1;stroke-dasharray:none"
         id="path3289"
         inkscape:connector-curvature="0" />
      <path
         d="m 353.21144,560.59881 c 0,1.9175 -1.555,3.47125 -3.4725,3.47125 -1.9175,0 -3.4725,-1.55375 -3.4725,-3.47125 0,-1.91875 1.555,-3.4725 3.4725,-3.4725 1.9175,0 3.4725,1.55375 3.4725,3.4725 z"
         style="fill:none;stroke:#000000;stroke-width:0.13550501;stroke-linecap:butt;stroke-linejoin:miter;stroke-miterlimit:10;stroke-opacity:1;stroke-dasharray:none"
         id="path3291"
         inkscape:connector-curvature="0" />
      <path
         d="m 333.56269,552.63756 c 0,1.9175 -1.55375,3.4725 -3.47125,3.4725 -1.91875,0 -3.4725,-1.555 -3.4725,-3.4725 0,-1.9175 1.55375,-3.4725 3.4725,-3.4725 1.9175,0 3.47125,1.555 3.47125,3.4725"
         style="fill:#1a1a1a;fill-opacity:1;fill-rule:nonzero;stroke:none"
         id="path3293"
         inkscape:connector-curvature="0" />
      <path
         d="m 333.56269,552.63756 c 0,1.9175 -1.55375,3.4725 -3.47125,3.4725 -1.91875,0 -3.4725,-1.555 -3.4725,-3.4725 0,-1.9175 1.55375,-3.4725 3.4725,-3.4725 1.9175,0 3.47125,1.555 3.47125,3.4725 z"
         style="fill:none;stroke:#000000;stroke-width:1.35504997;stroke-linecap:butt;stroke-linejoin:miter;stroke-miterlimit:10;stroke-opacity:1;stroke-dasharray:none"
         id="path3295"
         inkscape:connector-curvature="0" />
      <path
         d="m 333.56269,552.63756 c 0,1.9175 -1.55375,3.4725 -3.47125,3.4725 -1.91875,0 -3.4725,-1.555 -3.4725,-3.4725 0,-1.9175 1.55375,-3.4725 3.4725,-3.4725 1.9175,0 3.47125,1.555 3.47125,3.4725 z"
         style="fill:none;stroke:#000000;stroke-width:0.13550501;stroke-linecap:butt;stroke-linejoin:miter;stroke-miterlimit:10;stroke-opacity:1;stroke-dasharray:none"
         id="path3297"
         inkscape:connector-curvature="0" />
      <path
         d="m 377.58269,532.47631 c 0,15.33 -12.4275,27.7575 -27.7575,27.7575 -15.33,0 -27.7575,-12.4275 -27.7575,-27.7575 0,-15.33 12.4275,-27.75875 27.7575,-27.75875 15.33,0 27.7575,12.42875 27.7575,27.75875 z"
         style="fill:none;stroke:#000000;stroke-width:0.13550501;stroke-linecap:butt;stroke-linejoin:miter;stroke-miterlimit:10;stroke-opacity:1;stroke-dasharray:none"
         id="path3299"
         inkscape:connector-curvature="0" />
      <path
         d="m 377.58269,532.47631 c 0,15.33 -12.4275,27.7575 -27.7575,27.7575 -15.33,0 -27.7575,-12.4275 -27.7575,-27.7575 0,-15.33 12.4275,-27.75875 27.7575,-27.75875 15.33,0 27.7575,12.42875 27.7575,27.75875 z"
         style="fill:none;stroke:#000000;stroke-width:0.0135505;stroke-linecap:butt;stroke-linejoin:miter;stroke-miterlimit:10;stroke-opacity:1;stroke-dasharray:none"
         id="path3301"
         inkscape:connector-curvature="0" />
      <path
         d="m 333.73269,512.83256 c 0,1.9175 -1.555,3.4725 -3.4725,3.4725 -1.9175,0 -3.4725,-1.555 -3.4725,-3.4725 0,-1.9175 1.555,-3.4725 3.4725,-3.4725 1.9175,0 3.4725,1.555 3.4725,3.4725"
         style="fill:#1a1a1a;fill-opacity:1;fill-rule:nonzero;stroke:none"
         id="path3303"
         inkscape:connector-curvature="0" />
      <path
         d="m 333.73269,512.83256 c 0,1.9175 -1.555,3.4725 -3.4725,3.4725 -1.9175,0 -3.4725,-1.555 -3.4725,-3.4725 0,-1.9175 1.555,-3.4725 3.4725,-3.4725 1.9175,0 3.4725,1.555 3.4725,3.4725 z"
         style="fill:none;stroke:#000000;stroke-width:1.35504997;stroke-linecap:butt;stroke-linejoin:miter;stroke-miterlimit:10;stroke-opacity:1;stroke-dasharray:none"
         id="path3305"
         inkscape:connector-curvature="0" />
      <path
         d="m 333.73269,512.83256 c 0,1.9175 -1.555,3.4725 -3.4725,3.4725 -1.9175,0 -3.4725,-1.555 -3.4725,-3.4725 0,-1.9175 1.555,-3.4725 3.4725,-3.4725 1.9175,0 3.4725,1.555 3.4725,3.4725 z"
         style="fill:none;stroke:#000000;stroke-width:0.13550501;stroke-linecap:butt;stroke-linejoin:miter;stroke-miterlimit:10;stroke-opacity:1;stroke-dasharray:none"
         id="path3307"
         inkscape:connector-curvature="0" />
      <path
         d="m 372.35144,552.12881 c 0,1.9175 -1.555,3.4725 -3.4725,3.4725 -1.9175,0 -3.4725,-1.555 -3.4725,-3.4725 0,-1.9175 1.555,-3.4725 3.4725,-3.4725 1.9175,0 3.4725,1.555 3.4725,3.4725"
         style="fill:#1a1a1a;fill-opacity:1;fill-rule:nonzero;stroke:none"
         id="path3309"
         inkscape:connector-curvature="0" />
      <path
         d="m 372.35144,552.12881 c 0,1.9175 -1.555,3.4725 -3.4725,3.4725 -1.9175,0 -3.4725,-1.555 -3.4725,-3.4725 0,-1.9175 1.555,-3.4725 3.4725,-3.4725 1.9175,0 3.4725,1.555 3.4725,3.4725 z"
         style="fill:none;stroke:#000000;stroke-width:1.35504997;stroke-linecap:butt;stroke-linejoin:miter;stroke-miterlimit:10;stroke-opacity:1;stroke-dasharray:none"
         id="path3311"
         inkscape:connector-curvature="0" />
      <path
         d="m 372.35144,552.12881 c 0,1.9175 -1.555,3.4725 -3.4725,3.4725 -1.9175,0 -3.4725,-1.555 -3.4725,-3.4725 0,-1.9175 1.555,-3.4725 3.4725,-3.4725 1.9175,0 3.4725,1.555 3.4725,3.4725 z"
         style="fill:none;stroke:#000000;stroke-width:0.13550501;stroke-linecap:butt;stroke-linejoin:miter;stroke-miterlimit:10;stroke-opacity:1;stroke-dasharray:none"
         id="path3313"
         inkscape:connector-curvature="0" />
    </g>
  </g>
</svg>
