<svg xmlns="http://www.w3.org/2000/svg" xmlns:xlink="http://www.w3.org/1999/xlink" width="294px" height="413px" version="1.1"><defs/><g transform="translate(0.5,0.5)"><rect x="1" y="31" width="90" height="90" fill="#ffffff" stroke="#000000" pointer-events="none"/><rect x="1" y="31" width="20" height="90" fill="#b2b2b2" stroke="#000000" pointer-events="none"/><rect x="71" y="31" width="20" height="90" fill="#b2b2b2" stroke="#000000" pointer-events="none"/><rect x="21" y="61" width="50" height="30" fill="#424242" stroke="#000000" pointer-events="none"/><path d="M 91 99 L 91 99" fill="none" stroke="#000000" stroke-miterlimit="10" pointer-events="none"/><rect x="141" y="1" width="150" height="150" fill="#ffffff" stroke="#000000" pointer-events="none"/><rect x="141" y="1" width="30" height="150" fill="#b2b2b2" stroke="#000000" pointer-events="none"/><rect x="261" y="1" width="30" height="150" fill="#b2b2b2" stroke="#000000" pointer-events="none"/><rect x="171" y="51" width="90" height="50" fill="#424242" stroke="#000000" pointer-events="none"/><path d="M 71 61 L 171 51" fill="none" stroke="#0000ff" stroke-miterlimit="10" pointer-events="none"/><path d="M 71 91 L 171 101" fill="none" stroke="#0000ff" stroke-miterlimit="10" pointer-events="none"/><path d="M 71 31 L 171 1" fill="none" stroke="#0000ff" stroke-miterlimit="10" pointer-events="none"/><path d="M 71 121 L 171 151" fill="none" stroke="#0000ff" stroke-miterlimit="10" pointer-events="none"/><path d="M 1 41 L 91 41" fill="none" stroke="#000000" stroke-miterlimit="10" pointer-events="none"/><path d="M 1 51 L 91 51" fill="none" stroke="#000000" stroke-miterlimit="10" pointer-events="none"/><path d="M 1 61 L 91 61" fill="none" stroke="#000000" stroke-miterlimit="10" pointer-events="none"/><path d="M 1 71 L 91 71" fill="none" stroke="#000000" stroke-miterlimit="10" pointer-events="none"/><path d="M 1 81 L 91 81" fill="none" stroke="#000000" stroke-miterlimit="10" pointer-events="none"/><path d="M 1 91 L 91 91" fill="none" stroke="#000000" stroke-miterlimit="10" pointer-events="none"/><path d="M 1 101 L 91 101" fill="none" stroke="#000000" stroke-miterlimit="10" pointer-events="none"/><path d="M 1 111 L 91 111" fill="none" stroke="#000000" stroke-miterlimit="10" pointer-events="none"/><path d="M 11 121 L 11 31" fill="none" stroke="#000000" stroke-miterlimit="10" pointer-events="none"/><path d="M 31 121 L 31 31" fill="none" stroke="#000000" stroke-miterlimit="10" pointer-events="none"/><path d="M 41 121 L 41 31" fill="none" stroke="#000000" stroke-miterlimit="10" pointer-events="none"/><path d="M 51 121 L 51 31" fill="none" stroke="#000000" stroke-miterlimit="10" pointer-events="none"/><path d="M 61 121 L 61 31" fill="none" stroke="#000000" stroke-miterlimit="10" pointer-events="none"/><path d="M 81 121 L 81 31" fill="none" stroke="#000000" stroke-miterlimit="10" pointer-events="none"/><path d="M 151 151 L 151 1" fill="none" stroke="#000000" stroke-miterlimit="10" pointer-events="none"/><path d="M 161 151 L 161 1" fill="none" stroke="#000000" stroke-miterlimit="10" pointer-events="none"/><path d="M 181 151 L 181 1" fill="none" stroke="#000000" stroke-miterlimit="10" pointer-events="none"/><path d="M 191 151 L 191 1" fill="none" stroke="#000000" stroke-miterlimit="10" pointer-events="none"/><path d="M 201 151 L 201 1" fill="none" stroke="#000000" stroke-miterlimit="10" pointer-events="none"/><path d="M 211 151 L 211 1" fill="none" stroke="#000000" stroke-miterlimit="10" pointer-events="none"/><path d="M 221 151 L 221 1" fill="none" stroke="#000000" stroke-miterlimit="10" pointer-events="none"/><path d="M 231 151 L 231 1" fill="none" stroke="#000000" stroke-miterlimit="10" pointer-events="none"/><path d="M 241 151 L 241 1" fill="none" stroke="#000000" stroke-miterlimit="10" pointer-events="none"/><path d="M 251 151 L 251 1" fill="none" stroke="#000000" stroke-miterlimit="10" pointer-events="none"/><path d="M 271 151 L 271 1" fill="none" stroke="#000000" stroke-miterlimit="10" pointer-events="none"/><path d="M 281 151 L 281 1" fill="none" stroke="#000000" stroke-miterlimit="10" pointer-events="none"/><path d="M 291 11 L 141 11" fill="none" stroke="#000000" stroke-miterlimit="10" pointer-events="none"/><path d="M 291 21 L 141 21" fill="none" stroke="#000000" stroke-miterlimit="10" pointer-events="none"/><path d="M 291 31 L 141 31" fill="none" stroke="#000000" stroke-miterlimit="10" pointer-events="none"/><path d="M 291 41 L 141 41" fill="none" stroke="#000000" stroke-miterlimit="10" pointer-events="none"/><path d="M 291 51 L 141 51" fill="none" stroke="#000000" stroke-miterlimit="10" pointer-events="none"/><path d="M 291 61 L 141 61" fill="none" stroke="#000000" stroke-miterlimit="10" pointer-events="none"/><path d="M 291 71 L 141 71" fill="none" stroke="#000000" stroke-miterlimit="10" pointer-events="none"/><path d="M 291 81 L 141 81" fill="none" stroke="#000000" stroke-miterlimit="10" pointer-events="none"/><path d="M 291 91 L 141 91" fill="none" stroke="#000000" stroke-miterlimit="10" pointer-events="none"/><path d="M 291 101 L 141 101" fill="none" stroke="#000000" stroke-miterlimit="10" pointer-events="none"/><path d="M 291 111 L 141 111" fill="none" stroke="#000000" stroke-miterlimit="10" pointer-events="none"/><path d="M 291 121 L 141 121" fill="none" stroke="#000000" stroke-miterlimit="10" pointer-events="none"/><path d="M 291 131 L 141 131" fill="none" stroke="#000000" stroke-miterlimit="10" pointer-events="none"/><path d="M 291 141 L 141 141" fill="none" stroke="#000000" stroke-miterlimit="10" pointer-events="none"/><rect x="1" y="241" width="90" height="90" fill="#b2b2b2" stroke="#000000" pointer-events="none"/><rect x="141" y="211" width="150" height="150" fill="#b2b2b2" stroke="#000000" pointer-events="none"/><rect x="11" y="251" width="30" height="30" fill="#ffffff" stroke="#000000" pointer-events="none"/><rect x="51" y="291" width="30" height="30" fill="#ffffff" stroke="#000000" pointer-events="none"/><rect x="51" y="251" width="30" height="30" fill="#424242" stroke="#000000" pointer-events="none"/><rect x="11" y="291" width="30" height="30" fill="#424242" stroke="#000000" pointer-events="none"/><rect x="101" y="161" width="80" height="40" fill="none" stroke="none" pointer-events="none"/><g fill="#000000" font-family="Helvetica" text-anchor="middle" font-size="14px"><text x="141" y="186">(a)</text></g><rect x="101" y="371" width="80" height="40" fill="none" stroke="none" pointer-events="none"/><g fill="#000000" font-family="Helvetica" text-anchor="middle" font-size="14px"><text x="141" y="396">(b)</text></g><path d="M 1 251 L 91 251" fill="none" stroke="#000000" stroke-miterlimit="10" pointer-events="none"/><path d="M 1 261 L 91 261" fill="none" stroke="#000000" stroke-miterlimit="10" pointer-events="none"/><path d="M 1 271 L 91 271" fill="none" stroke="#000000" stroke-miterlimit="10" pointer-events="none"/><path d="M 1 281 L 91 281" fill="none" stroke="#000000" stroke-miterlimit="10" pointer-events="none"/><path d="M 1 291 L 91 291" fill="none" stroke="#000000" stroke-miterlimit="10" pointer-events="none"/><path d="M 1 301 L 91 301" fill="none" stroke="#000000" stroke-miterlimit="10" pointer-events="none"/><path d="M 1 311 L 91 311" fill="none" stroke="#000000" stroke-miterlimit="10" pointer-events="none"/><path d="M 1 321 L 91 321" fill="none" stroke="#000000" stroke-miterlimit="10" pointer-events="none"/><path d="M 11 241 L 11 331" fill="none" stroke="#000000" stroke-miterlimit="10" pointer-events="none"/><path d="M 21 241 L 21 331" fill="none" stroke="#000000" stroke-miterlimit="10" pointer-events="none"/><path d="M 31 241 L 31 331" fill="none" stroke="#000000" stroke-miterlimit="10" pointer-events="none"/><path d="M 41 241 L 41 331" fill="none" stroke="#000000" stroke-miterlimit="10" pointer-events="none"/><path d="M 51 241 L 51 331" fill="none" stroke="#000000" stroke-miterlimit="10" pointer-events="none"/><path d="M 61 241 L 61 331" fill="none" stroke="#000000" stroke-miterlimit="10" pointer-events="none"/><path d="M 71 241 L 71 331" fill="none" stroke="#000000" stroke-miterlimit="10" pointer-events="none"/><path d="M 81 241 L 81 331" fill="none" stroke="#000000" stroke-miterlimit="10" pointer-events="none"/><rect x="161" y="231" width="50" height="50" fill="#ffffff" stroke="#000000" pointer-events="none"/><rect x="221" y="291" width="50" height="50" fill="#ffffff" stroke="#000000" pointer-events="none"/><rect x="221" y="231" width="50" height="50" fill="#424242" stroke="#000000" pointer-events="none"/><rect x="161" y="291" width="50" height="50" fill="#424242" stroke="#000000" pointer-events="none"/><path d="M 141 351 L 291 351" fill="none" stroke="#000000" stroke-miterlimit="10" pointer-events="none"/><path d="M 141 341 L 291 341" fill="none" stroke="#000000" stroke-miterlimit="10" pointer-events="none"/><path d="M 141 331 L 291 331" fill="none" stroke="#000000" stroke-miterlimit="10" pointer-events="none"/><path d="M 141 321 L 291 321" fill="none" stroke="#000000" stroke-miterlimit="10" pointer-events="none"/><path d="M 141 311 L 291 311" fill="none" stroke="#000000" stroke-miterlimit="10" pointer-events="none"/><path d="M 141 301 L 291 301" fill="none" stroke="#000000" stroke-miterlimit="10" pointer-events="none"/><path d="M 141 291 L 291 291" fill="none" stroke="#000000" stroke-miterlimit="10" pointer-events="none"/><path d="M 141 281 L 291 281" fill="none" stroke="#000000" stroke-miterlimit="10" pointer-events="none"/><path d="M 141 271 L 291 271" fill="none" stroke="#000000" stroke-miterlimit="10" pointer-events="none"/><path d="M 141 261 L 291 261" fill="none" stroke="#000000" stroke-miterlimit="10" pointer-events="none"/><path d="M 141 251 L 291 251" fill="none" stroke="#000000" stroke-miterlimit="10" pointer-events="none"/><path d="M 141 241 L 291 241" fill="none" stroke="#000000" stroke-miterlimit="10" pointer-events="none"/><path d="M 141 231 L 291 231" fill="none" stroke="#000000" stroke-miterlimit="10" pointer-events="none"/><path d="M 141 221 L 291 221" fill="none" stroke="#000000" stroke-miterlimit="10" pointer-events="none"/><path d="M 151 361 L 151 211" fill="none" stroke="#000000" stroke-miterlimit="10" pointer-events="none"/><path d="M 161 361 L 161 211" fill="none" stroke="#000000" stroke-miterlimit="10" pointer-events="none"/><path d="M 171 361 L 171 211" fill="none" stroke="#000000" stroke-miterlimit="10" pointer-events="none"/><path d="M 181 361 L 181 211" fill="none" stroke="#000000" stroke-miterlimit="10" pointer-events="none"/><path d="M 191 361 L 191 211" fill="none" stroke="#000000" stroke-miterlimit="10" pointer-events="none"/><path d="M 201 361 L 201 211" fill="none" stroke="#000000" stroke-miterlimit="10" pointer-events="none"/><path d="M 211 361 L 211 211" fill="none" stroke="#000000" stroke-miterlimit="10" pointer-events="none"/><path d="M 221 361 L 221 211" fill="none" stroke="#000000" stroke-miterlimit="10" pointer-events="none"/><path d="M 231 361 L 231 211" fill="none" stroke="#000000" stroke-miterlimit="10" pointer-events="none"/><path d="M 241 361 L 241 211" fill="none" stroke="#000000" stroke-miterlimit="10" pointer-events="none"/><path d="M 251 361 L 251 211" fill="none" stroke="#000000" stroke-miterlimit="10" pointer-events="none"/><path d="M 261 361 L 261 211" fill="none" stroke="#000000" stroke-miterlimit="10" pointer-events="none"/><path d="M 271 361 L 271 211" fill="none" stroke="#000000" stroke-miterlimit="10" pointer-events="none"/><path d="M 281 361 L 281 211" fill="none" stroke="#000000" stroke-miterlimit="10" pointer-events="none"/><path d="M 81 251 L 161 231" fill="none" stroke="#0000ff" stroke-miterlimit="10" pointer-events="none"/><path d="M 81 321 L 161 341" fill="none" stroke="#0000ff" stroke-miterlimit="10" pointer-events="none"/><path d="M 81 281 L 161 281" fill="none" stroke="#0000ff" stroke-miterlimit="10" pointer-events="none"/><path d="M 81 291 L 161 291" fill="none" stroke="#0000ff" stroke-miterlimit="10" pointer-events="none"/></g></svg>