<svg xmlns="http://www.w3.org/2000/svg" xmlns:xlink="http://www.w3.org/1999/xlink" width="514px" height="124px" version="1.1"><defs/><g transform="translate(0.5,0.5)"><rect x="1" y="1" width="90" height="90" fill="#b2b2b2" stroke="#000000" pointer-events="none"/><path d="M 1 11 L 91 11" fill="none" stroke="#000000" stroke-miterlimit="10" pointer-events="none"/><path d="M 1 21 L 91 21" fill="none" stroke="#000000" stroke-miterlimit="10" pointer-events="none"/><path d="M 1 31 L 91 31" fill="none" stroke="#000000" stroke-miterlimit="10" pointer-events="none"/><path d="M 1 41 L 91 41" fill="none" stroke="#000000" stroke-miterlimit="10" pointer-events="none"/><path d="M 1 51 L 91 51" fill="none" stroke="#000000" stroke-miterlimit="10" pointer-events="none"/><path d="M 1 61 L 91 61" fill="none" stroke="#000000" stroke-miterlimit="10" pointer-events="none"/><path d="M 1 71 L 91 71" fill="none" stroke="#000000" stroke-miterlimit="10" pointer-events="none"/><path d="M 1 81 L 91 81" fill="none" stroke="#000000" stroke-miterlimit="10" pointer-events="none"/><path d="M 11 91 L 11 1" fill="none" stroke="#000000" stroke-miterlimit="10" pointer-events="none"/><path d="M 21 91 L 21 1" fill="none" stroke="#000000" stroke-miterlimit="10" pointer-events="none"/><path d="M 31 91 L 31 1" fill="none" stroke="#000000" stroke-miterlimit="10" pointer-events="none"/><path d="M 41 91 L 41 1" fill="none" stroke="#000000" stroke-miterlimit="10" pointer-events="none"/><path d="M 51 91 L 51 1" fill="none" stroke="#000000" stroke-miterlimit="10" pointer-events="none"/><path d="M 61 91 L 61 1" fill="none" stroke="#000000" stroke-miterlimit="10" pointer-events="none"/><path d="M 71 91 L 71 1" fill="none" stroke="#000000" stroke-miterlimit="10" pointer-events="none"/><path d="M 81 91 L 81 1" fill="none" stroke="#000000" stroke-miterlimit="10" pointer-events="none"/><rect x="141" y="1" width="90" height="90" fill="#b2b2b2" stroke="#000000" pointer-events="none"/><path d="M 141 11 L 231 11" fill="none" stroke="#000000" stroke-miterlimit="10" pointer-events="none"/><path d="M 141 21 L 231 21" fill="none" stroke="#000000" stroke-miterlimit="10" pointer-events="none"/><path d="M 141 31 L 231 31" fill="none" stroke="#000000" stroke-miterlimit="10" pointer-events="none"/><path d="M 141 41 L 231 41" fill="none" stroke="#000000" stroke-miterlimit="10" pointer-events="none"/><path d="M 141 51 L 231 51" fill="none" stroke="#000000" stroke-miterlimit="10" pointer-events="none"/><path d="M 141 61 L 231 61" fill="none" stroke="#000000" stroke-miterlimit="10" pointer-events="none"/><path d="M 141 71 L 231 71" fill="none" stroke="#000000" stroke-miterlimit="10" pointer-events="none"/><path d="M 141 81 L 231 81" fill="none" stroke="#000000" stroke-miterlimit="10" pointer-events="none"/><path d="M 151 91 L 151 1" fill="none" stroke="#000000" stroke-miterlimit="10" pointer-events="none"/><path d="M 161 91 L 161 1" fill="none" stroke="#000000" stroke-miterlimit="10" pointer-events="none"/><path d="M 171 91 L 171 1" fill="none" stroke="#000000" stroke-miterlimit="10" pointer-events="none"/><path d="M 181 91 L 181 1" fill="none" stroke="#000000" stroke-miterlimit="10" pointer-events="none"/><path d="M 191 91 L 191 1" fill="none" stroke="#000000" stroke-miterlimit="10" pointer-events="none"/><path d="M 201 91 L 201 1" fill="none" stroke="#000000" stroke-miterlimit="10" pointer-events="none"/><path d="M 211 91 L 211 1" fill="none" stroke="#000000" stroke-miterlimit="10" pointer-events="none"/><path d="M 221 91 L 221 1" fill="none" stroke="#000000" stroke-miterlimit="10" pointer-events="none"/><rect x="281" y="1" width="90" height="90" fill="#b2b2b2" stroke="#000000" pointer-events="none"/><path d="M 281 11 L 371 11" fill="none" stroke="#000000" stroke-miterlimit="10" pointer-events="none"/><path d="M 281 21 L 371 21" fill="none" stroke="#000000" stroke-miterlimit="10" pointer-events="none"/><path d="M 281 31 L 371 31" fill="none" stroke="#000000" stroke-miterlimit="10" pointer-events="none"/><path d="M 281 41 L 371 41" fill="none" stroke="#000000" stroke-miterlimit="10" pointer-events="none"/><path d="M 281 51 L 371 51" fill="none" stroke="#000000" stroke-miterlimit="10" pointer-events="none"/><path d="M 281 61 L 371 61" fill="none" stroke="#000000" stroke-miterlimit="10" pointer-events="none"/><path d="M 281 71 L 371 71" fill="none" stroke="#000000" stroke-miterlimit="10" pointer-events="none"/><path d="M 281 81 L 371 81" fill="none" stroke="#000000" stroke-miterlimit="10" pointer-events="none"/><path d="M 291 91 L 291 1" fill="none" stroke="#000000" stroke-miterlimit="10" pointer-events="none"/><path d="M 301 91 L 301 1" fill="none" stroke="#000000" stroke-miterlimit="10" pointer-events="none"/><path d="M 311 91 L 311 1" fill="none" stroke="#000000" stroke-miterlimit="10" pointer-events="none"/><path d="M 321 91 L 321 1" fill="none" stroke="#000000" stroke-miterlimit="10" pointer-events="none"/><path d="M 331 91 L 331 1" fill="none" stroke="#000000" stroke-miterlimit="10" pointer-events="none"/><path d="M 341 91 L 341 1" fill="none" stroke="#000000" stroke-miterlimit="10" pointer-events="none"/><path d="M 351 91 L 351 1" fill="none" stroke="#000000" stroke-miterlimit="10" pointer-events="none"/><path d="M 361 91 L 361 1" fill="none" stroke="#000000" stroke-miterlimit="10" pointer-events="none"/><rect x="421" y="1" width="90" height="90" fill="#b2b2b2" stroke="#000000" pointer-events="none"/><path d="M 421 11 L 511 11" fill="none" stroke="#000000" stroke-miterlimit="10" pointer-events="none"/><path d="M 421 21 L 511 21" fill="none" stroke="#000000" stroke-miterlimit="10" pointer-events="none"/><path d="M 421 31 L 511 31" fill="none" stroke="#000000" stroke-miterlimit="10" pointer-events="none"/><path d="M 421 41 L 511 41" fill="none" stroke="#000000" stroke-miterlimit="10" pointer-events="none"/><path d="M 421 51 L 511 51" fill="none" stroke="#000000" stroke-miterlimit="10" pointer-events="none"/><path d="M 421 61 L 511 61" fill="none" stroke="#000000" stroke-miterlimit="10" pointer-events="none"/><path d="M 421 71 L 511 71" fill="none" stroke="#000000" stroke-miterlimit="10" pointer-events="none"/><path d="M 421 81 L 511 81" fill="none" stroke="#000000" stroke-miterlimit="10" pointer-events="none"/><path d="M 431 91 L 431 1" fill="none" stroke="#000000" stroke-miterlimit="10" pointer-events="none"/><path d="M 441 91 L 441 1" fill="none" stroke="#000000" stroke-miterlimit="10" pointer-events="none"/><path d="M 451 91 L 451 1" fill="none" stroke="#000000" stroke-miterlimit="10" pointer-events="none"/><path d="M 461 91 L 461 1" fill="none" stroke="#000000" stroke-miterlimit="10" pointer-events="none"/><path d="M 471 91 L 471 1" fill="none" stroke="#000000" stroke-miterlimit="10" pointer-events="none"/><path d="M 481 91 L 481 1" fill="none" stroke="#000000" stroke-miterlimit="10" pointer-events="none"/><path d="M 491 91 L 491 1" fill="none" stroke="#000000" stroke-miterlimit="10" pointer-events="none"/><path d="M 501 91 L 501 1" fill="none" stroke="#000000" stroke-miterlimit="10" pointer-events="none"/><rect x="41" y="61" width="10" height="10" fill="#ffffff" stroke="#000000" pointer-events="none"/><rect x="41" y="21" width="10" height="10" fill="#ffffff" stroke="#000000" pointer-events="none"/><rect x="171" y="31" width="10" height="10" fill="#ffffff" stroke="#000000" pointer-events="none"/><rect x="191" y="51" width="10" height="10" fill="#ffffff" stroke="#000000" pointer-events="none"/><rect x="41" y="41" width="10" height="10" fill="#000000" stroke="#000000" pointer-events="none"/><path d="M 51 43 L 51 43" fill="none" stroke="#000000" stroke-miterlimit="10" pointer-events="none"/><path d="M 41 43 L 41 43" fill="none" stroke="#000000" stroke-miterlimit="10" pointer-events="none"/><rect x="171" y="51" width="10" height="10" fill="#000000" stroke="#000000" pointer-events="none"/><path d="M 181 53 L 181 53" fill="none" stroke="#000000" stroke-miterlimit="10" pointer-events="none"/><path d="M 171 53 L 171 53" fill="none" stroke="#000000" stroke-miterlimit="10" pointer-events="none"/><rect x="191" y="31" width="10" height="10" fill="#000000" stroke="#000000" pointer-events="none"/><path d="M 201 33 L 201 33" fill="none" stroke="#000000" stroke-miterlimit="10" pointer-events="none"/><path d="M 191 33 L 191 33" fill="none" stroke="#000000" stroke-miterlimit="10" pointer-events="none"/><rect x="161" y="51" width="10" height="10" fill="#363636" stroke="#000000" pointer-events="none"/><path d="M 171 53 L 171 53" fill="none" stroke="#000000" stroke-miterlimit="10" pointer-events="none"/><path d="M 161 53 L 161 53" fill="none" stroke="#000000" stroke-miterlimit="10" pointer-events="none"/><rect x="171" y="61" width="10" height="10" fill="#363636" stroke="#000000" pointer-events="none"/><path d="M 181 63 L 181 63" fill="none" stroke="#000000" stroke-miterlimit="10" pointer-events="none"/><path d="M 171 63 L 171 63" fill="none" stroke="#000000" stroke-miterlimit="10" pointer-events="none"/><rect x="191" y="21" width="10" height="10" fill="#363636" stroke="#000000" pointer-events="none"/><path d="M 201 23 L 201 23" fill="none" stroke="#000000" stroke-miterlimit="10" pointer-events="none"/><path d="M 191 23 L 191 23" fill="none" stroke="#000000" stroke-miterlimit="10" pointer-events="none"/><rect x="201" y="31" width="10" height="10" fill="#363636" stroke="#000000" pointer-events="none"/><path d="M 211 33 L 211 33" fill="none" stroke="#000000" stroke-miterlimit="10" pointer-events="none"/><path d="M 201 33 L 201 33" fill="none" stroke="#000000" stroke-miterlimit="10" pointer-events="none"/><rect x="161" y="31" width="10" height="10" fill="#ededed" stroke="#000000" pointer-events="none"/><path d="M 171 33 L 171 33" fill="none" stroke="#000000" stroke-miterlimit="10" pointer-events="none"/><path d="M 161 33 L 161 33" fill="none" stroke="#000000" stroke-miterlimit="10" pointer-events="none"/><rect x="171" y="21" width="10" height="10" fill="#ededed" stroke="#000000" pointer-events="none"/><path d="M 181 23 L 181 23" fill="none" stroke="#000000" stroke-miterlimit="10" pointer-events="none"/><path d="M 171 23 L 171 23" fill="none" stroke="#000000" stroke-miterlimit="10" pointer-events="none"/><rect x="191" y="61" width="10" height="10" fill="#ededed" stroke="#000000" pointer-events="none"/><path d="M 201 63 L 201 63" fill="none" stroke="#000000" stroke-miterlimit="10" pointer-events="none"/><path d="M 191 63 L 191 63" fill="none" stroke="#000000" stroke-miterlimit="10" pointer-events="none"/><rect x="201" y="51" width="10" height="10" fill="#ededed" stroke="#000000" pointer-events="none"/><path d="M 211 53 L 211 53" fill="none" stroke="#000000" stroke-miterlimit="10" pointer-events="none"/><path d="M 201 53 L 201 53" fill="none" stroke="#000000" stroke-miterlimit="10" pointer-events="none"/><rect x="161" y="21" width="10" height="10" fill="#dedede" stroke="#000000" pointer-events="none"/><path d="M 171 23 L 171 23" fill="none" stroke="#000000" stroke-miterlimit="10" pointer-events="none"/><path d="M 161 23 L 161 23" fill="none" stroke="#000000" stroke-miterlimit="10" pointer-events="none"/><rect x="201" y="61" width="10" height="10" fill="#dedede" stroke="#000000" pointer-events="none"/><path d="M 211 63 L 211 63" fill="none" stroke="#000000" stroke-miterlimit="10" pointer-events="none"/><path d="M 201 63 L 201 63" fill="none" stroke="#000000" stroke-miterlimit="10" pointer-events="none"/><rect x="161" y="61" width="10" height="10" fill="#606060" stroke="#000000" pointer-events="none"/><path d="M 171 63 L 171 63" fill="none" stroke="#000000" stroke-miterlimit="10" pointer-events="none"/><path d="M 161 63 L 161 63" fill="none" stroke="#000000" stroke-miterlimit="10" pointer-events="none"/><rect x="201" y="21" width="10" height="10" fill="#606060" stroke="#000000" pointer-events="none"/><path d="M 211 23 L 211 23" fill="none" stroke="#000000" stroke-miterlimit="10" pointer-events="none"/><path d="M 201 23 L 201 23" fill="none" stroke="#000000" stroke-miterlimit="10" pointer-events="none"/><rect x="171" y="11" width="10" height="10" fill="#c4c4c4" stroke="#000000" pointer-events="none"/><path d="M 181 13 L 181 13" fill="none" stroke="#000000" stroke-miterlimit="10" pointer-events="none"/><path d="M 171 13 L 171 13" fill="none" stroke="#000000" stroke-miterlimit="10" pointer-events="none"/><rect x="151" y="31" width="10" height="10" fill="#c4c4c4" stroke="#000000" pointer-events="none"/><path d="M 161 33 L 161 33" fill="none" stroke="#000000" stroke-miterlimit="10" pointer-events="none"/><path d="M 151 33 L 151 33" fill="none" stroke="#000000" stroke-miterlimit="10" pointer-events="none"/><rect x="191" y="71" width="10" height="10" fill="#c4c4c4" stroke="#000000" pointer-events="none"/><path d="M 201 73 L 201 73" fill="none" stroke="#000000" stroke-miterlimit="10" pointer-events="none"/><path d="M 191 73 L 191 73" fill="none" stroke="#000000" stroke-miterlimit="10" pointer-events="none"/><rect x="211" y="51" width="10" height="10" fill="#c4c4c4" stroke="#000000" pointer-events="none"/><path d="M 221 53 L 221 53" fill="none" stroke="#000000" stroke-miterlimit="10" pointer-events="none"/><path d="M 211 53 L 211 53" fill="none" stroke="#000000" stroke-miterlimit="10" pointer-events="none"/><rect x="201" y="71" width="10" height="10" fill="#c1c1c1" stroke="#000000" pointer-events="none"/><path d="M 211 73 L 211 73" fill="none" stroke="#000000" stroke-miterlimit="10" pointer-events="none"/><path d="M 201 73 L 201 73" fill="none" stroke="#000000" stroke-miterlimit="10" pointer-events="none"/><rect x="211" y="61" width="10" height="10" fill="#c1c1c1" stroke="#000000" pointer-events="none"/><path d="M 221 63 L 221 63" fill="none" stroke="#000000" stroke-miterlimit="10" pointer-events="none"/><path d="M 211 63 L 211 63" fill="none" stroke="#000000" stroke-miterlimit="10" pointer-events="none"/><rect x="151" y="21" width="10" height="10" fill="#c1c1c1" stroke="#000000" pointer-events="none"/><path d="M 161 23 L 161 23" fill="none" stroke="#000000" stroke-miterlimit="10" pointer-events="none"/><path d="M 151 23 L 151 23" fill="none" stroke="#000000" stroke-miterlimit="10" pointer-events="none"/><rect x="161" y="11" width="10" height="10" fill="#c1c1c1" stroke="#000000" pointer-events="none"/><path d="M 171 13 L 171 13" fill="none" stroke="#000000" stroke-miterlimit="10" pointer-events="none"/><path d="M 161 13 L 161 13" fill="none" stroke="#000000" stroke-miterlimit="10" pointer-events="none"/><rect x="211" y="71" width="10" height="10" fill="#b6b6b6" stroke="#000000" pointer-events="none"/><path d="M 221 73 L 221 73" fill="none" stroke="#000000" stroke-miterlimit="10" pointer-events="none"/><path d="M 211 73 L 211 73" fill="none" stroke="#000000" stroke-miterlimit="10" pointer-events="none"/><rect x="151" y="11" width="10" height="10" fill="#b6b6b6" stroke="#000000" pointer-events="none"/><path d="M 161 13 L 161 13" fill="none" stroke="#000000" stroke-miterlimit="10" pointer-events="none"/><path d="M 151 13 L 151 13" fill="none" stroke="#000000" stroke-miterlimit="10" pointer-events="none"/><rect x="151" y="51" width="10" height="10" fill="#979797" stroke="#000000" pointer-events="none"/><path d="M 161 53 L 161 53" fill="none" stroke="#000000" stroke-miterlimit="10" pointer-events="none"/><path d="M 151 53 L 151 53" fill="none" stroke="#000000" stroke-miterlimit="10" pointer-events="none"/><rect x="171" y="71" width="10" height="10" fill="#979797" stroke="#000000" pointer-events="none"/><path d="M 181 73 L 181 73" fill="none" stroke="#000000" stroke-miterlimit="10" pointer-events="none"/><path d="M 171 73 L 171 73" fill="none" stroke="#000000" stroke-miterlimit="10" pointer-events="none"/><rect x="191" y="11" width="10" height="10" fill="#979797" stroke="#000000" pointer-events="none"/><path d="M 201 13 L 201 13" fill="none" stroke="#000000" stroke-miterlimit="10" pointer-events="none"/><path d="M 191 13 L 191 13" fill="none" stroke="#000000" stroke-miterlimit="10" pointer-events="none"/><rect x="211" y="31" width="10" height="10" fill="#979797" stroke="#000000" pointer-events="none"/><path d="M 221 33 L 221 33" fill="none" stroke="#000000" stroke-miterlimit="10" pointer-events="none"/><path d="M 211 33 L 211 33" fill="none" stroke="#000000" stroke-miterlimit="10" pointer-events="none"/><rect x="151" y="61" width="10" height="10" fill="#9c9c9c" stroke="#000000" pointer-events="none"/><path d="M 161 63 L 161 63" fill="none" stroke="#000000" stroke-miterlimit="10" pointer-events="none"/><path d="M 151 63 L 151 63" fill="none" stroke="#000000" stroke-miterlimit="10" pointer-events="none"/><rect x="161" y="71" width="10" height="10" fill="#9c9c9c" stroke="#000000" pointer-events="none"/><path d="M 171 73 L 171 73" fill="none" stroke="#000000" stroke-miterlimit="10" pointer-events="none"/><path d="M 161 73 L 161 73" fill="none" stroke="#000000" stroke-miterlimit="10" pointer-events="none"/><rect x="201" y="11" width="10" height="10" fill="#9c9c9c" stroke="#000000" pointer-events="none"/><path d="M 211 13 L 211 13" fill="none" stroke="#000000" stroke-miterlimit="10" pointer-events="none"/><path d="M 201 13 L 201 13" fill="none" stroke="#000000" stroke-miterlimit="10" pointer-events="none"/><rect x="211" y="21" width="10" height="10" fill="#9c9c9c" stroke="#000000" pointer-events="none"/><path d="M 221 23 L 221 23" fill="none" stroke="#000000" stroke-miterlimit="10" pointer-events="none"/><path d="M 211 23 L 211 23" fill="none" stroke="#000000" stroke-miterlimit="10" pointer-events="none"/><rect x="151" y="71" width="10" height="10" fill="#aaaaaa" stroke="#000000" pointer-events="none"/><path d="M 161 73 L 161 73" fill="none" stroke="#000000" stroke-miterlimit="10" pointer-events="none"/><path d="M 151 73 L 151 73" fill="none" stroke="#000000" stroke-miterlimit="10" pointer-events="none"/><rect x="211" y="11" width="10" height="10" fill="#aaaaaa" stroke="#000000" pointer-events="none"/><path d="M 221 13 L 221 13" fill="none" stroke="#000000" stroke-miterlimit="10" pointer-events="none"/><path d="M 211 13 L 211 13" fill="none" stroke="#000000" stroke-miterlimit="10" pointer-events="none"/><rect x="51" y="41" width="10" height="10" fill="#343434" stroke="#000000" pointer-events="none"/><path d="M 61 43 L 61 43" fill="none" stroke="#000000" stroke-miterlimit="10" pointer-events="none"/><path d="M 51 43 L 51 43" fill="none" stroke="#000000" stroke-miterlimit="10" pointer-events="none"/><rect x="31" y="41" width="10" height="10" fill="#343434" stroke="#000000" pointer-events="none"/><path d="M 41 43 L 41 43" fill="none" stroke="#000000" stroke-miterlimit="10" pointer-events="none"/><path d="M 31 43 L 31 43" fill="none" stroke="#000000" stroke-miterlimit="10" pointer-events="none"/><rect x="61" y="41" width="10" height="10" fill="#858585" stroke="#000000" pointer-events="none"/><path d="M 71 43 L 71 43" fill="none" stroke="#000000" stroke-miterlimit="10" pointer-events="none"/><path d="M 61 43 L 61 43" fill="none" stroke="#000000" stroke-miterlimit="10" pointer-events="none"/><rect x="21" y="41" width="10" height="10" fill="#858585" stroke="#000000" pointer-events="none"/><path d="M 31 43 L 31 43" fill="none" stroke="#000000" stroke-miterlimit="10" pointer-events="none"/><path d="M 21 43 L 21 43" fill="none" stroke="#000000" stroke-miterlimit="10" pointer-events="none"/><rect x="11" y="41" width="10" height="10" fill="#aaaaaa" stroke="#000000" pointer-events="none"/><path d="M 21 43 L 21 43" fill="none" stroke="#000000" stroke-miterlimit="10" pointer-events="none"/><path d="M 11 43 L 11 43" fill="none" stroke="#000000" stroke-miterlimit="10" pointer-events="none"/><rect x="71" y="41" width="10" height="10" fill="#aaaaaa" stroke="#000000" pointer-events="none"/><path d="M 81 43 L 81 43" fill="none" stroke="#000000" stroke-miterlimit="10" pointer-events="none"/><path d="M 71 43 L 71 43" fill="none" stroke="#000000" stroke-miterlimit="10" pointer-events="none"/><path d="M 34 41 L 34 41" fill="none" stroke="#000000" stroke-miterlimit="10" pointer-events="none"/><rect x="41" y="31" width="10" height="10" fill="#898989" stroke="#000000" pointer-events="none"/><path d="M 51 33 L 51 33" fill="none" stroke="#000000" stroke-miterlimit="10" pointer-events="none"/><path d="M 41 33 L 41 33" fill="none" stroke="#000000" stroke-miterlimit="10" pointer-events="none"/><rect x="41" y="51" width="10" height="10" fill="#898989" stroke="#000000" pointer-events="none"/><path d="M 51 53 L 51 53" fill="none" stroke="#000000" stroke-miterlimit="10" pointer-events="none"/><path d="M 41 53 L 41 53" fill="none" stroke="#000000" stroke-miterlimit="10" pointer-events="none"/><rect x="51" y="31" width="10" height="10" fill="#959595" stroke="#000000" pointer-events="none"/><path d="M 61 33 L 61 33" fill="none" stroke="#000000" stroke-miterlimit="10" pointer-events="none"/><path d="M 51 33 L 51 33" fill="none" stroke="#000000" stroke-miterlimit="10" pointer-events="none"/><rect x="31" y="31" width="10" height="10" fill="#959595" stroke="#000000" pointer-events="none"/><path d="M 41 33 L 41 33" fill="none" stroke="#000000" stroke-miterlimit="10" pointer-events="none"/><path d="M 31 33 L 31 33" fill="none" stroke="#000000" stroke-miterlimit="10" pointer-events="none"/><rect x="51" y="51" width="10" height="10" fill="#959595" stroke="#000000" pointer-events="none"/><path d="M 61 53 L 61 53" fill="none" stroke="#000000" stroke-miterlimit="10" pointer-events="none"/><path d="M 51 53 L 51 53" fill="none" stroke="#000000" stroke-miterlimit="10" pointer-events="none"/><rect x="31" y="51" width="10" height="10" fill="#959595" stroke="#000000" pointer-events="none"/><path d="M 41 53 L 41 53" fill="none" stroke="#000000" stroke-miterlimit="10" pointer-events="none"/><path d="M 31 53 L 31 53" fill="none" stroke="#000000" stroke-miterlimit="10" pointer-events="none"/><rect x="31" y="21" width="10" height="10" fill="#eaeaea" stroke="#000000" pointer-events="none"/><path d="M 41 23 L 41 23" fill="none" stroke="#000000" stroke-miterlimit="10" pointer-events="none"/><path d="M 31 23 L 31 23" fill="none" stroke="#000000" stroke-miterlimit="10" pointer-events="none"/><rect x="51" y="21" width="10" height="10" fill="#eaeaea" stroke="#000000" pointer-events="none"/><path d="M 61 23 L 61 23" fill="none" stroke="#000000" stroke-miterlimit="10" pointer-events="none"/><path d="M 51 23 L 51 23" fill="none" stroke="#000000" stroke-miterlimit="10" pointer-events="none"/><rect x="51" y="61" width="10" height="10" fill="#eaeaea" stroke="#000000" pointer-events="none"/><path d="M 61 63 L 61 63" fill="none" stroke="#000000" stroke-miterlimit="10" pointer-events="none"/><path d="M 51 63 L 51 63" fill="none" stroke="#000000" stroke-miterlimit="10" pointer-events="none"/><rect x="31" y="61" width="10" height="10" fill="#eaeaea" stroke="#000000" pointer-events="none"/><path d="M 41 63 L 41 63" fill="none" stroke="#000000" stroke-miterlimit="10" pointer-events="none"/><path d="M 31 63 L 31 63" fill="none" stroke="#000000" stroke-miterlimit="10" pointer-events="none"/><rect x="21" y="31" width="10" height="10" fill="#a5a5a5" stroke="#000000" pointer-events="none"/><path d="M 31 33 L 31 33" fill="none" stroke="#000000" stroke-miterlimit="10" pointer-events="none"/><path d="M 21 33 L 21 33" fill="none" stroke="#000000" stroke-miterlimit="10" pointer-events="none"/><rect x="21" y="51" width="10" height="10" fill="#a5a5a5" stroke="#000000" pointer-events="none"/><path d="M 31 53 L 31 53" fill="none" stroke="#000000" stroke-miterlimit="10" pointer-events="none"/><path d="M 21 53 L 21 53" fill="none" stroke="#000000" stroke-miterlimit="10" pointer-events="none"/><rect x="61" y="51" width="10" height="10" fill="#a5a5a5" stroke="#000000" pointer-events="none"/><path d="M 71 53 L 71 53" fill="none" stroke="#000000" stroke-miterlimit="10" pointer-events="none"/><path d="M 61 53 L 61 53" fill="none" stroke="#000000" stroke-miterlimit="10" pointer-events="none"/><rect x="61" y="31" width="10" height="10" fill="#a5a5a5" stroke="#000000" pointer-events="none"/><path d="M 71 33 L 71 33" fill="none" stroke="#000000" stroke-miterlimit="10" pointer-events="none"/><path d="M 61 33 L 61 33" fill="none" stroke="#000000" stroke-miterlimit="10" pointer-events="none"/><rect x="61" y="21" width="10" height="10" fill="#c6c6c6" stroke="#000000" pointer-events="none"/><path d="M 71 23 L 71 23" fill="none" stroke="#000000" stroke-miterlimit="10" pointer-events="none"/><path d="M 61 23 L 61 23" fill="none" stroke="#000000" stroke-miterlimit="10" pointer-events="none"/><rect x="61" y="61" width="10" height="10" fill="#c6c6c6" stroke="#000000" pointer-events="none"/><path d="M 71 63 L 71 63" fill="none" stroke="#000000" stroke-miterlimit="10" pointer-events="none"/><path d="M 61 63 L 61 63" fill="none" stroke="#000000" stroke-miterlimit="10" pointer-events="none"/><rect x="21" y="61" width="10" height="10" fill="#c6c6c6" stroke="#000000" pointer-events="none"/><path d="M 31 63 L 31 63" fill="none" stroke="#000000" stroke-miterlimit="10" pointer-events="none"/><path d="M 21 63 L 21 63" fill="none" stroke="#000000" stroke-miterlimit="10" pointer-events="none"/><rect x="21" y="21" width="10" height="10" fill="#c6c6c6" stroke="#000000" pointer-events="none"/><path d="M 31 23 L 31 23" fill="none" stroke="#000000" stroke-miterlimit="10" pointer-events="none"/><path d="M 21 23 L 21 23" fill="none" stroke="#000000" stroke-miterlimit="10" pointer-events="none"/><rect x="11" y="11" width="10" height="10" fill="#b1b1b1" stroke="#000000" pointer-events="none"/><path d="M 21 13 L 21 13" fill="none" stroke="#000000" stroke-miterlimit="10" pointer-events="none"/><path d="M 11 13 L 11 13" fill="none" stroke="#000000" stroke-miterlimit="10" pointer-events="none"/><rect x="21" y="11" width="10" height="10" fill="#bababa" stroke="#000000" pointer-events="none"/><path d="M 31 13 L 31 13" fill="none" stroke="#000000" stroke-miterlimit="10" pointer-events="none"/><path d="M 21 13 L 21 13" fill="none" stroke="#000000" stroke-miterlimit="10" pointer-events="none"/><rect x="31" y="11" width="10" height="10" fill="#cecece" stroke="#000000" pointer-events="none"/><path d="M 41 13 L 41 13" fill="none" stroke="#000000" stroke-miterlimit="10" pointer-events="none"/><path d="M 31 13 L 31 13" fill="none" stroke="#000000" stroke-miterlimit="10" pointer-events="none"/><rect x="41" y="11" width="10" height="10" fill="#dadada" stroke="#000000" pointer-events="none"/><path d="M 51 13 L 51 13" fill="none" stroke="#000000" stroke-miterlimit="10" pointer-events="none"/><path d="M 41 13 L 41 13" fill="none" stroke="#000000" stroke-miterlimit="10" pointer-events="none"/><path d="M 11 13 L 11 13" fill="none" stroke="#000000" stroke-miterlimit="10" pointer-events="none"/><rect x="51" y="11" width="10" height="10" fill="#cecece" stroke="#000000" pointer-events="none"/><rect x="61" y="11" width="10" height="10" fill="#bababa" stroke="#000000" pointer-events="none"/><rect x="71" y="11" width="10" height="10" fill="#b1b1b1" stroke="#000000" pointer-events="none"/><rect x="11" y="71" width="10" height="10" fill="#b1b1b1" stroke="#000000" pointer-events="none"/><path d="M 21 73 L 21 73" fill="none" stroke="#000000" stroke-miterlimit="10" pointer-events="none"/><path d="M 11 73 L 11 73" fill="none" stroke="#000000" stroke-miterlimit="10" pointer-events="none"/><rect x="21" y="71" width="10" height="10" fill="#bababa" stroke="#000000" pointer-events="none"/><path d="M 31 73 L 31 73" fill="none" stroke="#000000" stroke-miterlimit="10" pointer-events="none"/><path d="M 21 73 L 21 73" fill="none" stroke="#000000" stroke-miterlimit="10" pointer-events="none"/><rect x="31" y="71" width="10" height="10" fill="#cecece" stroke="#000000" pointer-events="none"/><path d="M 41 73 L 41 73" fill="none" stroke="#000000" stroke-miterlimit="10" pointer-events="none"/><path d="M 31 73 L 31 73" fill="none" stroke="#000000" stroke-miterlimit="10" pointer-events="none"/><rect x="41" y="71" width="10" height="10" fill="#dadada" stroke="#000000" pointer-events="none"/><path d="M 51 73 L 51 73" fill="none" stroke="#000000" stroke-miterlimit="10" pointer-events="none"/><path d="M 41 73 L 41 73" fill="none" stroke="#000000" stroke-miterlimit="10" pointer-events="none"/><path d="M 11 73 L 11 73" fill="none" stroke="#000000" stroke-miterlimit="10" pointer-events="none"/><rect x="51" y="71" width="10" height="10" fill="#cecece" stroke="#000000" pointer-events="none"/><rect x="61" y="71" width="10" height="10" fill="#bababa" stroke="#000000" pointer-events="none"/><rect x="71" y="71" width="10" height="10" fill="#b1b1b1" stroke="#000000" pointer-events="none"/><rect x="31" y="1" width="10" height="10" fill="#b6b6b6" stroke="#000000" pointer-events="none"/><rect x="51" y="1" width="10" height="10" fill="#b6b6b6" stroke="#000000" pointer-events="none"/><rect x="41" y="1" width="10" height="10" fill="#bababa" stroke="#000000" pointer-events="none"/><rect x="31" y="81" width="10" height="10" fill="#b6b6b6" stroke="#000000" pointer-events="none"/><rect x="51" y="81" width="10" height="10" fill="#b6b6b6" stroke="#000000" pointer-events="none"/><rect x="41" y="81" width="10" height="10" fill="#bababa" stroke="#000000" pointer-events="none"/><rect x="301" y="1" width="10" height="10" fill="#ffffff" stroke="#000000" pointer-events="none"/><rect x="311" y="11" width="10" height="10" fill="#ffffff" stroke="#000000" pointer-events="none"/><rect x="321" y="21" width="10" height="10" fill="#ffffff" stroke="#000000" pointer-events="none"/><rect x="311" y="1" width="10" height="10" fill="#ffffff" stroke="#000000" pointer-events="none"/><rect x="321" y="11" width="10" height="10" fill="#ffffff" stroke="#000000" pointer-events="none"/><rect x="331" y="21" width="10" height="10" fill="#ffffff" stroke="#000000" pointer-events="none"/><rect x="321" y="1" width="10" height="10" fill="#ffffff" stroke="#000000" pointer-events="none"/><rect x="331" y="11" width="10" height="10" fill="#ffffff" stroke="#000000" pointer-events="none"/><rect x="331" y="1" width="10" height="10" fill="#ffffff" stroke="#000000" pointer-events="none"/><rect x="341" y="11" width="10" height="10" fill="#ffffff" stroke="#000000" pointer-events="none"/><rect x="341" y="21" width="10" height="10" fill="#ffffff" stroke="#000000" pointer-events="none"/><rect x="311" y="21" width="10" height="10" fill="#ffffff" stroke="#000000" pointer-events="none"/><rect x="301" y="21" width="10" height="10" fill="#ffffff" stroke="#000000" pointer-events="none"/><rect x="301" y="11" width="10" height="10" fill="#ffffff" stroke="#000000" pointer-events="none"/><rect x="341" y="1" width="10" height="10" fill="#ffffff" stroke="#000000" pointer-events="none"/><rect x="301" y="31" width="10" height="10" fill="#000000" stroke="#000000" pointer-events="none"/><rect x="311" y="31" width="10" height="10" fill="#000000" stroke="#000000" pointer-events="none"/><rect x="321" y="31" width="10" height="10" fill="#000000" stroke="#000000" pointer-events="none"/><rect x="331" y="31" width="10" height="10" fill="#000000" stroke="#000000" pointer-events="none"/><rect x="341" y="31" width="10" height="10" fill="#000000" stroke="#000000" pointer-events="none"/><rect x="301" y="41" width="10" height="10" fill="#000000" stroke="#000000" pointer-events="none"/><rect x="311" y="41" width="10" height="10" fill="#000000" stroke="#000000" pointer-events="none"/><rect x="321" y="41" width="10" height="10" fill="#000000" stroke="#000000" pointer-events="none"/><rect x="331" y="41" width="10" height="10" fill="#000000" stroke="#000000" pointer-events="none"/><rect x="341" y="41" width="10" height="10" fill="#000000" stroke="#000000" pointer-events="none"/><rect x="301" y="51" width="10" height="10" fill="#000000" stroke="#000000" pointer-events="none"/><rect x="311" y="51" width="10" height="10" fill="#000000" stroke="#000000" pointer-events="none"/><rect x="321" y="51" width="10" height="10" fill="#000000" stroke="#000000" pointer-events="none"/><rect x="331" y="51" width="10" height="10" fill="#000000" stroke="#000000" pointer-events="none"/><rect x="341" y="51" width="10" height="10" fill="#000000" stroke="#000000" pointer-events="none"/><rect x="301" y="61" width="10" height="10" fill="#ffffff" stroke="#000000" pointer-events="none"/><rect x="311" y="61" width="10" height="10" fill="#ffffff" stroke="#000000" pointer-events="none"/><rect x="321" y="61" width="10" height="10" fill="#ffffff" stroke="#000000" pointer-events="none"/><rect x="331" y="61" width="10" height="10" fill="#ffffff" stroke="#000000" pointer-events="none"/><rect x="341" y="61" width="10" height="10" fill="#ffffff" stroke="#000000" pointer-events="none"/><rect x="301" y="71" width="10" height="10" fill="#ffffff" stroke="#000000" pointer-events="none"/><rect x="311" y="71" width="10" height="10" fill="#ffffff" stroke="#000000" pointer-events="none"/><rect x="321" y="71" width="10" height="10" fill="#ffffff" stroke="#000000" pointer-events="none"/><rect x="331" y="71" width="10" height="10" fill="#ffffff" stroke="#000000" pointer-events="none"/><rect x="341" y="71" width="10" height="10" fill="#ffffff" stroke="#000000" pointer-events="none"/><rect x="301" y="81" width="10" height="10" fill="#ffffff" stroke="#000000" pointer-events="none"/><rect x="311" y="81" width="10" height="10" fill="#ffffff" stroke="#000000" pointer-events="none"/><rect x="321" y="81" width="10" height="10" fill="#ffffff" stroke="#000000" pointer-events="none"/><rect x="331" y="81" width="10" height="10" fill="#ffffff" stroke="#000000" pointer-events="none"/><rect x="341" y="81" width="10" height="10" fill="#ffffff" stroke="#000000" pointer-events="none"/><rect x="431" y="11" width="10" height="10" fill="#ffffff" stroke="#000000" pointer-events="none"/><rect x="441" y="21" width="10" height="10" fill="#ffffff" stroke="#000000" pointer-events="none"/><rect x="441" y="11" width="10" height="10" fill="#ffffff" stroke="#000000" pointer-events="none"/><rect x="451" y="21" width="10" height="10" fill="#ffffff" stroke="#000000" pointer-events="none"/><rect x="451" y="11" width="10" height="10" fill="#ffffff" stroke="#000000" pointer-events="none"/><rect x="431" y="31" width="10" height="10" fill="#ffffff" stroke="#000000" pointer-events="none"/><rect x="441" y="31" width="10" height="10" fill="#ffffff" stroke="#000000" pointer-events="none"/><rect x="451" y="31" width="10" height="10" fill="#ffffff" stroke="#000000" pointer-events="none"/><rect x="431" y="21" width="10" height="10" fill="#ffffff" stroke="#000000" pointer-events="none"/><rect x="491" y="71" width="10" height="10" fill="#ffffff" stroke="#000000" pointer-events="none"/><rect x="491" y="61" width="10" height="10" fill="#ffffff" stroke="#000000" pointer-events="none"/><rect x="491" y="51" width="10" height="10" fill="#ffffff" stroke="#000000" pointer-events="none"/><rect x="481" y="51" width="10" height="10" fill="#ffffff" stroke="#000000" pointer-events="none"/><rect x="481" y="71" width="10" height="10" fill="#ffffff" stroke="#000000" pointer-events="none"/><rect x="481" y="61" width="10" height="10" fill="#ffffff" stroke="#000000" pointer-events="none"/><rect x="471" y="71" width="10" height="10" fill="#ffffff" stroke="#000000" pointer-events="none"/><rect x="471" y="61" width="10" height="10" fill="#ffffff" stroke="#000000" pointer-events="none"/><rect x="471" y="51" width="10" height="10" fill="#ffffff" stroke="#000000" pointer-events="none"/><rect x="431" y="51" width="10" height="10" fill="#000000" stroke="#000000" pointer-events="none"/><rect x="441" y="51" width="10" height="10" fill="#000000" stroke="#000000" pointer-events="none"/><rect x="451" y="51" width="10" height="10" fill="#000000" stroke="#000000" pointer-events="none"/><rect x="431" y="61" width="10" height="10" fill="#000000" stroke="#000000" pointer-events="none"/><rect x="441" y="61" width="10" height="10" fill="#000000" stroke="#000000" pointer-events="none"/><rect x="451" y="61" width="10" height="10" fill="#000000" stroke="#000000" pointer-events="none"/><rect x="431" y="71" width="10" height="10" fill="#000000" stroke="#000000" pointer-events="none"/><rect x="441" y="71" width="10" height="10" fill="#000000" stroke="#000000" pointer-events="none"/><rect x="451" y="71" width="10" height="10" fill="#000000" stroke="#000000" pointer-events="none"/><rect x="471" y="11" width="10" height="10" fill="#000000" stroke="#000000" pointer-events="none"/><rect x="481" y="11" width="10" height="10" fill="#000000" stroke="#000000" pointer-events="none"/><rect x="491" y="11" width="10" height="10" fill="#000000" stroke="#000000" pointer-events="none"/><rect x="471" y="21" width="10" height="10" fill="#000000" stroke="#000000" pointer-events="none"/><rect x="481" y="21" width="10" height="10" fill="#000000" stroke="#000000" pointer-events="none"/><rect x="491" y="21" width="10" height="10" fill="#000000" stroke="#000000" pointer-events="none"/><rect x="471" y="31" width="10" height="10" fill="#000000" stroke="#000000" pointer-events="none"/><rect x="481" y="31" width="10" height="10" fill="#000000" stroke="#000000" pointer-events="none"/><rect x="491" y="31" width="10" height="10" fill="#000000" stroke="#000000" pointer-events="none"/><rect x="301" y="31" width="50" height="30" fill="none" stroke="none" pointer-events="none"/><g fill="#ffffff" font-family="Helvetica" text-anchor="middle" font-size="12px"><text x="326" y="50">-2</text></g><rect x="301" y="61" width="50" height="30" fill="none" stroke="none" pointer-events="none"/><g fill="#000000" font-family="Helvetica" text-anchor="middle" font-size="12px"><text x="326" y="80">1</text></g><rect x="301" y="1" width="50" height="30" fill="none" stroke="none" pointer-events="none"/><g fill="#000000" font-family="Helvetica" text-anchor="middle" font-size="12px"><text x="326" y="20">1</text></g><rect x="431" y="11" width="30" height="30" fill="none" stroke="none" pointer-events="none"/><g fill="#000000" font-family="Helvetica" text-anchor="middle" font-size="12px"><text x="446" y="30">1</text></g><rect x="471" y="51" width="30" height="30" fill="none" stroke="none" pointer-events="none"/><g fill="#000000" font-family="Helvetica" text-anchor="middle" font-size="12px"><text x="486" y="70">1</text></g><rect x="431" y="51" width="30" height="30" fill="none" stroke="none" pointer-events="none"/><g fill="#ffffff" font-family="Helvetica" text-anchor="middle" font-size="12px"><text x="446" y="70">-1</text></g><rect x="471" y="11" width="30" height="30" fill="none" stroke="none" pointer-events="none"/><g fill="#ffffff" font-family="Helvetica" text-anchor="middle" font-size="12px"><text x="486" y="30">-1</text></g><rect x="1" y="101" width="90" height="20" fill="none" stroke="none" pointer-events="none"/><g fill="#000000" font-family="Helvetica" text-anchor="middle" font-size="10px"><text x="46" y="114">(a)</text></g><path d="M 69 121 L 69 121" fill="none" stroke="#000000" stroke-miterlimit="10" pointer-events="none"/><rect x="141" y="101" width="90" height="20" fill="none" stroke="none" pointer-events="none"/><g fill="#000000" font-family="Helvetica" text-anchor="middle" font-size="10px"><text x="186" y="114">(b)</text></g><rect x="281" y="101" width="90" height="20" fill="none" stroke="none" pointer-events="none"/><g fill="#000000" font-family="Helvetica" text-anchor="middle" font-size="10px"><text x="326" y="114">(c)</text></g><rect x="421" y="101" width="90" height="20" fill="none" stroke="none" pointer-events="none"/><g fill="#000000" font-family="Helvetica" text-anchor="middle" font-size="10px"><text x="466" y="114">(d)</text></g></g></svg>