<svg xmlns="http://www.w3.org/2000/svg" xmlns:xlink="http://www.w3.org/1999/xlink" width="509px" height="208px" version="1.1"><defs/><g transform="translate(0.5,0.5)"><ellipse cx="102" cy="96" rx="75" ry="50" fill="#ffffff" stroke="#000000" pointer-events="none"/><path d="M 77 86 L 97 96 L 77 106 Z" fill="#00cc00" stroke="none" transform="rotate(-90,87,96)" pointer-events="none"/><path d="M 87 51 L 107 61 L 87 71 Z" fill="#00cc00" stroke="none" transform="rotate(-90,97,61)" pointer-events="none"/><path d="M 117 81 L 137 91 L 117 101 Z" fill="#00cc00" stroke="none" transform="rotate(-90,127,91)" pointer-events="none"/><path d="M 107 111 L 127 121 L 107 131 Z" fill="#00cc00" stroke="none" transform="rotate(-90,117,121)" pointer-events="none"/><path d="M 137 71 L 157 81 L 137 91 Z" fill="#00cc00" stroke="none" transform="rotate(-90,147,81)" pointer-events="none"/><path d="M 47 71 L 67 81 L 47 91 Z" fill="#00cc00" stroke="none" transform="rotate(-90,57,81)" pointer-events="none"/><path d="M 57 101 L 77 111 L 57 121 Z" fill="#00cc00" stroke="none" transform="rotate(-90,67,111)" pointer-events="none"/><path d="M 137 101 L 157 111 L 137 121 Z" fill="#00cc00" stroke="none" transform="rotate(-90,147,111)" pointer-events="none"/><rect x="187" y="66" width="20" height="20" fill="#0000cc" stroke="none" pointer-events="none"/><rect x="153" y="32" width="20" height="20" fill="#0000cc" stroke="none" pointer-events="none"/><rect x="103" y="12" width="20" height="20" fill="#0000cc" stroke="none" pointer-events="none"/><rect x="43" y="22" width="20" height="20" fill="#0000cc" stroke="none" pointer-events="none"/><rect x="3" y="52" width="20" height="20" fill="#0000cc" stroke="none" pointer-events="none"/><rect x="3" y="102" width="20" height="20" fill="#0000cc" stroke="none" pointer-events="none"/><rect x="34" y="140" width="20" height="20" fill="#0000cc" stroke="none" pointer-events="none"/><rect x="74" y="150" width="20" height="20" fill="#0000cc" stroke="none" pointer-events="none"/><rect x="154" y="140" width="20" height="20" fill="#0000cc" stroke="none" pointer-events="none"/><rect x="184" y="110" width="20" height="20" fill="#0000cc" stroke="none" pointer-events="none"/><rect x="114" y="150" width="20" height="20" fill="#0000cc" stroke="none" pointer-events="none"/><path d="M 237 96 L 331 96" fill="none" stroke="#000000" stroke-miterlimit="10" pointer-events="none"/><path d="M 336 96 L 329 100 L 331 96 L 329 93 Z" fill="#000000" stroke="#000000" stroke-miterlimit="10" pointer-events="none"/><rect x="247" y="66" width="80" height="25" fill="none" stroke="none" pointer-events="none"/><g fill="#000000" font-family="Times New Roman" font-weight="bold" text-anchor="middle" font-size="18px"><text x="287" y="86">ϕ</text></g><rect x="1" y="186" width="206" height="20" fill="none" stroke="none" pointer-events="none"/><g fill="#000000" font-family="Arial" font-weight="bold" text-anchor="middle" font-size="12px"><text x="104" y="200">Przestrzeń wejściowa</text></g><path d="M 367 171 L 467 1" fill="none" stroke="#000000" stroke-miterlimit="10" pointer-events="none"/><rect x="393" y="152" width="20" height="20" fill="#0000cc" stroke="none" pointer-events="none"/><rect x="403" y="122" width="20" height="20" fill="#0000cc" stroke="none" pointer-events="none"/><rect x="423" y="92" width="20" height="20" fill="#0000cc" stroke="none" pointer-events="none"/><rect x="443" y="62" width="20" height="20" fill="#0000cc" stroke="none" pointer-events="none"/><rect x="463" y="32" width="20" height="20" fill="#0000cc" stroke="none" pointer-events="none"/><rect x="473" y="62" width="20" height="20" fill="#0000cc" stroke="none" pointer-events="none"/><rect x="453" y="92" width="20" height="20" fill="#0000cc" stroke="none" pointer-events="none"/><rect x="433" y="122" width="20" height="20" fill="#0000cc" stroke="none" pointer-events="none"/><rect x="433" y="152" width="20" height="20" fill="#0000cc" stroke="none" pointer-events="none"/><rect x="463" y="122" width="20" height="20" fill="#0000cc" stroke="none" pointer-events="none"/><rect x="483" y="92" width="20" height="20" fill="#0000cc" stroke="none" pointer-events="none"/><path d="M 357 121 L 377 131 L 357 141 Z" fill="#00cc00" stroke="none" transform="rotate(-90,367,131)" pointer-events="none"/><path d="M 357 81 L 377 91 L 357 101 Z" fill="#00cc00" stroke="none" transform="rotate(-90,367,91)" pointer-events="none"/><path d="M 377 91 L 397 101 L 377 111 Z" fill="#00cc00" stroke="none" transform="rotate(-90,387,101)" pointer-events="none"/><path d="M 387 61 L 407 71 L 387 81 Z" fill="#00cc00" stroke="none" transform="rotate(-90,397,71)" pointer-events="none"/><path d="M 407 41 L 427 51 L 407 61 Z" fill="#00cc00" stroke="none" transform="rotate(-90,417,51)" pointer-events="none"/><path d="M 427 11 L 447 21 L 427 31 Z" fill="#00cc00" stroke="none" transform="rotate(-90,437,21)" pointer-events="none"/><path d="M 387 21 L 407 31 L 387 41 Z" fill="#00cc00" stroke="none" transform="rotate(-90,397,31)" pointer-events="none"/><path d="M 357 41 L 377 51 L 357 61 Z" fill="#00cc00" stroke="none" transform="rotate(-90,367,51)" pointer-events="none"/><rect x="357" y="186" width="150" height="20" fill="none" stroke="none" pointer-events="none"/><g fill="#000000" font-family="Arial" font-weight="bold" text-anchor="middle" font-size="12px"><text x="432" y="200">Przestrzeń cech</text></g></g></svg>