<?xml version="1.0" encoding="UTF-8" standalone="no"?>
<svg
   xmlns:dc="http://purl.org/dc/elements/1.1/"
   xmlns:cc="http://creativecommons.org/ns#"
   xmlns:rdf="http://www.w3.org/1999/02/22-rdf-syntax-ns#"
   xmlns:svg="http://www.w3.org/2000/svg"
   xmlns="http://www.w3.org/2000/svg"
   xmlns:sodipodi="http://sodipodi.sourceforge.net/DTD/sodipodi-0.dtd"
   xmlns:inkscape="http://www.inkscape.org/namespaces/inkscape"
   width="749px"
   height="163px"
   version="1.1"
   id="svg3163"
   inkscape:version="0.48.5 r10040"
   sodipodi:docname="unsupervised-learning.svg">
  <metadata
     id="metadata3339">
    <rdf:RDF>
      <cc:Work
         rdf:about="">
        <dc:format>image/svg+xml</dc:format>
        <dc:type
           rdf:resource="http://purl.org/dc/dcmitype/StillImage" />
      </cc:Work>
    </rdf:RDF>
  </metadata>
  <sodipodi:namedview
     pagecolor="#ffffff"
     bordercolor="#666666"
     borderopacity="1"
     objecttolerance="10"
     gridtolerance="10"
     guidetolerance="10"
     inkscape:pageopacity="0"
     inkscape:pageshadow="2"
     inkscape:window-width="1920"
     inkscape:window-height="1018"
     id="namedview3337"
     showgrid="false"
     inkscape:zoom="2.3497997"
     inkscape:cx="374.5"
     inkscape:cy="64.477273"
     inkscape:window-x="-8"
     inkscape:window-y="-8"
     inkscape:window-maximized="1"
     inkscape:current-layer="g3167" />
  <defs
     id="defs3165" />
  <g
     transform="translate(0.5,0.5)"
     id="g3167">
    <rect
       x="1"
       y="1"
       width="150"
       height="160"
       fill="#ffffff"
       stroke="#000000"
       pointer-events="none"
       id="rect3169" />
    <path
       d="M 6 16 L 26 26 L 6 36 Z"
       fill="#ffffff"
       stroke="#000000"
       stroke-miterlimit="10"
       transform="rotate(-90,16,26)"
       pointer-events="none"
       id="path3171" />
    <path
       d="M 46 111 L 66 121 L 46 131 Z"
       fill="#ffffff"
       stroke="#000000"
       stroke-miterlimit="10"
       transform="rotate(-90,56,121)"
       pointer-events="none"
       id="path3173" />
    <path
       d="M 91 36 L 111 46 L 91 56 Z"
       fill="#ffffff"
       stroke="#000000"
       stroke-miterlimit="10"
       transform="rotate(-90,101,46)"
       pointer-events="none"
       id="path3175" />
    <path
       d="M 66 71 L 86 81 L 66 91 Z"
       fill="#ffffff"
       stroke="#000000"
       stroke-miterlimit="10"
       transform="rotate(-90,76,81)"
       pointer-events="none"
       id="path3177" />
    <path
       d="M 16 66 L 36 76 L 16 86 Z"
       fill="#ffffff"
       stroke="#000000"
       stroke-miterlimit="10"
       transform="rotate(-90,26,76)"
       pointer-events="none"
       id="path3179" />
    <path
       d="M 111 6 L 131 16 L 111 26 Z"
       fill="#ffffff"
       stroke="#000000"
       stroke-miterlimit="10"
       transform="rotate(-90,121,16)"
       pointer-events="none"
       id="path3181" />
    <path
       d="M 111 131 L 131 141 L 111 151 Z"
       fill="#ffffff"
       stroke="#000000"
       stroke-miterlimit="10"
       transform="rotate(-90,121,141)"
       pointer-events="none"
       id="path3183" />
    <ellipse
       cx="56"
       cy="46"
       rx="10"
       ry="10"
       fill="#ffffff"
       stroke="#000000"
       pointer-events="none"
       id="ellipse3185"
       d="m 66,46 c 0,5.522847 -4.477153,10 -10,10 -5.522847,0 -10,-4.477153 -10,-10 0,-5.522847 4.477153,-10 10,-10 5.522847,0 10,4.477153 10,10 z" />
    <ellipse
       cx="111"
       cy="101"
       rx="10"
       ry="10"
       fill="#ffffff"
       stroke="#000000"
       pointer-events="none"
       id="ellipse3187"
       d="m 121,101 c 0,5.52285 -4.47715,10 -10,10 -5.52285,0 -10,-4.47715 -10,-10 0,-5.522847 4.47715,-10 10,-10 5.52285,0 10,4.477153 10,10 z" />
    <ellipse
       cx="56"
       cy="91"
       rx="10"
       ry="10"
       fill="#ffffff"
       stroke="#000000"
       pointer-events="none"
       id="ellipse3189"
       d="m 66,91 c 0,5.522847 -4.477153,10 -10,10 -5.522847,0 -10,-4.477153 -10,-10 0,-5.522847 4.477153,-10 10,-10 5.522847,0 10,4.477153 10,10 z" />
    <ellipse
       cx="86"
       cy="26"
       rx="10"
       ry="10"
       fill="#ffffff"
       stroke="#000000"
       pointer-events="none"
       id="ellipse3191"
       d="m 96,26 c 0,5.522847 -4.477153,10 -10,10 -5.522847,0 -10,-4.477153 -10,-10 0,-5.522847 4.477153,-10 10,-10 5.522847,0 10,4.477153 10,10 z" />
    <ellipse
       cx="36"
       cy="111"
       rx="10"
       ry="10"
       fill="#ffffff"
       stroke="#000000"
       pointer-events="none"
       id="ellipse3193"
       d="m 46,111 c 0,5.52285 -4.477153,10 -10,10 -5.522847,0 -10,-4.47715 -10,-10 0,-5.52285 4.477153,-10 10,-10 5.522847,0 10,4.47715 10,10 z" />
    <ellipse
       cx="131"
       cy="71"
       rx="10"
       ry="10"
       fill="#ffffff"
       stroke="#000000"
       pointer-events="none"
       id="ellipse3195"
       d="m 141,71 c 0,5.522847 -4.47715,10 -10,10 -5.52285,0 -10,-4.477153 -10,-10 0,-5.522847 4.47715,-10 10,-10 5.52285,0 10,4.477153 10,10 z" />
    <rect
       x="31"
       y="6"
       width="20"
       height="20"
       fill="#ffffff"
       stroke="#000000"
       pointer-events="none"
       id="rect3197" />
    <rect
       x="76"
       y="131"
       width="20"
       height="20"
       fill="#ffffff"
       stroke="#000000"
       pointer-events="none"
       id="rect3199" />
    <rect
       x="16"
       y="131"
       width="20"
       height="20"
       fill="#ffffff"
       stroke="#000000"
       pointer-events="none"
       id="rect3201" />
    <rect
       x="121"
       y="36"
       width="20"
       height="20"
       fill="#ffffff"
       stroke="#000000"
       pointer-events="none"
       id="rect3203" />
    <rect
       x="201"
       y="51"
       width="120"
       height="60"
       fill="#ffffff"
       stroke="#000000"
       pointer-events="none"
       id="rect3205" />
    <g
       transform="translate(232,73)"
       id="g3207" />
    <path
       d="M 151 81 L 195 81"
       fill="none"
       stroke="#000000"
       stroke-miterlimit="10"
       pointer-events="none"
       id="path3215" />
    <path
       d="M 200 81 L 193 85 L 195 81 L 193 78 Z"
       fill="#000000"
       stroke="#000000"
       stroke-miterlimit="10"
       pointer-events="none"
       id="path3217" />
    <rect
       x="361"
       y="6"
       width="130"
       height="50"
       fill="#ffffff"
       stroke="#000000"
       pointer-events="none"
       id="rect3219" />
    <rect
       x="361"
       y="56"
       width="130"
       height="50"
       fill="#ffffff"
       stroke="#000000"
       pointer-events="none"
       id="rect3221" />
    <rect
       x="361"
       y="106"
       width="130"
       height="50"
       fill="#ffffff"
       stroke="#000000"
       pointer-events="none"
       id="rect3223" />
    <path
       d="M 371 11 L 391 21 L 371 31 Z"
       fill="#ffffff"
       stroke="#000000"
       stroke-miterlimit="10"
       transform="rotate(-90,381,21)"
       pointer-events="none"
       id="path3225" />
    <path
       d="M 401 11 L 421 21 L 401 31 Z"
       fill="#ffffff"
       stroke="#000000"
       stroke-miterlimit="10"
       transform="rotate(-90,411,21)"
       pointer-events="none"
       id="path3227" />
    <path
       d="M 431 11 L 451 21 L 431 31 Z"
       fill="#ffffff"
       stroke="#000000"
       stroke-miterlimit="10"
       transform="rotate(-90,441,21)"
       pointer-events="none"
       id="path3229" />
    <path
       d="M 371 33 L 391 43 L 371 53 Z"
       fill="#ffffff"
       stroke="#000000"
       stroke-miterlimit="10"
       transform="rotate(-90,381,43)"
       pointer-events="none"
       id="path3231" />
    <path
       d="M 401 33 L 421 43 L 401 53 Z"
       fill="#ffffff"
       stroke="#000000"
       stroke-miterlimit="10"
       transform="rotate(-90,411,43)"
       pointer-events="none"
       id="path3233" />
    <path
       d="M 431 33 L 451 43 L 431 53 Z"
       fill="#ffffff"
       stroke="#000000"
       stroke-miterlimit="10"
       transform="rotate(-90,441,43)"
       pointer-events="none"
       id="path3235" />
    <rect
       x="371"
       y="65"
       width="20"
       height="20"
       fill="#ffffff"
       stroke="#000000"
       pointer-events="none"
       id="rect3237" />
    <rect
       x="401"
       y="81"
       width="20"
       height="20"
       fill="#ffffff"
       stroke="#000000"
       pointer-events="none"
       id="rect3239" />
    <rect
       x="431"
       y="66"
       width="20"
       height="20"
       fill="#ffffff"
       stroke="#000000"
       pointer-events="none"
       id="rect3241" />
    <rect
       x="461"
       y="81"
       width="20"
       height="20"
       fill="#ffffff"
       stroke="#000000"
       pointer-events="none"
       id="rect3243" />
    <ellipse
       cx="381"
       cy="122"
       rx="10"
       ry="10"
       fill="#ffffff"
       stroke="#000000"
       pointer-events="none"
       id="ellipse3245"
       d="m 391,122 c 0,5.52285 -4.47715,10 -10,10 -5.52285,0 -10,-4.47715 -10,-10 0,-5.52285 4.47715,-10 10,-10 5.52285,0 10,4.47715 10,10 z" />
    <ellipse
       cx="401"
       cy="142"
       rx="10"
       ry="10"
       fill="#ffffff"
       stroke="#000000"
       pointer-events="none"
       id="ellipse3247"
       d="m 411,142 c 0,5.52285 -4.47715,10 -10,10 -5.52285,0 -10,-4.47715 -10,-10 0,-5.52285 4.47715,-10 10,-10 5.52285,0 10,4.47715 10,10 z" />
    <ellipse
       cx="416"
       cy="122"
       rx="10"
       ry="10"
       fill="#ffffff"
       stroke="#000000"
       pointer-events="none"
       id="ellipse3249"
       d="m 426,122 c 0,5.52285 -4.47715,10 -10,10 -5.52285,0 -10,-4.47715 -10,-10 0,-5.52285 4.47715,-10 10,-10 5.52285,0 10,4.47715 10,10 z" />
    <ellipse
       cx="436"
       cy="142"
       rx="10"
       ry="10"
       fill="#ffffff"
       stroke="#000000"
       pointer-events="none"
       id="ellipse3251"
       d="m 446,142 c 0,5.52285 -4.47715,10 -10,10 -5.52285,0 -10,-4.47715 -10,-10 0,-5.52285 4.47715,-10 10,-10 5.52285,0 10,4.47715 10,10 z" />
    <ellipse
       cx="456"
       cy="122"
       rx="10"
       ry="10"
       fill="#ffffff"
       stroke="#000000"
       pointer-events="none"
       id="ellipse3253"
       d="m 466,122 c 0,5.52285 -4.47715,10 -10,10 -5.52285,0 -10,-4.47715 -10,-10 0,-5.52285 4.47715,-10 10,-10 5.52285,0 10,4.47715 10,10 z" />
    <ellipse
       cx="471"
       cy="142"
       rx="10"
       ry="10"
       fill="#ffffff"
       stroke="#000000"
       pointer-events="none"
       id="ellipse3255"
       d="m 481,142 c 0,5.52285 -4.47715,10 -10,10 -5.52285,0 -10,-4.47715 -10,-10 0,-5.52285 4.47715,-10 10,-10 5.52285,0 10,4.47715 10,10 z" />
    <path
       d="M 321 81 L 355 81"
       fill="none"
       stroke="#000000"
       stroke-miterlimit="10"
       pointer-events="none"
       id="path3257" />
    <path
       d="M 360 81 L 353 85 L 355 81 L 353 78 Z"
       fill="#000000"
       stroke="#000000"
       stroke-miterlimit="10"
       pointer-events="none"
       id="path3259" />
    <ellipse
       cx="566"
       cy="59"
       rx="7.5"
       ry="7.5"
       fill="#ffffff"
       stroke="#000000"
       pointer-events="none"
       id="ellipse3261"
       d="m 573.5,59 c 0,4.142136 -3.35786,7.5 -7.5,7.5 -4.14214,0 -7.5,-3.357864 -7.5,-7.5 0,-4.142136 3.35786,-7.5 7.5,-7.5 4.14214,0 7.5,3.357864 7.5,7.5 z" />
    <path
       d="M 566 66 L 566 91 M 566 71 L 551 71 M 566 71 L 581 71 M 566 91 L 551 111 M 566 91 L 581 111"
       fill="none"
       stroke="#000000"
       stroke-miterlimit="10"
       pointer-events="none"
       id="path3263" />
    <g
       fill="#000000"
       font-family="Helvetica"
       text-anchor="middle"
       font-size="12px"
       id="g3265">
      <text
         x="566"
         y="129"
         id="text3267">Ręczny przegląd</text>
    </g>
    <path
       d="M 491 81 L 545 81"
       fill="none"
       stroke="#000000"
       stroke-miterlimit="10"
       pointer-events="none"
       id="path3269" />
    <path
       d="M 550 81 L 543 85 L 545 81 L 543 78 Z"
       fill="#000000"
       stroke="#000000"
       stroke-miterlimit="10"
       pointer-events="none"
       id="path3271" />
    <rect
       x="616"
       y="6"
       width="130"
       height="50"
       fill="#ffffff"
       stroke="#000000"
       pointer-events="none"
       id="rect3273" />
    <rect
       x="616"
       y="56"
       width="130"
       height="50"
       fill="#ffffff"
       stroke="#000000"
       pointer-events="none"
       id="rect3275" />
    <rect
       x="616"
       y="106"
       width="130"
       height="50"
       fill="#ffffff"
       stroke="#000000"
       pointer-events="none"
       id="rect3277" />
    <path
       d="M 626 11 L 646 21 L 626 31 Z"
       fill="#ffffff"
       stroke="#000000"
       stroke-miterlimit="10"
       transform="rotate(-90,636,21)"
       pointer-events="none"
       id="path3279" />
    <path
       d="M 656 11 L 676 21 L 656 31 Z"
       fill="#ffffff"
       stroke="#000000"
       stroke-miterlimit="10"
       transform="rotate(-90,666,21)"
       pointer-events="none"
       id="path3281" />
    <path
       d="M 686 11 L 706 21 L 686 31 Z"
       fill="#ffffff"
       stroke="#000000"
       stroke-miterlimit="10"
       transform="rotate(-90,696,21)"
       pointer-events="none"
       id="path3283" />
    <path
       d="M 626 33 L 646 43 L 626 53 Z"
       fill="#ffffff"
       stroke="#000000"
       stroke-miterlimit="10"
       transform="rotate(-90,636,43)"
       pointer-events="none"
       id="path3285" />
    <path
       d="M 656 33 L 676 43 L 656 53 Z"
       fill="#ffffff"
       stroke="#000000"
       stroke-miterlimit="10"
       transform="rotate(-90,666,43)"
       pointer-events="none"
       id="path3287" />
    <path
       d="M 686 33 L 706 43 L 686 53 Z"
       fill="#ffffff"
       stroke="#000000"
       stroke-miterlimit="10"
       transform="rotate(-90,696,43)"
       pointer-events="none"
       id="path3289" />
    <rect
       x="626"
       y="65"
       width="20"
       height="20"
       fill="#ffffff"
       stroke="#000000"
       pointer-events="none"
       id="rect3291" />
    <rect
       x="649"
       y="81"
       width="20"
       height="20"
       fill="#ffffff"
       stroke="#000000"
       pointer-events="none"
       id="rect3293" />
    <rect
       x="671"
       y="59"
       width="20"
       height="20"
       fill="#ffffff"
       stroke="#000000"
       pointer-events="none"
       id="rect3295" />
    <rect
       x="678"
       y="81"
       width="20"
       height="20"
       fill="#ffffff"
       stroke="#000000"
       pointer-events="none"
       id="rect3297" />
    <ellipse
       cx="636"
       cy="122"
       rx="10"
       ry="10"
       fill="#ffffff"
       stroke="#000000"
       pointer-events="none"
       id="ellipse3299"
       d="m 646,122 c 0,5.52285 -4.47715,10 -10,10 -5.52285,0 -10,-4.47715 -10,-10 0,-5.52285 4.47715,-10 10,-10 5.52285,0 10,4.47715 10,10 z" />
    <ellipse
       cx="647"
       cy="142"
       rx="10"
       ry="10"
       fill="#ffffff"
       stroke="#000000"
       pointer-events="none"
       id="ellipse3301"
       d="m 657,142 c 0,5.52285 -4.47715,10 -10,10 -5.52285,0 -10,-4.47715 -10,-10 0,-5.52285 4.47715,-10 10,-10 5.52285,0 10,4.47715 10,10 z" />
    <ellipse
       cx="662"
       cy="122"
       rx="10"
       ry="10"
       fill="#ffffff"
       stroke="#000000"
       pointer-events="none"
       id="ellipse3303"
       d="m 672,122 c 0,5.52285 -4.47715,10 -10,10 -5.52285,0 -10,-4.47715 -10,-10 0,-5.52285 4.47715,-10 10,-10 5.52285,0 10,4.47715 10,10 z" />
    <ellipse
       cx="675"
       cy="142"
       rx="10"
       ry="10"
       fill="#ffffff"
       stroke="#000000"
       pointer-events="none"
       id="ellipse3305"
       d="m 685,142 c 0,5.52285 -4.47715,10 -10,10 -5.52285,0 -10,-4.47715 -10,-10 0,-5.52285 4.47715,-10 10,-10 5.52285,0 10,4.47715 10,10 z" />
    <ellipse
       cx="689"
       cy="122"
       rx="10"
       ry="10"
       fill="#ffffff"
       stroke="#000000"
       pointer-events="none"
       id="ellipse3307"
       d="m 699,122 c 0,5.52285 -4.47715,10 -10,10 -5.52285,0 -10,-4.47715 -10,-10 0,-5.52285 4.47715,-10 10,-10 5.52285,0 10,4.47715 10,10 z" />
    <ellipse
       cx="703"
       cy="142"
       rx="10"
       ry="10"
       fill="#ffffff"
       stroke="#000000"
       pointer-events="none"
       id="ellipse3309"
       d="m 713,142 c 0,5.52285 -4.47715,10 -10,10 -5.52285,0 -10,-4.47715 -10,-10 0,-5.52285 4.47715,-10 10,-10 5.52285,0 10,4.47715 10,10 z" />
    <path
       d="M 581 81 L 610 81"
       fill="none"
       stroke="#000000"
       stroke-miterlimit="10"
       pointer-events="none"
       id="path3311" />
    <path
       d="M 615 81 L 608 85 L 610 81 L 608 78 Z"
       fill="#000000"
       stroke="#000000"
       stroke-miterlimit="10"
       pointer-events="none"
       id="path3313" />
    <rect
       x="691"
       y="7"
       width="55"
       height="14"
       fill="none"
       stroke="none"
       pointer-events="none"
       id="rect3315" />
    <g
       fill="#000000"
       font-family="Helvetica"
       text-anchor="end"
       font-size="12px"
       id="g3317">
      <text
         x="744"
         y="18"
         id="text3319">Trójkąty</text>
    </g>
    <rect
       x="691"
       y="56"
       width="55"
       height="15"
       fill="none"
       stroke="none"
       pointer-events="none"
       id="rect3321" />
    <g
       fill="#000000"
       font-family="Helvetica"
       text-anchor="end"
       font-size="12px"
       id="g3323">
      <text
         x="744"
         y="68"
         id="text3325">Kwadraty</text>
    </g>
    <rect
       x="692"
       y="105"
       width="55"
       height="15"
       fill="none"
       stroke="none"
       pointer-events="none"
       id="rect3327" />
    <g
       fill="#000000"
       font-family="Helvetica"
       text-anchor="end"
       font-size="12px"
       id="g3329">
      <text
         x="745"
         y="117"
         id="text3331">Koła</text>
    </g>
    <path
       d="M 691 76 L 691 76"
       fill="none"
       stroke="#000000"
       stroke-miterlimit="10"
       pointer-events="none"
       id="path3333" />
    <path
       d="M 691 76 L 691 76 L 691 76 L 691 76 Z"
       fill="#000000"
       stroke="#000000"
       stroke-miterlimit="10"
       pointer-events="none"
       id="path3335" />
    <text
       xml:space="preserve"
       style="font-size:40px;font-style:normal;font-weight:normal;line-height:125%;letter-spacing:0px;word-spacing:0px;fill:#000000;fill-opacity:1;stroke:none;font-family:Sans"
       x="238.24376"
       y="84.195457"
       id="text3341"
       sodipodi:linespacing="125%"><tspan
         sodipodi:role="line"
         id="tspan3343"
         x="238.24376"
         y="84.195457"
         style="font-size:12px">Algorytm</tspan></text>
  </g>
</svg>
