<?xml version="1.0" encoding="UTF-8" standalone="no"?>
<svg
   xmlns:dc="http://purl.org/dc/elements/1.1/"
   xmlns:cc="http://creativecommons.org/ns#"
   xmlns:rdf="http://www.w3.org/1999/02/22-rdf-syntax-ns#"
   xmlns:svg="http://www.w3.org/2000/svg"
   xmlns="http://www.w3.org/2000/svg"
   xmlns:xlink="http://www.w3.org/1999/xlink"
   xmlns:sodipodi="http://sodipodi.sourceforge.net/DTD/sodipodi-0.dtd"
   xmlns:inkscape="http://www.inkscape.org/namespaces/inkscape"
   width="775"
   height="242"
   version="1.1"
   id="svg2"
   inkscape:version="0.48.5 r10040"
   sodipodi:docname="unsupervised-learning.svg">
  <metadata
     id="metadata201">
    <rdf:RDF>
      <cc:Work
         rdf:about="">
        <dc:format>image/svg+xml</dc:format>
        <dc:type
           rdf:resource="http://purl.org/dc/dcmitype/StillImage" />
        <dc:title />
      </cc:Work>
    </rdf:RDF>
  </metadata>
  <sodipodi:namedview
     pagecolor="#ffffff"
     bordercolor="#666666"
     borderopacity="1"
     objecttolerance="10"
     gridtolerance="10"
     guidetolerance="10"
     inkscape:pageopacity="0"
     inkscape:pageshadow="2"
     inkscape:window-width="1920"
     inkscape:window-height="1018"
     id="namedview199"
     showgrid="false"
     inkscape:zoom="1.7908163"
     inkscape:cx="433.63638"
     inkscape:cy="104.72819"
     inkscape:window-x="-8"
     inkscape:window-y="-8"
     inkscape:window-maximized="1"
     inkscape:current-layer="svg2" />
  <defs
     id="defs4">
    <linearGradient
       x1="0"
       y1="0"
       x2="0"
       y2="1"
       id="mx-gradient-ffffff-1-ffff33-1-s-0">
      <stop
         offset="0%"
         style="stop-color:#ffffff"
         id="stop7" />
      <stop
         offset="100%"
         style="stop-color:#FFFF33"
         id="stop9" />
    </linearGradient>
    <linearGradient
       inkscape:collect="always"
       xlink:href="#mx-gradient-ffffff-1-ffff33-1-s-0"
       id="linearGradient3085"
       x1="117.33626"
       y1="121.20933"
       x2="117.33626"
       y2="160.97112"
       gradientTransform="scale(1.2826384,0.77964295)"
       gradientUnits="userSpaceOnUse" />
    <linearGradient
       inkscape:collect="always"
       xlink:href="#mx-gradient-ffffff-1-ffff33-1-s-0"
       id="linearGradient3087"
       x1="257.672"
       y1="121.20933"
       x2="257.672"
       y2="160.97112"
       gradientTransform="scale(1.2826384,0.77964295)"
       gradientUnits="userSpaceOnUse" />
    <linearGradient
       inkscape:collect="always"
       xlink:href="#mx-gradient-ffffff-1-ffff33-1-s-0"
       id="linearGradient3089"
       x1="398.00772"
       y1="121.20933"
       x2="398.00772"
       y2="160.97112"
       gradientTransform="scale(1.2826384,0.77964295)"
       gradientUnits="userSpaceOnUse" />
    <linearGradient
       inkscape:collect="always"
       xlink:href="#mx-gradient-ffffff-1-ffff33-1-s-0"
       id="linearGradient3091"
       x1="460.37915"
       y1="121.20933"
       x2="460.37915"
       y2="160.97112"
       gradientTransform="scale(1.2826384,0.77964295)"
       gradientUnits="userSpaceOnUse" />
  </defs>
  <g
     transform="translate(0.5,0.5)"
     id="g11">
    <rect
       x="1"
       y="32"
       width="150"
       height="160"
       transform="translate(2,3)"
       id="rect13"
       style="fill:#d0d0d0;stroke:#d0d0d0" />
    <rect
       x="1"
       y="32"
       width="150"
       height="160"
       pointer-events="none"
       id="rect15"
       style="fill:#ffffdd;stroke:#000000" />
    <path
       d="M 6,47 26,57 6,67 z"
       transform="matrix(0,-1,1,0,-41,73)"
       pointer-events="none"
       id="path17"
       inkscape:connector-curvature="0"
       style="fill:#cc0000;stroke:none" />
    <path
       d="m 46,142 20,10 -20,10 z"
       transform="matrix(0,-1,1,0,-96,208)"
       pointer-events="none"
       id="path19"
       inkscape:connector-curvature="0"
       style="fill:#cc0000;stroke:none" />
    <path
       d="M 91,67 111,77 91,87 z"
       transform="matrix(0,-1,1,0,24,178)"
       pointer-events="none"
       id="path21"
       inkscape:connector-curvature="0"
       style="fill:#cc0000;stroke:none" />
    <path
       d="m 71,102 20,10 -20,10 z"
       transform="matrix(0,-1,1,0,-31,193)"
       pointer-events="none"
       id="path23"
       inkscape:connector-curvature="0"
       style="fill:#cc0000;stroke:none" />
    <path
       d="m 16,97 20,10 -20,10 z"
       transform="matrix(0,-1,1,0,-81,133)"
       pointer-events="none"
       id="path25"
       inkscape:connector-curvature="0"
       style="fill:#cc0000;stroke:none" />
    <path
       d="m 111,37 20,10 -20,10 z"
       transform="matrix(0,-1,1,0,74,168)"
       pointer-events="none"
       id="path27"
       inkscape:connector-curvature="0"
       style="fill:#cc0000;stroke:none" />
    <path
       d="m 111,162 20,10 -20,10 z"
       transform="matrix(0,-1,1,0,-51,293)"
       pointer-events="none"
       id="path29"
       inkscape:connector-curvature="0"
       style="fill:#cc0000;stroke:none" />
    <ellipse
       cx="56"
       cy="77"
       rx="10"
       ry="10"
       pointer-events="none"
       id="ellipse31"
       d="m 66,77 c 0,5.522847 -4.477153,10 -10,10 -5.522847,0 -10,-4.477153 -10,-10 0,-5.522847 4.477153,-10 10,-10 5.522847,0 10,4.477153 10,10 z"
       sodipodi:cx="56"
       sodipodi:cy="77"
       sodipodi:rx="10"
       sodipodi:ry="10"
       style="fill:#4d9900;stroke:none" />
    <ellipse
       cx="111"
       cy="132"
       rx="10"
       ry="10"
       pointer-events="none"
       id="ellipse33"
       d="m 121,132 c 0,5.52285 -4.47715,10 -10,10 -5.52285,0 -10,-4.47715 -10,-10 0,-5.52285 4.47715,-10 10,-10 5.52285,0 10,4.47715 10,10 z"
       sodipodi:cx="111"
       sodipodi:cy="132"
       sodipodi:rx="10"
       sodipodi:ry="10"
       style="fill:#4d9900;stroke:none" />
    <ellipse
       cx="56"
       cy="122"
       rx="10"
       ry="10"
       pointer-events="none"
       id="ellipse35"
       d="m 66,122 c 0,5.52285 -4.477153,10 -10,10 -5.522847,0 -10,-4.47715 -10,-10 0,-5.52285 4.477153,-10 10,-10 5.522847,0 10,4.47715 10,10 z"
       sodipodi:cx="56"
       sodipodi:cy="122"
       sodipodi:rx="10"
       sodipodi:ry="10"
       style="fill:#4d9900;stroke:none" />
    <ellipse
       cx="86"
       cy="57"
       rx="10"
       ry="10"
       pointer-events="none"
       id="ellipse37"
       d="m 96,57 c 0,5.522847 -4.477153,10 -10,10 -5.522847,0 -10,-4.477153 -10,-10 0,-5.522847 4.477153,-10 10,-10 5.522847,0 10,4.477153 10,10 z"
       sodipodi:cx="86"
       sodipodi:cy="57"
       sodipodi:rx="10"
       sodipodi:ry="10"
       style="fill:#4d9900;stroke:none" />
    <ellipse
       cx="36"
       cy="142"
       rx="10"
       ry="10"
       pointer-events="none"
       id="ellipse39"
       d="m 46,142 c 0,5.52285 -4.477153,10 -10,10 -5.522847,0 -10,-4.47715 -10,-10 0,-5.52285 4.477153,-10 10,-10 5.522847,0 10,4.47715 10,10 z"
       sodipodi:cx="36"
       sodipodi:cy="142"
       sodipodi:rx="10"
       sodipodi:ry="10"
       style="fill:#4d9900;stroke:none" />
    <ellipse
       cx="131"
       cy="102"
       rx="10"
       ry="10"
       pointer-events="none"
       id="ellipse41"
       d="m 141,102 c 0,5.52285 -4.47715,10 -10,10 -5.52285,0 -10,-4.47715 -10,-10 0,-5.522847 4.47715,-10 10,-10 5.52285,0 10,4.477153 10,10 z"
       sodipodi:cx="131"
       sodipodi:cy="102"
       sodipodi:rx="10"
       sodipodi:ry="10"
       style="fill:#4d9900;stroke:none" />
    <rect
       x="31"
       y="37"
       width="20"
       height="20"
       pointer-events="none"
       id="rect43"
       style="fill:#0066cc;stroke:none" />
    <rect
       x="76"
       y="162"
       width="20"
       height="20"
       pointer-events="none"
       id="rect45"
       style="fill:#0066cc;stroke:none" />
    <rect
       x="16"
       y="162"
       width="20"
       height="20"
       pointer-events="none"
       id="rect47"
       style="fill:#0066cc;stroke:none" />
    <rect
       x="121"
       y="67"
       width="20"
       height="20"
       pointer-events="none"
       id="rect49"
       style="fill:#0066cc;stroke:none" />
    <rect
       x="381"
       y="27"
       width="130"
       height="50"
       transform="translate(2,3)"
       id="rect51"
       style="fill:#d0d0d0;stroke:#d0d0d0" />
    <rect
       x="381"
       y="27"
       width="130"
       height="50"
       pointer-events="none"
       id="rect53"
       style="fill:#ffffdd;stroke:#000000" />
    <rect
       x="381"
       y="87"
       width="130"
       height="50"
       transform="translate(2,3)"
       id="rect55"
       style="fill:#d0d0d0;stroke:#d0d0d0" />
    <rect
       x="381"
       y="87"
       width="130"
       height="50"
       pointer-events="none"
       id="rect57"
       style="fill:#ffffdd;stroke:#000000" />
    <rect
       x="381"
       y="147"
       width="130"
       height="50"
       transform="translate(2,3)"
       id="rect59"
       style="fill:#d0d0d0;stroke:#d0d0d0" />
    <rect
       x="381"
       y="147"
       width="130"
       height="50"
       pointer-events="none"
       id="rect61"
       style="fill:#ffffdd;stroke:#000000" />
    <ellipse
       cx="576"
       cy="90"
       rx="7.5"
       ry="7.5"
       pointer-events="none"
       id="ellipse63"
       d="m 583.5,90 c 0,4.142136 -3.35786,7.5 -7.5,7.5 -4.14214,0 -7.5,-3.357864 -7.5,-7.5 0,-4.142136 3.35786,-7.5 7.5,-7.5 4.14214,0 7.5,3.357864 7.5,7.5 z"
       sodipodi:cx="576"
       sodipodi:cy="90"
       sodipodi:rx="7.5"
       sodipodi:ry="7.5"
       style="fill:#cccccc;stroke:#000000" />
    <path
       d="m 576,97 0,25 m 0,-20 -15,0 m 15,0 15,0 m -15,20 -15,20 m 15,-20 15,20"
       stroke-miterlimit="10"
       pointer-events="none"
       id="path65"
       inkscape:connector-curvature="0"
       style="fill:none;stroke:#000000;stroke-miterlimit:10" />
    <g
       font-weight="bold"
       font-size="14px"
       id="g67"
       style="font-size:14px;font-weight:bold;text-anchor:middle;fill:#000000;font-family:Helvetica">
      <text
         x="576"
         y="162"
         id="text69">
        <tspan
           style="font-style:normal;font-variant:normal;font-weight:bold;font-stretch:normal;font-family:Arial;-inkscape-font-specification:Arial Bold"
           id="tspan3190">Ręczny przegląd</tspan>
      </text>
    </g>
    <path
       d="m 702,107 0,0"
       stroke-miterlimit="10"
       pointer-events="none"
       id="path71"
       inkscape:connector-curvature="0"
       style="fill:none;stroke:#000000;stroke-miterlimit:10" />
    <path
       d="m 702,107 0,0 0,0 0,0 z"
       stroke-miterlimit="10"
       pointer-events="none"
       id="path73"
       inkscape:connector-curvature="0"
       style="fill:#000000;stroke:#000000;stroke-miterlimit:10" />
    <rect
       x="201"
       y="83"
       width="130"
       height="60"
       transform="translate(2,3)"
       id="rect75"
       style="fill:#d0d0d0;stroke:#d0d0d0" />
    <rect
       x="201"
       y="83"
       width="130"
       height="60"
       pointer-events="none"
       id="rect77"
       style="fill:#cc0066;stroke:#000000" />
    <path
       d="m 214,83 0,60 m 104,-60 0,60"
       stroke-miterlimit="10"
       pointer-events="none"
       id="path79"
       inkscape:connector-curvature="0"
       style="fill:none;stroke:#000000;stroke-miterlimit:10" />
    <path
       d="m 387,34 20,10 -20,10 z"
       transform="matrix(0,-1,1,0,353,441)"
       pointer-events="none"
       id="path81"
       inkscape:connector-curvature="0"
       style="fill:#cc0000;stroke:none" />
    <path
       d="m 455,37 20,10 -20,10 z"
       transform="matrix(0,-1,1,0,418,512)"
       pointer-events="none"
       id="path83"
       inkscape:connector-curvature="0"
       style="fill:#cc0000;stroke:none" />
    <path
       d="m 473,52 20,10 -20,10 z"
       transform="matrix(0,-1,1,0,421,545)"
       pointer-events="none"
       id="path85"
       inkscape:connector-curvature="0"
       style="fill:#cc0000;stroke:none" />
    <path
       d="m 486,29 20,10 -20,10 z"
       transform="matrix(0,-1,1,0,457,535)"
       pointer-events="none"
       id="path87"
       inkscape:connector-curvature="0"
       style="fill:#cc0000;stroke:none" />
    <path
       d="m 408,39 20,10 -20,10 z"
       transform="matrix(0,-1,1,0,369,467)"
       pointer-events="none"
       id="path89"
       inkscape:connector-curvature="0"
       style="fill:#cc0000;stroke:none" />
    <path
       d="m 424,53 20,10 -20,10 z"
       transform="matrix(0,-1,1,0,371,497)"
       pointer-events="none"
       id="path91"
       inkscape:connector-curvature="0"
       style="fill:#cc0000;stroke:none" />
    <path
       d="m 436,29 20,10 -20,10 z"
       transform="matrix(0,-1,1,0,407,485)"
       pointer-events="none"
       id="path93"
       inkscape:connector-curvature="0"
       style="fill:#cc0000;stroke:none" />
    <rect
       x="397"
       y="95"
       width="20"
       height="20"
       pointer-events="none"
       id="rect95"
       style="fill:#0066cc;stroke:none" />
    <rect
       x="423"
       y="111"
       width="20"
       height="20"
       pointer-events="none"
       id="rect97"
       style="fill:#0066cc;stroke:none" />
    <rect
       x="452"
       y="96"
       width="20"
       height="20"
       pointer-events="none"
       id="rect99"
       style="fill:#0066cc;stroke:none" />
    <rect
       x="481"
       y="111"
       width="20"
       height="20"
       pointer-events="none"
       id="rect101"
       style="fill:#0066cc;stroke:none" />
    <ellipse
       cx="401"
       cy="162"
       rx="10"
       ry="10"
       pointer-events="none"
       id="ellipse103"
       d="m 411,162 c 0,5.52285 -4.47715,10 -10,10 -5.52285,0 -10,-4.47715 -10,-10 0,-5.52285 4.47715,-10 10,-10 5.52285,0 10,4.47715 10,10 z"
       sodipodi:cx="401"
       sodipodi:cy="162"
       sodipodi:rx="10"
       sodipodi:ry="10"
       style="fill:#4d9900;stroke:none" />
    <ellipse
       cx="418"
       cy="182"
       rx="10"
       ry="10"
       pointer-events="none"
       id="ellipse105"
       d="m 428,182 c 0,5.52285 -4.47715,10 -10,10 -5.52285,0 -10,-4.47715 -10,-10 0,-5.52285 4.47715,-10 10,-10 5.52285,0 10,4.47715 10,10 z"
       sodipodi:cx="418"
       sodipodi:cy="182"
       sodipodi:rx="10"
       sodipodi:ry="10"
       style="fill:#4d9900;stroke:none" />
    <ellipse
       cx="435"
       cy="162"
       rx="10"
       ry="10"
       pointer-events="none"
       id="ellipse107"
       d="m 445,162 c 0,5.52285 -4.47715,10 -10,10 -5.52285,0 -10,-4.47715 -10,-10 0,-5.52285 4.47715,-10 10,-10 5.52285,0 10,4.47715 10,10 z"
       sodipodi:cx="435"
       sodipodi:cy="162"
       sodipodi:rx="10"
       sodipodi:ry="10"
       style="fill:#4d9900;stroke:none" />
    <ellipse
       cx="453"
       cy="182"
       rx="10"
       ry="10"
       pointer-events="none"
       id="ellipse109"
       d="m 463,182 c 0,5.52285 -4.47715,10 -10,10 -5.52285,0 -10,-4.47715 -10,-10 0,-5.52285 4.47715,-10 10,-10 5.52285,0 10,4.47715 10,10 z"
       sodipodi:cx="453"
       sodipodi:cy="182"
       sodipodi:rx="10"
       sodipodi:ry="10"
       style="fill:#4d9900;stroke:none" />
    <ellipse
       cx="471"
       cy="162"
       rx="10"
       ry="10"
       pointer-events="none"
       id="ellipse111"
       d="m 481,162 c 0,5.52285 -4.47715,10 -10,10 -5.52285,0 -10,-4.47715 -10,-10 0,-5.52285 4.47715,-10 10,-10 5.52285,0 10,4.47715 10,10 z"
       sodipodi:cx="471"
       sodipodi:cy="162"
       sodipodi:rx="10"
       sodipodi:ry="10"
       style="fill:#4d9900;stroke:none" />
    <ellipse
       cx="491"
       cy="182"
       rx="10"
       ry="10"
       pointer-events="none"
       id="ellipse113"
       d="m 501,182 c 0,5.52285 -4.47715,10 -10,10 -5.52285,0 -10,-4.47715 -10,-10 0,-5.52285 4.47715,-10 10,-10 5.52285,0 10,4.47715 10,10 z"
       sodipodi:cx="491"
       sodipodi:cy="182"
       sodipodi:rx="10"
       sodipodi:ry="10"
       style="fill:#4d9900;stroke:none" />
    <path
       d="m 642,27 65,0 0,-25 65,0 0,75 -130,0 0,-50 z"
       stroke-miterlimit="10"
       transform="translate(2,3)"
       id="path115"
       inkscape:connector-curvature="0"
       style="fill:#d0d0d0;stroke:#d0d0d0;stroke-miterlimit:10" />
    <path
       d="m 642,27 65,0 0,-25 65,0 0,75 -130,0 0,-50 z"
       stroke-miterlimit="10"
       pointer-events="none"
       id="path117"
       inkscape:connector-curvature="0"
       style="fill:#ffffdd;stroke:#000000;stroke-miterlimit:10" />
    <path
       d="m 707,27 65,0"
       stroke-miterlimit="10"
       pointer-events="none"
       id="path119"
       inkscape:connector-curvature="0"
       style="fill:none;stroke:#000000;stroke-miterlimit:10" />
    <rect
       x="710"
       y="1"
       width="60"
       height="30"
       pointer-events="none"
       id="rect121"
       style="fill:none;stroke:none" />
    <g
       font-weight="bold"
       font-size="12px"
       id="g123"
       style="font-size:12px;font-weight:bold;text-anchor:middle;fill:#000000;font-family:Helvetica">
      <text
         x="740"
         y="20"
         id="text125">
        <tspan
           style="font-style:normal;font-variant:normal;font-weight:bold;font-stretch:normal;font-family:Arial;-inkscape-font-specification:Arial Bold"
           id="tspan3192">Trójkąty</tspan>
      </text>
    </g>
    <path
       d="m 648,34 20,10 -20,10 z"
       transform="matrix(0,-1,1,0,614,702)"
       pointer-events="none"
       id="path127"
       inkscape:connector-curvature="0"
       style="fill:#cc0000;stroke:none" />
    <path
       d="m 734,52 20,10 -20,10 z"
       transform="matrix(0,-1,1,0,682,806)"
       pointer-events="none"
       id="path129"
       inkscape:connector-curvature="0"
       style="fill:#cc0000;stroke:none" />
    <path
       d="m 747,29 20,10 -20,10 z"
       transform="matrix(0,-1,1,0,718,796)"
       pointer-events="none"
       id="path131"
       inkscape:connector-curvature="0"
       style="fill:#cc0000;stroke:none" />
    <path
       d="m 669,39 20,10 -20,10 z"
       transform="matrix(0,-1,1,0,630,728)"
       pointer-events="none"
       id="path133"
       inkscape:connector-curvature="0"
       style="fill:#cc0000;stroke:none" />
    <path
       d="m 697,29 20,10 -20,10 z"
       transform="matrix(0,-1,1,0,668,746)"
       pointer-events="none"
       id="path135"
       inkscape:connector-curvature="0"
       style="fill:#cc0000;stroke:none" />
    <path
       d="m 717,39 20,10 -20,10 z"
       transform="matrix(0,-1,1,0,678,776)"
       pointer-events="none"
       id="path137"
       inkscape:connector-curvature="0"
       style="fill:#cc0000;stroke:none" />
    <path
       d="m 686,53 20,10 -20,10 z"
       transform="matrix(0,-1,1,0,633,759)"
       pointer-events="none"
       id="path139"
       inkscape:connector-curvature="0"
       style="fill:#cc0000;stroke:none" />
    <path
       d="m 642,108 62,0 0,-26 68,0 0,75 -130,0 0,-49 z"
       stroke-miterlimit="10"
       transform="translate(2,3)"
       id="path141"
       inkscape:connector-curvature="0"
       style="fill:#d0d0d0;stroke:#d0d0d0;stroke-miterlimit:10" />
    <path
       d="m 642,108 62,0 0,-26 68,0 0,75 -130,0 0,-49 z"
       stroke-miterlimit="10"
       pointer-events="none"
       id="path143"
       inkscape:connector-curvature="0"
       style="fill:#ffffdd;stroke:#000000;stroke-miterlimit:10" />
    <path
       d="m 704,108 68,0"
       stroke-miterlimit="10"
       pointer-events="none"
       id="path145"
       inkscape:connector-curvature="0"
       style="fill:none;stroke:#000000;stroke-miterlimit:10" />
    <path
       d="m 642,187 71,0 0,-25 59,0 0,75 -130,0 0,-50 z"
       stroke-miterlimit="10"
       transform="translate(2,3)"
       id="path147"
       inkscape:connector-curvature="0"
       style="fill:#d0d0d0;stroke:#d0d0d0;stroke-miterlimit:10" />
    <path
       d="m 642,187 71,0 0,-25 59,0 0,75 -130,0 0,-50 z"
       stroke-miterlimit="10"
       pointer-events="none"
       id="path149"
       inkscape:connector-curvature="0"
       style="fill:#ffffdd;stroke:#000000;stroke-miterlimit:10" />
    <path
       d="m 713,187 59,0"
       stroke-miterlimit="10"
       pointer-events="none"
       id="path151"
       inkscape:connector-curvature="0"
       style="fill:none;stroke:#000000;stroke-miterlimit:10" />
    <path
       d="m 151,115 0,-10 20,0 0,-10 30,15 -30,15 0,-10 z"
       stroke-miterlimit="10"
       pointer-events="none"
       id="path153"
       inkscape:connector-curvature="0"
       style="fill:url(#linearGradient3085);stroke:#000000;stroke-miterlimit:10" />
    <path
       d="m 331,115 0,-10 20,0 0,-10 30,15 -30,15 0,-10 z"
       stroke-miterlimit="10"
       pointer-events="none"
       id="path155"
       inkscape:connector-curvature="0"
       style="fill:url(#linearGradient3087);stroke:#000000;stroke-miterlimit:10" />
    <path
       d="m 511,115 0,-10 20,0 0,-10 30,15 -30,15 0,-10 z"
       stroke-miterlimit="10"
       pointer-events="none"
       id="path157"
       inkscape:connector-curvature="0"
       style="fill:url(#linearGradient3089);stroke:#000000;stroke-miterlimit:10" />
    <path
       d="m 591,115 0,-10 20,0 0,-10 30,15 -30,15 0,-10 z"
       stroke-miterlimit="10"
       pointer-events="none"
       id="path159"
       inkscape:connector-curvature="0"
       style="fill:url(#linearGradient3091);stroke:#000000;stroke-miterlimit:10" />
    <rect
       x="699"
       y="85"
       width="80"
       height="20"
       pointer-events="none"
       id="rect161"
       style="fill:none;stroke:none" />
    <g
       font-weight="bold"
       font-size="12px"
       id="g163"
       style="font-size:12px;font-weight:bold;text-anchor:middle;fill:#000000;font-family:Helvetica">
      <text
         x="739"
         y="99"
         id="text165">
        <tspan
           style="font-style:normal;font-variant:normal;font-weight:bold;font-stretch:normal;font-family:Arial;-inkscape-font-specification:Arial Bold"
           id="tspan3194">Kwadraty</tspan>
      </text>
    </g>
    <rect
       x="702"
       y="165"
       width="80"
       height="20"
       pointer-events="none"
       id="rect167"
       style="fill:none;stroke:none" />
    <g
       font-weight="bold"
       font-size="12px"
       id="g169"
       style="font-size:12px;font-weight:bold;text-anchor:middle;fill:#000000;font-family:Helvetica">
      <text
         x="742"
         y="179"
         id="text171">
        <tspan
           style="font-style:normal;font-variant:normal;font-weight:bold;font-stretch:normal;font-family:Arial;-inkscape-font-specification:Arial Bold"
           id="tspan3196">Kółka</tspan>
      </text>
    </g>
    <rect
       x="658"
       y="115"
       width="20"
       height="20"
       pointer-events="none"
       id="rect173"
       style="fill:#0066cc;stroke:none" />
    <rect
       x="684"
       y="131"
       width="20"
       height="20"
       pointer-events="none"
       id="rect175"
       style="fill:#0066cc;stroke:none" />
    <rect
       x="713"
       y="116"
       width="20"
       height="20"
       pointer-events="none"
       id="rect177"
       style="fill:#0066cc;stroke:none" />
    <rect
       x="742"
       y="131"
       width="20"
       height="20"
       pointer-events="none"
       id="rect179"
       style="fill:#0066cc;stroke:none" />
    <ellipse
       cx="662"
       cy="202"
       rx="10"
       ry="10"
       pointer-events="none"
       id="ellipse181"
       d="m 672,202 c 0,5.52285 -4.47715,10 -10,10 -5.52285,0 -10,-4.47715 -10,-10 0,-5.52285 4.47715,-10 10,-10 5.52285,0 10,4.47715 10,10 z"
       sodipodi:cx="662"
       sodipodi:cy="202"
       sodipodi:rx="10"
       sodipodi:ry="10"
       style="fill:#4d9900;stroke:none" />
    <ellipse
       cx="679"
       cy="222"
       rx="10"
       ry="10"
       pointer-events="none"
       id="ellipse183"
       d="m 689,222 c 0,5.52285 -4.47715,10 -10,10 -5.52285,0 -10,-4.47715 -10,-10 0,-5.52285 4.47715,-10 10,-10 5.52285,0 10,4.47715 10,10 z"
       sodipodi:cx="679"
       sodipodi:cy="222"
       sodipodi:rx="10"
       sodipodi:ry="10"
       style="fill:#4d9900;stroke:none" />
    <ellipse
       cx="696"
       cy="202"
       rx="10"
       ry="10"
       pointer-events="none"
       id="ellipse185"
       d="m 706,202 c 0,5.52285 -4.47715,10 -10,10 -5.52285,0 -10,-4.47715 -10,-10 0,-5.52285 4.47715,-10 10,-10 5.52285,0 10,4.47715 10,10 z"
       sodipodi:cx="696"
       sodipodi:cy="202"
       sodipodi:rx="10"
       sodipodi:ry="10"
       style="fill:#4d9900;stroke:none" />
    <ellipse
       cx="714"
       cy="222"
       rx="10"
       ry="10"
       pointer-events="none"
       id="ellipse187"
       d="m 724,222 c 0,5.52285 -4.47715,10 -10,10 -5.52285,0 -10,-4.47715 -10,-10 0,-5.52285 4.47715,-10 10,-10 5.52285,0 10,4.47715 10,10 z"
       sodipodi:cx="714"
       sodipodi:cy="222"
       sodipodi:rx="10"
       sodipodi:ry="10"
       style="fill:#4d9900;stroke:none" />
    <ellipse
       cx="732"
       cy="202"
       rx="10"
       ry="10"
       pointer-events="none"
       id="ellipse189"
       d="m 742,202 c 0,5.52285 -4.47715,10 -10,10 -5.52285,0 -10,-4.47715 -10,-10 0,-5.52285 4.47715,-10 10,-10 5.52285,0 10,4.47715 10,10 z"
       sodipodi:cx="732"
       sodipodi:cy="202"
       sodipodi:rx="10"
       sodipodi:ry="10"
       style="fill:#4d9900;stroke:none" />
    <ellipse
       cx="752"
       cy="222"
       rx="10"
       ry="10"
       pointer-events="none"
       id="ellipse191"
       d="m 762,222 c 0,5.52285 -4.47715,10 -10,10 -5.52285,0 -10,-4.47715 -10,-10 0,-5.52285 4.47715,-10 10,-10 5.52285,0 10,4.47715 10,10 z"
       sodipodi:cx="752"
       sodipodi:cy="222"
       sodipodi:rx="10"
       sodipodi:ry="10"
       style="fill:#4d9900;stroke:none" />
    <rect
       x="211"
       y="83"
       width="110"
       height="59"
       pointer-events="none"
       id="rect193"
       style="fill:none;stroke:none" />
    <g
       font-weight="bold"
       font-size="14px"
       id="g195"
       style="font-size:14px;font-weight:bold;text-anchor:middle;fill:#ffffff;font-family:Helvetica">
      <text
         x="266"
         y="118"
         id="text197">
        <tspan
           style="font-style:normal;font-variant:normal;font-weight:bold;font-stretch:normal;font-family:Arial;-inkscape-font-specification:Arial Bold"
           id="tspan3188">Algorytm</tspan>
      </text>
    </g>
  </g>
  <text
     xml:space="preserve"
     style="font-size:12px;font-style:normal;font-weight:normal;text-align:center;line-height:125%;letter-spacing:0px;word-spacing:0px;text-anchor:middle;fill:#000000;fill-opacity:1;stroke:none;font-family:Sans"
     x="125.08262"
     y="-42.227921"
     id="text3184"
     sodipodi:linespacing="125%"><tspan
       sodipodi:role="line"
       id="tspan3186"
       x="125.08262"
       y="-42.227921" /></text>
</svg>
